<svg version="1.1" id="Layer_1" xmlns="http://www.w3.org/2000/svg" xmlns:xlink="http://www.w3.org/1999/xlink" x="0px" y="0px"
	 width="100%" viewBox="0 0 3240 3240" enable-background="new 0 0 3240 3240" xml:space="preserve">
<path fill="#000000" opacity="1.000000" stroke="none" 
	d="
M1886.000000,3242.000000 
	C1257.333496,3242.000000 629.667053,3242.000000 2.000421,3242.000000 
	C2.000281,2162.000488 2.000281,1082.000977 2.000140,2.001145 
	C1081.999146,2.000764 2161.998291,2.000764 3241.998047,2.000382 
	C3241.998779,1081.998901 3241.998779,2161.997803 3241.999512,3241.998291 
	C2790.333252,3242.000000 2338.666748,3242.000000 1886.000000,3242.000000 
M1432.399780,1506.664795 
	C1432.399780,1446.244385 1432.399780,1385.823975 1432.399780,1324.191528 
	C1424.271362,1324.191528 1417.379028,1324.191528 1409.387939,1324.059570 
	C1409.019653,1324.038574 1408.651489,1324.017578 1407.856323,1322.170044 
	C1407.856323,1312.284546 1407.856323,1302.399048 1407.856323,1291.670166 
	C1401.645630,1291.670166 1396.400513,1291.674561 1391.155273,1291.669556 
	C1321.654541,1291.604614 1252.153687,1291.538208 1181.158813,1290.575317 
	C1170.346313,1290.253662 1159.526367,1289.765625 1148.844727,1290.818237 
	C1148.844727,1345.728271 1148.844727,1399.451172 1148.844727,1454.171875 
	C1160.264282,1454.171875 1171.141479,1454.171875 1183.268799,1455.253662 
	C1190.871216,1455.500732 1198.473755,1455.747681 1206.219360,1457.856445 
	C1206.233521,1465.952515 1206.293213,1474.048950 1206.238647,1482.144531 
	C1206.217773,1485.234253 1206.388428,1488.046021 1210.256714,1490.476440 
	C1210.256714,1614.687378 1210.256714,1738.898193 1210.256714,1863.908081 
	C1222.221924,1863.908081 1233.104858,1863.908081 1245.799683,1864.251709 
	C1253.139038,1864.370117 1260.478516,1864.488647 1267.967041,1866.394043 
	C1267.967041,1876.615479 1267.967041,1886.837036 1267.967041,1897.598999 
	C1272.164307,1897.880615 1275.063843,1898.242432 1277.963623,1898.244507 
	C1326.855713,1898.279297 1375.748657,1898.128540 1424.638794,1898.437744 
	C1431.174927,1898.479248 1434.867920,1896.110107 1438.519531,1891.095093 
	C1463.555664,1856.711792 1488.806274,1822.484009 1514.093140,1788.284058 
	C1535.225586,1759.703125 1556.501587,1731.228271 1578.663452,1703.909790 
	C1600.471558,1733.272705 1622.299194,1762.621094 1644.081543,1792.003174 
	C1660.320557,1813.907837 1676.604004,1835.781006 1692.626099,1857.843628 
	C1696.082031,1862.602661 1699.840576,1864.857056 1705.856689,1864.394531 
	C1713.800415,1863.783813 1721.808716,1864.010010 1730.630371,1864.345703 
	C1730.630371,1864.345703 1731.469604,1864.818481 1731.706787,1866.151245 
	C1737.793335,1874.479370 1744.160889,1882.620850 1749.862915,1891.204590 
	C1753.366333,1896.478394 1757.391235,1898.459961 1763.838257,1898.423096 
	C1812.823975,1898.142456 1861.812012,1898.280884 1910.799316,1898.239746 
	C1913.672974,1898.237305 1916.546265,1897.809692 1919.609131,1897.564819 
	C1919.609131,1706.333618 1919.609131,1515.900879 1919.609131,1324.845947 
	C1911.862793,1324.468872 1904.750732,1322.818970 1896.968750,1325.718018 
	C1896.968750,1325.718018 1896.244263,1325.732178 1895.427490,1325.360962 
	C1895.427490,1325.360962 1894.731323,1325.926880 1894.655762,1324.064697 
	C1894.655762,1313.525879 1894.655762,1302.987061 1894.655762,1291.670166 
	C1880.834595,1291.670166 1867.936523,1291.693237 1855.038452,1291.666016 
	C1814.127808,1291.579712 1773.217285,1291.474609 1730.860840,1290.486450 
	C1720.016113,1290.486450 1709.171509,1290.486450 1697.732666,1290.486450 
	C1697.732666,1295.451050 1697.732666,1299.084351 1697.732666,1302.717651 
	C1697.732666,1366.919434 1697.710449,1431.121216 1697.747559,1495.322998 
	C1697.757202,1511.947998 1697.952759,1528.573120 1697.005371,1544.199097 
	C1654.424438,1486.823975 1611.843506,1429.448853 1568.893066,1371.575928 
	C1563.165649,1378.781982 1557.830322,1385.494751 1551.782349,1390.990356 
	C1546.229248,1384.711670 1542.643311,1376.707520 1535.535645,1371.103149 
	C1533.263672,1373.887939 1531.518555,1375.854980 1529.961426,1377.961182 
	C1509.289551,1405.925537 1488.707764,1433.956787 1467.966675,1461.869629 
	C1456.320190,1477.543335 1444.421387,1493.029541 1432.399780,1506.664795 
M2720.269043,1404.345337 
	C2720.291992,1391.028076 2720.069336,1377.703491 2720.456787,1364.396851 
	C2720.615723,1358.937866 2718.814209,1355.164062 2714.986328,1351.383057 
	C2691.301514,1327.987793 2667.690186,1304.512817 2644.422363,1280.704956 
	C2639.362305,1275.527344 2634.338867,1273.497559 2627.082275,1273.507935 
	C2477.263428,1273.721802 2327.444092,1273.668823 2177.625000,1273.668823 
	C2157.145752,1273.668823 2157.145752,1273.668823 2141.616211,1290.016113 
	C2134.628662,1290.103149 2127.626953,1290.498413 2120.657959,1290.181030 
	C2114.927979,1289.920044 2110.711670,1291.668701 2106.609863,1295.833496 
	C2083.248779,1319.552368 2059.694092,1343.083252 2035.992920,1366.462646 
	C2031.887573,1370.512329 2030.154053,1374.630249 2030.160400,1380.432373 
	C2030.304688,1511.605591 2030.298950,1642.779053 2030.173340,1773.952271 
	C2030.168091,1779.362793 2031.680054,1783.273438 2035.565430,1787.098389 
	C2056.442627,1807.651367 2077.065430,1828.463013 2097.780029,1849.181396 
	C2113.443115,1864.847290 2113.445801,1864.844604 2136.598633,1865.107056 
	C2144.827881,1873.366211 2153.438965,1881.287109 2161.158447,1889.997803 
	C2166.722900,1896.276611 2172.755859,1898.475952 2181.157471,1898.460083 
	C2317.077148,1898.205078 2452.997559,1898.279541 2588.917725,1898.279541 
	C2602.576416,1898.279541 2616.245605,1897.960815 2629.888672,1898.421875 
	C2636.155518,1898.633667 2640.402344,1896.448853 2644.687256,1892.099243 
	C2667.598633,1868.842773 2690.698486,1845.769531 2713.957764,1822.861084 
	C2718.063721,1818.816895 2720.090576,1814.758057 2719.873779,1808.922241 
	C2719.490234,1798.610596 2719.810791,1788.272827 2720.559082,1776.195923 
	C2720.667969,1773.874756 2720.871582,1771.553467 2720.871826,1769.232300 
	C2720.887695,1651.187500 2720.891602,1533.142700 2720.852295,1415.097900 
	C2720.851318,1412.146118 2720.351074,1409.194458 2720.269043,1404.345337 
M869.689697,1490.474609 
	C869.696899,1498.729858 869.661560,1506.985474 869.719788,1515.240479 
	C869.866333,1536.027100 870.055054,1556.813354 868.337585,1577.842041 
	C814.751160,1577.820923 761.164673,1577.799805 706.954590,1576.296143 
	C706.581970,1561.123657 706.209290,1545.951294 705.827209,1530.393921 
	C698.337952,1530.393921 691.583862,1530.393921 683.995239,1530.393921 
	C683.995239,1546.605713 683.995239,1562.160522 682.335083,1577.177856 
	C682.019104,1550.395264 681.703125,1523.612671 681.379272,1496.164062 
	C677.524231,1496.164062 674.587219,1496.167603 671.650208,1496.163452 
	C648.044861,1496.130127 624.439392,1496.116211 600.834106,1496.055176 
	C573.908447,1495.985352 546.982849,1495.873291 518.830933,1494.649536 
	C507.627411,1494.649536 496.423889,1494.649536 484.799042,1494.649536 
	C484.799042,1618.076904 484.799042,1740.558472 484.799042,1863.906860 
	C496.172058,1863.906860 507.046387,1863.906860 519.739136,1864.261719 
	C527.099243,1864.376587 534.459290,1864.491333 541.970276,1866.392944 
	C541.970276,1876.627686 541.970276,1886.862549 541.970276,1897.525879 
	C597.412292,1897.525879 651.452087,1897.525879 706.242432,1897.525879 
	C706.336609,1856.672241 706.197815,1816.543579 706.325317,1775.736694 
	C711.744568,1775.736694 715.708313,1775.736694 719.672058,1775.736694 
	C812.955261,1775.736694 906.238708,1775.654175 999.521240,1775.896729 
	C1006.816650,1775.915649 1011.879700,1773.821533 1016.955750,1768.625610 
	C1039.303833,1745.749390 1061.911621,1723.119019 1084.810181,1700.794434 
	C1090.068604,1695.667847 1091.904907,1690.479980 1091.887329,1683.281860 
	C1091.669067,1594.330322 1091.744873,1505.377808 1091.744385,1416.425659 
	C1091.744263,1414.426758 1092.117798,1412.331177 1091.640259,1410.452881 
	C1091.017944,1408.004761 1090.273071,1405.191772 1088.610718,1403.475220 
	C1082.612183,1397.280640 1076.206543,1391.479980 1069.401855,1384.652832 
	C1068.415527,1384.399902 1067.429077,1384.146973 1066.244141,1382.257690 
	C1067.264526,1375.755127 1064.520630,1371.164185 1059.872437,1366.617310 
	C1037.237915,1344.476196 1014.748718,1322.177734 992.642395,1299.511353 
	C987.101990,1293.830566 981.630676,1291.474609 973.601379,1291.486084 
	C805.941589,1291.728149 638.281494,1291.670654 470.621429,1291.659424 
	C465.956604,1291.659058 461.291779,1291.518188 455.124481,1290.567383 
	C444.326965,1290.266846 433.519958,1289.751343 422.940033,1290.818604 
	C420.912872,1313.328979 421.818176,1446.666748 424.134033,1454.347168 
	C434.521545,1454.347168 445.121124,1454.347168 456.982513,1455.480591 
	C464.676208,1455.648926 472.369934,1455.817261 480.215637,1457.851562 
	C480.215637,1467.713379 480.215637,1477.575073 480.215637,1488.270142 
	C485.568817,1488.270142 489.502777,1488.270142 493.436707,1488.270142 
	C614.526062,1488.270142 735.615356,1488.265503 856.704712,1488.288818 
	C861.020203,1488.289673 865.335754,1488.568481 869.689697,1490.474609 
M695.000000,2028.283447 
	C620.144409,2028.283447 545.288818,2028.283447 470.316345,2028.283447 
	C470.316345,2074.914551 470.316345,2120.087646 470.316345,2166.276611 
	C1218.244141,2166.276611 1965.572021,2166.276611 2713.104980,2166.276611 
	C2713.104980,2119.625732 2713.104980,2074.476318 2713.104980,2028.283691 
	C2040.661377,2028.283691 1368.830688,2028.283691 695.000000,2028.283447 
z"/>
<path fill="#FFFFFF" opacity="1.000000" stroke="none" 
	d="
M1182.653076,1291.472168 
	C1252.153687,1291.538208 1321.654541,1291.604614 1391.155273,1291.669556 
	C1396.400513,1291.674561 1401.645630,1291.670166 1407.856323,1291.670166 
	C1407.856323,1302.399048 1407.856323,1312.284546 1407.874268,1324.002930 
	C1407.880859,1410.071289 1407.866699,1494.306641 1407.871826,1578.542114 
	C1407.871948,1581.184937 1408.072632,1583.827637 1408.179810,1586.470459 
	C1408.843750,1586.328247 1409.507690,1586.186035 1410.766479,1585.744629 
	C1418.432617,1575.504272 1425.504028,1565.563232 1433.087158,1555.292480 
	C1472.191162,1502.745117 1510.792480,1450.533936 1549.337769,1398.281494 
	C1550.675781,1396.467651 1551.455078,1394.241577 1552.494873,1392.207520 
	C1557.830322,1385.494751 1563.165649,1378.781982 1568.893066,1371.575928 
	C1611.843506,1429.448853 1654.424438,1486.823975 1697.573730,1545.255005 
	C1699.421021,1547.646484 1700.699829,1548.981934 1702.042480,1550.949707 
	C1703.316284,1552.489624 1704.526245,1553.397217 1705.830444,1554.225098 
	C1705.924683,1554.145508 1705.682251,1554.191528 1705.454834,1554.881592 
	C1707.395630,1557.809326 1709.563721,1560.047119 1711.826660,1562.184326 
	C1711.921753,1562.083862 1711.668701,1562.195190 1711.417725,1562.884399 
	C1713.351318,1565.816406 1715.536011,1568.059204 1717.807861,1570.201660 
	C1717.894897,1570.101440 1717.648682,1570.200928 1717.364014,1570.886719 
	C1719.291260,1573.819702 1721.503296,1576.067017 1723.802002,1578.206787 
	C1723.888550,1578.099243 1723.639404,1578.218384 1723.342773,1578.914551 
	C1725.208008,1582.594238 1727.369751,1585.577881 1729.531372,1588.561523 
	C1730.097046,1588.275757 1730.662598,1587.989868 1731.228149,1587.703979 
	C1730.989990,1586.298340 1730.751953,1584.892700 1730.804321,1582.495728 
	C1731.154419,1577.182739 1731.265503,1572.861084 1731.266113,1568.539429 
	C1731.276245,1480.078979 1731.260498,1391.618652 1731.317505,1303.158203 
	C1731.320068,1299.230835 1731.962280,1295.303833 1732.306641,1291.376709 
	C1773.217285,1291.474609 1814.127808,1291.579712 1855.038452,1291.666016 
	C1867.936523,1291.693237 1880.834595,1291.670166 1894.655762,1291.670166 
	C1894.655762,1302.987061 1894.655762,1313.525879 1894.372437,1325.871216 
	C1894.050659,1331.675781 1893.978394,1335.673950 1893.978271,1339.671997 
	C1893.972656,1510.294556 1893.973511,1680.917114 1893.973511,1851.539673 
	C1893.973511,1855.465332 1893.973511,1859.390991 1893.973511,1864.312622 
	C1889.538574,1864.312622 1885.963257,1864.312744 1882.387939,1864.312744 
	C1835.733398,1864.312744 1789.078735,1864.301147 1742.424194,1864.334229 
	C1738.772583,1864.336792 1735.121094,1864.649780 1731.469604,1864.818359 
	C1731.469604,1864.818481 1730.630371,1864.345703 1730.074219,1863.461670 
	C1700.605225,1823.539917 1671.737549,1784.468872 1642.762451,1745.477783 
	C1626.499023,1723.592773 1610.057617,1701.840210 1593.510254,1679.389404 
	C1585.283569,1667.864624 1577.242920,1656.978516 1568.722778,1645.442749 
	C1559.537964,1657.843872 1550.825562,1669.569580 1542.152344,1681.324463 
	C1498.687622,1740.232788 1455.185303,1799.113647 1411.871582,1858.132812 
	C1408.593506,1862.599365 1405.269287,1865.115601 1399.619751,1864.379761 
	C1396.673462,1863.995972 1393.635864,1864.306519 1390.639526,1864.313599 
	C1349.698975,1864.410278 1308.758423,1864.508911 1267.817871,1864.607178 
	C1260.478516,1864.488647 1253.139038,1864.370117 1244.899414,1863.149780 
	C1244.003540,1740.782104 1244.011597,1619.516479 1243.993530,1498.250732 
	C1243.993042,1494.930908 1243.712769,1491.610962 1243.739014,1487.347656 
	C1243.915161,1476.301514 1243.915161,1466.198975 1243.915161,1455.994751 
	C1230.387451,1455.994751 1218.231812,1455.994751 1206.076172,1455.994751 
	C1198.473755,1455.747681 1190.871216,1455.500732 1182.763306,1453.767334 
	C1182.273071,1415.985596 1182.254517,1379.690308 1182.318481,1343.394897 
	C1182.349121,1326.087158 1182.536621,1308.779785 1182.653076,1291.472168 
z"/>
<path fill="#CE2D32" opacity="1.000000" stroke="none" 
	d="
M696.000000,2028.283569 
	C1368.830688,2028.283691 2040.661377,2028.283691 2713.104980,2028.283691 
	C2713.104980,2074.476318 2713.104980,2119.625732 2713.104980,2166.276611 
	C1965.572021,2166.276611 1218.244141,2166.276611 470.316345,2166.276611 
	C470.316345,2120.087646 470.316345,2074.914551 470.316345,2028.283447 
	C545.288818,2028.283447 620.144409,2028.283447 696.000000,2028.283569 
M2616.848633,2059.997314 
	C2606.196777,2059.997803 2595.543701,2059.901123 2584.893555,2060.031006 
	C2577.194092,2060.124756 2569.253174,2067.304443 2569.121094,2074.695068 
	C2568.871582,2088.671143 2568.876709,2102.657959 2569.127441,2116.634033 
	C2569.263916,2124.240723 2576.972168,2131.575684 2584.658691,2131.659912 
	C2598.970459,2131.817383 2613.284912,2131.706055 2627.598389,2131.706543 
	C2632.183594,2131.706787 2636.769043,2131.706543 2641.661377,2131.706543 
	C2641.661377,2124.357178 2641.661377,2118.005371 2641.661377,2110.648926 
	C2624.092773,2110.648926 2607.296387,2110.648926 2590.314941,2110.648926 
	C2590.314941,2100.145996 2590.314941,2090.678467 2590.314941,2081.302734 
	C2606.631104,2079.115479 2619.110107,2079.771484 2625.818604,2083.972656 
	C2614.997070,2087.568604 2604.632812,2084.067383 2595.141113,2086.411621 
	C2595.141113,2093.191162 2595.141113,2099.296387 2595.141113,2106.011963 
	C2606.163574,2106.011963 2616.450439,2106.038818 2626.737549,2106.004883 
	C2638.894287,2105.965088 2645.317383,2099.402344 2645.376953,2087.023193 
	C2645.389893,2084.360107 2645.389893,2081.697266 2645.376953,2079.034180 
	C2645.317871,2066.617188 2638.919678,2060.069092 2626.777100,2059.999512 
	C2624.114014,2059.984375 2621.451172,2059.997314 2616.848633,2059.997314 
M950.536926,2126.219971 
	C953.822266,2130.547852 958.035095,2132.073730 963.558411,2131.826660 
	C973.201294,2131.394775 982.877319,2131.706543 992.539490,2131.706543 
	C1001.105042,2131.706543 1009.670593,2131.706543 1018.750610,2131.706543 
	C1018.750610,2124.476318 1018.750610,2118.336914 1018.750610,2110.920410 
	C1001.140930,2110.920410 984.025757,2110.920410 966.644958,2110.920410 
	C966.644958,2100.172363 966.644958,2090.706299 966.644958,2081.334961 
	C982.123779,2079.145996 995.325134,2079.794678 1003.189758,2084.287598 
	C991.483093,2086.976074 981.265198,2084.544678 971.866943,2086.255127 
	C971.866943,2093.260498 971.866943,2099.372559 971.866943,2105.281250 
	C973.312988,2105.627441 973.955872,2105.912354 974.600281,2105.916016 
	C983.928528,2105.970215 993.257141,2106.016602 1002.585510,2106.004883 
	C1015.603149,2105.988281 1021.776978,2099.742188 1021.814880,2086.613770 
	C1021.825439,2082.948730 1021.917664,2079.280273 1021.790161,2075.619629 
	C1021.511536,2067.617920 1013.940979,2060.107178 1005.801270,2060.036621 
	C990.809387,2059.906250 975.814209,2059.880615 960.823120,2060.048584 
	C953.120117,2060.135010 945.848999,2067.541260 945.758484,2075.326904 
	C945.599670,2088.985596 945.798279,2102.647949 945.651855,2116.306641 
	C945.613159,2119.920654 946.518188,2122.827637 950.536926,2126.219971 
M1199.928955,2067.416992 
	C1199.704346,2065.197266 1199.479858,2062.977295 1199.253296,2060.738770 
	C1189.855835,2060.738770 1181.083862,2060.738770 1172.184692,2060.738770 
	C1172.184692,2067.402100 1172.184692,2073.322266 1172.184692,2079.421631 
	C1174.593262,2080.100586 1176.709106,2080.697021 1179.845581,2081.580811 
	C1179.845581,2098.108398 1179.845581,2114.562012 1179.845581,2131.706299 
	C1183.576172,2131.706299 1186.213257,2131.432129 1188.773804,2131.757812 
	C1196.422974,2132.730713 1201.942871,2130.440430 1206.075928,2123.401611 
	C1209.848511,2116.976562 1214.965698,2111.341064 1220.113647,2104.533203 
	C1226.257690,2112.825195 1231.689087,2119.908203 1236.825562,2127.199219 
	C1239.167969,2130.523926 1241.856934,2132.079590 1246.000366,2131.779053 
	C1250.522705,2131.451416 1255.087158,2131.704590 1259.434082,2131.704590 
	C1261.466797,2116.246094 1260.806030,2066.987061 1258.723389,2060.562012 
	C1252.771484,2060.562012 1246.902100,2060.562012 1239.926880,2060.562012 
	C1239.926880,2072.095459 1239.926880,2083.118896 1239.926880,2094.142334 
	C1239.384155,2094.255859 1238.841431,2094.369385 1238.298584,2094.482910 
	C1232.394287,2086.705566 1226.489868,2078.928467 1219.938721,2070.299072 
	C1213.272339,2079.115723 1207.408081,2086.871582 1201.543945,2094.627197 
	C1201.005859,2094.395752 1200.467773,2094.164307 1199.929688,2093.932617 
	C1199.929688,2085.726074 1199.929688,2077.519287 1199.928955,2067.416992 
M1341.724365,2131.706543 
	C1356.049316,2131.706299 1370.375000,2131.783447 1384.699097,2131.677246 
	C1393.536377,2131.612061 1401.272583,2124.272461 1401.384399,2115.688477 
	C1401.557739,2102.365234 1401.559082,2089.036133 1401.379639,2075.713135 
	C1401.270264,2067.594238 1393.641113,2060.107178 1385.478760,2060.037109 
	C1369.822388,2059.903076 1354.163208,2059.902832 1338.506836,2060.035400 
	C1329.834106,2060.108887 1322.504395,2067.674072 1322.420776,2076.540771 
	C1322.301392,2089.198975 1322.316406,2101.859619 1322.413208,2114.518066 
	C1322.489014,2124.427734 1329.350342,2131.060059 1341.724365,2131.706543 
M2486.430664,2071.285645 
	C2486.350342,2078.685059 2486.270020,2086.084473 2486.164551,2095.795410 
	C2482.658936,2091.422607 2480.774902,2089.206299 2479.037354,2086.880371 
	C2473.457031,2079.411621 2468.054443,2071.805664 2462.299316,2064.475342 
	C2460.810791,2062.579346 2458.350586,2060.374756 2456.219482,2060.246094 
	C2448.064941,2059.751953 2439.862793,2060.046143 2431.308105,2060.046143 
	C2431.308105,2067.251953 2431.308105,2073.148193 2431.308105,2079.280518 
	C2433.645508,2080.000244 2435.734863,2080.643799 2438.808594,2081.590332 
	C2438.808594,2098.130859 2438.808594,2114.617676 2438.808594,2131.062500 
	C2446.073975,2131.062500 2452.227051,2131.062500 2459.608398,2131.062500 
	C2459.608398,2119.773193 2459.608398,2109.087646 2459.608398,2098.401855 
	C2463.142578,2100.280273 2465.052979,2102.437744 2466.775391,2104.735840 
	C2472.166748,2111.929443 2477.711426,2119.025146 2482.746094,2126.463379 
	C2485.503418,2130.537354 2488.733154,2132.166260 2493.546387,2131.776855 
	C2497.748047,2131.437256 2501.998779,2131.706299 2506.004150,2131.706299 
	C2508.156494,2118.905762 2507.641602,2067.271729 2505.447998,2060.385254 
	C2499.571045,2060.385254 2493.654297,2060.385254 2486.997070,2060.385254 
	C2486.794922,2063.604492 2486.613037,2066.503906 2486.430664,2071.285645 
M1973.521362,2131.706543 
	C1987.152100,2131.705078 2000.783936,2131.815186 2014.412964,2131.659912 
	C2022.538208,2131.567627 2030.038208,2124.035156 2030.130493,2115.889160 
	C2030.281006,2102.592773 2030.260254,2089.292480 2030.135498,2075.995361 
	C2030.057007,2067.636230 2022.869385,2060.124268 2014.731323,2060.045654 
	C1998.775024,2059.891357 1982.814941,2059.888428 1966.858643,2060.047607 
	C1959.195312,2060.124023 1951.853760,2067.535156 1951.760498,2075.239258 
	C1951.595581,2088.867920 1951.506958,2102.505371 1951.870483,2116.126221 
	C1951.949341,2119.081055 1953.645142,2122.261963 1955.341797,2124.849609 
	C1959.147461,2130.654297 1964.827637,2132.756104 1973.521362,2131.706543 
M710.977173,2059.997314 
	C702.336975,2059.997803 693.694946,2059.886963 685.057129,2060.030762 
	C677.105652,2060.163086 669.701111,2067.083740 669.585327,2074.804688 
	C669.376221,2088.758789 669.379333,2102.720215 669.580505,2116.674561 
	C669.689819,2124.258545 677.276306,2131.587402 684.976074,2131.660645 
	C700.593506,2131.809082 716.214111,2131.799316 731.831848,2131.667725 
	C740.496521,2131.594727 747.896240,2124.045898 747.982300,2115.290771 
	C748.103210,2102.996338 748.044250,2090.699463 748.004272,2078.403809 
	C747.966125,2066.669189 741.467102,2060.080566 729.907898,2060.004639 
	C724.258789,2059.967529 718.609192,2059.997803 710.977173,2059.997314 
M2142.059082,2129.891357 
	C2148.987305,2133.426025 2156.010254,2131.554932 2163.109375,2130.939941 
	C2163.109375,2107.100098 2163.109375,2083.947754 2163.109375,2060.578613 
	C2156.329590,2060.578613 2150.185059,2060.578613 2142.808350,2060.578613 
	C2142.808350,2071.840820 2142.808350,2082.563477 2142.808350,2093.285889 
	C2139.547852,2092.041260 2138.111572,2090.393799 2136.812500,2088.644287 
	C2131.053711,2080.889160 2125.465332,2073.002441 2119.518066,2065.395752 
	C2117.812500,2063.214600 2115.213623,2060.478027 2112.846680,2060.295166 
	C2104.695068,2059.665771 2096.464355,2060.052979 2087.990234,2060.052979 
	C2087.990234,2067.246582 2087.990234,2073.153076 2087.990234,2079.337891 
	C2090.266602,2080.095703 2092.364258,2080.794189 2094.965820,2081.660400 
	C2095.493164,2098.256836 2094.729248,2114.779785 2095.388672,2130.934082 
	C2102.897461,2130.934082 2109.031982,2130.934082 2115.442871,2130.934082 
	C2116.330078,2119.329590 2115.067871,2108.309570 2116.401611,2095.511719 
	C2125.582764,2107.841797 2133.336182,2118.254639 2142.059082,2129.891357 
M1481.041260,2080.329834 
	C1491.924316,2080.329834 1502.807373,2080.329834 1513.574463,2080.329834 
	C1513.574463,2086.132080 1513.574463,2090.627197 1513.574463,2095.453613 
	C1504.682495,2095.453613 1496.458862,2095.453613 1487.947632,2095.453613 
	C1487.193481,2092.103760 1486.505981,2089.050293 1485.929932,2086.491699 
	C1479.005127,2086.491699 1472.888794,2086.491699 1466.858154,2086.491699 
	C1466.858154,2101.807861 1466.858154,2116.304443 1466.858154,2131.170410 
	C1473.596191,2131.170410 1479.728027,2131.170410 1486.248535,2131.170410 
	C1486.696533,2126.154541 1487.100342,2121.632080 1487.503540,2117.117920 
	C1494.947388,2114.992676 1500.931885,2115.775391 1505.640747,2122.020996 
	C1507.625732,2124.653809 1510.090088,2127.029053 1512.701782,2129.048828 
	C1514.409912,2130.369629 1516.740479,2131.462891 1518.850708,2131.576904 
	C1524.986328,2131.907959 1531.151367,2131.694092 1539.379272,2131.694092 
	C1533.771729,2125.511230 1529.671631,2120.990234 1525.656982,2116.563721 
	C1534.831177,2104.462158 1534.831299,2104.462158 1534.831055,2088.364746 
	C1534.831055,2084.702637 1534.869385,2081.039795 1534.822144,2077.378174 
	C1534.687012,2066.895996 1528.029541,2060.061279 1517.711182,2060.017578 
	C1500.399170,2059.944336 1483.086304,2059.968018 1465.774170,2060.033447 
	C1463.581177,2060.041748 1461.390137,2060.547607 1459.351440,2060.803467 
	C1459.351440,2067.605469 1459.351440,2073.695801 1459.351440,2080.329834 
	C1466.454468,2080.329834 1472.757446,2080.329834 1481.041260,2080.329834 
M1766.654053,2080.330322 
	C1769.555542,2080.494629 1772.457031,2080.659180 1775.963135,2080.857910 
	C1776.349365,2091.164551 1776.420654,2100.862305 1776.002197,2110.333496 
	C1766.351562,2110.333496 1758.170654,2110.333496 1748.826172,2110.333496 
	C1748.826172,2101.917480 1748.826172,2094.126709 1748.826172,2086.267578 
	C1741.464355,2086.267578 1735.305664,2086.267578 1729.001465,2086.267578 
	C1729.001465,2101.596436 1729.001465,2116.326172 1729.001465,2131.697754 
	C1747.319580,2131.697754 1764.903076,2131.871338 1782.480347,2131.614258 
	C1789.738525,2131.508057 1796.705078,2123.368164 1796.790405,2115.424316 
	C1796.929565,2102.456787 1796.919678,2089.486328 1796.798584,2076.518311 
	C1796.708984,2066.925293 1789.644531,2060.064941 1779.881592,2060.018555 
	C1763.587646,2059.940674 1747.293091,2059.969971 1730.999023,2060.020996 
	C1727.791992,2060.031006 1724.586182,2060.343994 1721.231567,2060.525391 
	C1721.231567,2067.444580 1721.231567,2073.562744 1721.231567,2080.330078 
	C1736.176514,2080.330078 1750.447266,2080.330078 1766.654053,2080.330322 
M609.524780,2101.622070 
	C609.527954,2093.290527 609.629395,2084.957520 609.508301,2076.627930 
	C609.371033,2067.187988 602.095337,2060.065430 592.490234,2060.020996 
	C574.827820,2059.938965 557.164551,2059.979248 539.501831,2060.029297 
	C537.649658,2060.034668 535.798706,2060.450684 534.001465,2060.669678 
	C534.001465,2067.541260 534.001465,2073.664551 534.001465,2080.329834 
	C543.684998,2080.329834 552.658020,2080.309082 561.630920,2080.335693 
	C570.459961,2080.362061 579.288940,2080.436768 587.858276,2080.488770 
	C587.858276,2086.397705 587.858276,2090.830322 587.858276,2095.305176 
	C578.782104,2095.305176 570.573608,2095.305176 562.346741,2095.305176 
	C561.748230,2091.955566 561.241211,2089.117920 560.730225,2086.258301 
	C554.027344,2086.258301 547.851990,2086.258301 541.527283,2086.258301 
	C541.527283,2101.625244 541.527283,2116.400879 541.527283,2131.004883 
	C548.489014,2131.004883 554.657715,2131.004883 561.024658,2131.004883 
	C561.457031,2125.833984 561.832825,2121.339111 562.266907,2116.147217 
	C571.824402,2116.147217 580.811523,2115.602783 589.703491,2116.289795 
	C600.025879,2117.087646 605.712952,2111.944580 609.524780,2101.622070 
M833.568481,2124.422852 
	C833.568481,2118.544434 833.568481,2112.666016 833.568481,2106.469238 
	C840.314575,2106.469238 845.825989,2106.469238 851.317810,2106.469238 
	C855.476929,2115.144043 859.455139,2123.441650 863.143921,2131.135254 
	C870.748108,2131.135254 877.229736,2131.135254 884.595093,2131.135254 
	C883.552307,2128.246094 882.935242,2126.087158 882.014771,2124.066650 
	C878.571411,2116.507080 875.219910,2108.894775 871.445740,2101.500732 
	C869.437561,2097.566406 869.342896,2094.201660 871.353638,2090.228271 
	C875.252441,2082.523682 878.765808,2074.620117 882.291870,2066.733398 
	C883.134521,2064.848877 883.399414,2062.705566 884.014771,2060.357910 
	C876.512634,2060.357910 869.919617,2060.357910 863.077271,2060.357910 
	C858.944763,2068.817627 854.901306,2077.094971 850.946045,2085.191895 
	C845.060913,2085.191895 839.864563,2085.191895 833.569336,2085.191895 
	C833.569336,2080.834229 833.596436,2076.937500 833.562012,2073.041016 
	C833.525085,2068.859863 833.430420,2064.678955 833.359558,2060.417725 
	C823.451172,2060.417725 814.891357,2060.417725 805.809021,2060.417725 
	C805.809021,2067.033203 805.809021,2073.231934 805.809021,2079.334229 
	C808.204773,2080.142578 810.300903,2080.849854 813.030396,2081.770752 
	C813.030396,2098.250488 813.030396,2114.455566 813.030396,2131.658203 
	C819.023193,2131.658203 824.248901,2131.656006 829.474670,2131.659180 
	C833.232910,2131.661377 833.606506,2129.114258 833.568481,2124.422852 
M1607.699463,2131.705566 
	C1627.257690,2131.705566 1646.815918,2131.705566 1666.930542,2131.705566 
	C1666.930542,2124.542725 1666.930542,2118.401123 1666.930542,2110.911621 
	C1651.851807,2110.911621 1637.100098,2110.911621 1621.443237,2110.911621 
	C1621.443237,2093.413574 1621.443237,2077.240479 1621.443237,2060.543945 
	C1611.719360,2060.543945 1602.943359,2060.543945 1593.724365,2060.543945 
	C1593.724365,2066.954346 1593.724365,2072.869385 1593.724365,2079.081055 
	C1595.956787,2079.973633 1598.231812,2080.883301 1600.744751,2081.887939 
	C1600.744751,2084.979248 1600.744385,2087.628174 1600.744751,2090.277100 
	C1600.746338,2101.932129 1600.778809,2113.587646 1600.731079,2125.242432 
	C1600.716309,2128.850830 1600.936279,2132.099365 1607.699463,2131.705566 
M2228.744873,2108.950195 
	C2228.744873,2116.194336 2228.744873,2123.438477 2228.744873,2130.454590 
	C2240.693604,2132.503174 2287.998779,2132.104004 2295.111572,2130.042236 
	C2295.111572,2124.185547 2295.111572,2118.276611 2295.111572,2111.056885 
	C2280.009033,2111.056885 2265.241211,2111.056885 2249.259277,2111.056885 
	C2249.259277,2093.346680 2249.259277,2076.909912 2249.259277,2060.410156 
	C2239.419922,2060.410156 2230.853271,2060.410156 2221.786133,2060.410156 
	C2221.786133,2067.018555 2221.786133,2073.217285 2221.786133,2079.305420 
	C2224.212646,2080.136475 2226.305420,2080.853271 2228.745361,2081.689209 
	C2228.745361,2090.366699 2228.745361,2098.672852 2228.744873,2108.950195 
M2353.085938,2064.030518 
	C2353.085938,2086.269043 2353.085938,2108.507568 2353.085938,2130.839355 
	C2360.524414,2130.839355 2366.892578,2130.839355 2372.969238,2130.839355 
	C2372.969238,2106.818604 2372.969238,2083.670410 2372.969238,2059.232666 
	C2366.000488,2061.952637 2359.200684,2056.985107 2353.085938,2064.030518 
z"/>
<path fill="#FEFEFE" opacity="1.000000" stroke="none" 
	d="
M520.057251,1495.779541 
	C546.982849,1495.873291 573.908447,1495.985352 600.834106,1496.055176 
	C624.439392,1496.116211 648.044861,1496.130127 671.650208,1496.163452 
	C674.587219,1496.167603 677.524231,1496.164062 681.379272,1496.164062 
	C681.703125,1523.612671 682.019104,1550.395264 684.045166,1577.714355 
	C693.029602,1578.093506 700.303955,1577.936157 707.578247,1577.778809 
	C761.164673,1577.799805 814.751160,1577.820923 870.155884,1577.975586 
	C881.806946,1578.109253 891.639709,1578.109253 901.027222,1578.109253 
	C901.715027,1576.661621 902.216919,1576.098755 902.215759,1575.536987 
	C902.156616,1546.459717 902.054810,1517.382568 902.137451,1487.364746 
	C902.321472,1476.248291 902.715637,1466.052246 902.056274,1455.483887 
	C897.083679,1455.483887 893.436584,1455.484009 889.789490,1455.484009 
	C756.527161,1455.484009 623.264771,1455.480225 490.002441,1455.505005 
	C486.689484,1455.505615 483.376556,1455.818481 480.063629,1455.985596 
	C472.369934,1455.817261 464.676208,1455.648926 456.556396,1453.968750 
	C456.157623,1404.408081 456.171661,1356.359375 456.230133,1308.310547 
	C456.236969,1302.687866 456.488739,1297.065552 456.626953,1291.442993 
	C461.291779,1291.518188 465.956604,1291.659058 470.621429,1291.659424 
	C638.281494,1291.670654 805.941589,1291.728149 973.601379,1291.486084 
	C981.630676,1291.474609 987.101990,1293.830566 992.642395,1299.511353 
	C1014.748718,1322.177734 1037.237915,1344.476196 1059.872437,1366.617310 
	C1064.520630,1371.164185 1067.264526,1375.755127 1066.098022,1383.989746 
	C1065.930908,1458.983643 1065.923096,1532.245361 1065.879517,1605.507080 
	C1065.868530,1623.819580 1065.742065,1642.132202 1065.092773,1660.705566 
	C1039.818359,1685.644165 1015.004639,1710.208740 990.520447,1735.097412 
	C985.748291,1739.948608 981.024170,1742.034668 974.088623,1742.016479 
	C880.978638,1741.772705 787.867798,1741.848755 694.757202,1741.870483 
	C691.111267,1741.871338 687.465271,1742.127075 683.004883,1742.562988 
	C682.113281,1783.209106 682.036133,1823.556274 681.025757,1863.974854 
	C670.477844,1864.135620 660.863525,1864.274536 651.248779,1864.305908 
	C614.772400,1864.424805 578.295837,1864.508911 541.819397,1864.606079 
	C534.459290,1864.491333 527.099243,1864.376587 518.831787,1863.154907 
	C517.927246,1836.448730 517.932312,1810.849365 517.932617,1785.250000 
	C517.933594,1692.493774 517.908203,1599.737671 518.022766,1506.981567 
	C518.027405,1503.246704 519.349182,1499.513550 520.057251,1495.779541 
z"/>
<path fill="#4C6896" opacity="1.000000" stroke="none" 
	d="
M2719.836670,1777.945923 
	C2719.810791,1788.272827 2719.490234,1798.610596 2719.873779,1808.922241 
	C2720.090576,1814.758057 2718.063721,1818.816895 2713.957764,1822.861084 
	C2690.698486,1845.769531 2667.598633,1868.842773 2644.687256,1892.099243 
	C2640.402344,1896.448853 2636.155518,1898.633667 2629.888672,1898.421875 
	C2616.245605,1897.960815 2602.576416,1898.279541 2588.917725,1898.279541 
	C2452.997559,1898.279541 2317.077148,1898.205078 2181.157471,1898.460083 
	C2172.755859,1898.475952 2166.722900,1896.276611 2161.158447,1889.997803 
	C2153.438965,1881.287109 2144.827881,1873.366211 2136.001953,1863.947266 
	C2122.336914,1849.592529 2109.528809,1836.123657 2096.072510,1823.337158 
	C2090.665771,1818.199585 2088.448486,1812.839233 2090.320801,1806.061523 
	C2107.935303,1823.321289 2125.041748,1840.146851 2141.817871,1857.295410 
	C2146.304443,1861.881714 2150.821045,1864.033813 2157.450195,1864.025391 
	C2307.076660,1863.835571 2456.703125,1863.844238 2606.329590,1864.005859 
	C2612.514160,1864.012573 2616.859863,1862.233276 2621.181641,1857.833252 
	C2643.365234,1835.249023 2665.656250,1812.760742 2688.367432,1790.710205 
	C2694.847412,1784.418579 2697.552490,1777.968262 2697.533203,1768.883545 
	C2697.271240,1644.917236 2697.352783,1520.950195 2697.378174,1396.983398 
	C2697.378906,1393.336426 2697.691650,1389.689331 2698.488525,1386.278076 
	C2705.397705,1393.052856 2711.677246,1399.591797 2717.967285,1407.058838 
	C2717.981689,1527.495972 2717.968994,1647.004761 2718.067871,1766.513550 
	C2718.071045,1770.324951 2719.221191,1774.135132 2719.836670,1777.945923 
z"/>
<path fill="#4D6997" opacity="1.000000" stroke="none" 
	d="
M541.894836,1865.499512 
	C578.295837,1864.508911 614.772400,1864.424805 651.248779,1864.305908 
	C660.863525,1864.274536 670.477844,1864.135620 681.657471,1863.431396 
	C683.447693,1860.520142 683.867920,1858.223511 683.868774,1855.926758 
	C683.883545,1818.039185 683.845520,1780.151733 683.819336,1742.264160 
	C687.465271,1742.127075 691.111267,1741.871338 694.757202,1741.870483 
	C787.867798,1741.848755 880.978638,1741.772705 974.088623,1742.016479 
	C981.024170,1742.034668 985.748291,1739.948608 990.520447,1735.097412 
	C1015.004639,1710.208740 1039.818359,1685.644165 1065.915771,1660.459106 
	C1071.827759,1656.742432 1069.782593,1651.992920 1069.789307,1647.972046 
	C1069.935547,1560.491699 1069.930664,1473.011108 1069.954712,1385.530640 
	C1076.206543,1391.479980 1082.612183,1397.280640 1088.610718,1403.475220 
	C1090.273071,1405.191772 1091.017944,1408.004761 1091.640259,1410.452881 
	C1092.117798,1412.331177 1091.744263,1414.426758 1091.744385,1416.425659 
	C1091.744873,1505.377808 1091.669067,1594.330322 1091.887329,1683.281860 
	C1091.904907,1690.479980 1090.068604,1695.667847 1084.810181,1700.794434 
	C1061.911621,1723.119019 1039.303833,1745.749390 1016.955750,1768.625610 
	C1011.879700,1773.821533 1006.816650,1775.915649 999.521240,1775.896729 
	C906.238708,1775.654175 812.955261,1775.736694 719.672058,1775.736694 
	C715.708313,1775.736694 711.744568,1775.736694 706.325317,1775.736694 
	C706.197815,1816.543579 706.336609,1856.672241 706.242432,1897.525879 
	C651.452087,1897.525879 597.412292,1897.525879 541.970276,1897.525879 
	C541.970276,1886.862549 541.970276,1876.627686 541.894836,1865.499512 
z"/>
<path fill="#CE2C31" opacity="1.000000" stroke="none" 
	d="
M2089.688965,1805.748657 
	C2088.448486,1812.839233 2090.665771,1818.199585 2096.072510,1823.337158 
	C2109.528809,1836.123657 2122.336914,1849.592529 2135.583008,1863.424683 
	C2113.445801,1864.844604 2113.443115,1864.847290 2097.780029,1849.181396 
	C2077.065430,1828.463013 2056.442627,1807.651367 2035.565430,1787.098389 
	C2031.680054,1783.273438 2030.168091,1779.362793 2030.173340,1773.952271 
	C2030.298950,1642.779053 2030.304688,1511.605591 2030.160400,1380.432373 
	C2030.154053,1374.630249 2031.887573,1370.512329 2035.992920,1366.462646 
	C2059.694092,1343.083252 2083.248779,1319.552368 2106.609863,1295.833496 
	C2110.711670,1291.668701 2114.927979,1289.920044 2120.657959,1290.181030 
	C2127.626953,1290.498413 2134.628662,1290.103149 2143.498779,1290.154175 
	C2146.024658,1290.479614 2146.668213,1290.666870 2146.951660,1291.461426 
	C2122.124023,1316.600220 2097.769531,1341.246460 2073.092773,1365.565796 
	C2068.213867,1370.374146 2066.176514,1375.241577 2066.195068,1382.129761 
	C2066.412109,1462.755615 2066.333984,1543.382202 2066.333740,1624.008667 
	C2066.333740,1673.317383 2066.459473,1722.626953 2066.191406,1771.934204 
	C2066.153809,1778.834839 2068.039307,1783.873047 2073.125244,1788.494629 
	C2079.011963,1793.843750 2084.198486,1799.963501 2089.688965,1805.748657 
z"/>
<path fill="#4D6997" opacity="1.000000" stroke="none" 
	d="
M1731.588135,1865.484863 
	C1735.121094,1864.649780 1738.772583,1864.336792 1742.424194,1864.334229 
	C1789.078735,1864.301147 1835.733398,1864.312744 1882.387939,1864.312744 
	C1885.963257,1864.312744 1889.538574,1864.312622 1893.973511,1864.312622 
	C1893.973511,1859.390991 1893.973511,1855.465332 1893.973511,1851.539673 
	C1893.973511,1680.917114 1893.972656,1510.294556 1893.978271,1339.671997 
	C1893.978394,1335.673950 1894.050659,1331.675781 1894.410156,1326.802246 
	C1894.731323,1325.926880 1895.427490,1325.360962 1895.664795,1326.497803 
	C1895.863525,1328.633301 1895.790771,1329.632202 1895.790771,1330.630981 
	C1895.781006,1505.260620 1895.773804,1679.890259 1895.794312,1854.519897 
	C1895.794556,1857.087891 1896.137939,1859.655884 1896.321045,1862.223877 
	C1896.902588,1862.224487 1897.484131,1862.225220 1898.065674,1862.225830 
	C1898.065674,1858.680908 1898.065796,1855.136108 1898.065796,1851.591187 
	C1898.065674,1680.294189 1898.068115,1508.997070 1898.050049,1337.700073 
	C1898.049561,1333.707642 1897.817261,1329.715332 1897.693115,1325.722900 
	C1904.750732,1322.818970 1911.862793,1324.468872 1919.609131,1324.845947 
	C1919.609131,1515.900879 1919.609131,1706.333618 1919.609131,1897.564819 
	C1916.546265,1897.809692 1913.672974,1898.237305 1910.799316,1898.239746 
	C1861.812012,1898.280884 1812.823975,1898.142456 1763.838257,1898.423096 
	C1757.391235,1898.459961 1753.366333,1896.478394 1749.862915,1891.204590 
	C1744.160889,1882.620850 1737.793335,1874.479370 1731.588135,1865.484863 
z"/>
<path fill="#4D6997" opacity="1.000000" stroke="none" 
	d="
M1267.892456,1865.500610 
	C1308.758423,1864.508911 1349.698975,1864.410278 1390.639526,1864.313599 
	C1393.635864,1864.306519 1396.673462,1863.995972 1399.619751,1864.379761 
	C1405.269287,1865.115601 1408.593506,1862.599365 1411.871582,1858.132812 
	C1455.185303,1799.113647 1498.687622,1740.232788 1542.152344,1681.324463 
	C1550.825562,1669.569580 1559.537964,1657.843872 1568.722778,1645.442749 
	C1577.242920,1656.978516 1585.283569,1667.864624 1592.982544,1679.769287 
	C1587.665283,1688.093872 1582.689575,1695.400146 1577.713867,1702.706543 
	C1556.501587,1731.228271 1535.225586,1759.703125 1514.093140,1788.284058 
	C1488.806274,1822.484009 1463.555664,1856.711792 1438.519531,1891.095093 
	C1434.867920,1896.110107 1431.174927,1898.479248 1424.638794,1898.437744 
	C1375.748657,1898.128540 1326.855713,1898.279297 1277.963623,1898.244507 
	C1275.063843,1898.242432 1272.164307,1897.880615 1267.967041,1897.598999 
	C1267.967041,1886.837036 1267.967041,1876.615479 1267.892456,1865.500610 
z"/>
<path fill="#4D6997" opacity="1.000000" stroke="none" 
	d="
M480.139648,1456.918701 
	C483.376556,1455.818481 486.689484,1455.505615 490.002441,1455.505005 
	C623.264771,1455.480225 756.527161,1455.484009 889.789490,1455.484009 
	C893.436584,1455.484009 897.083679,1455.483887 902.056274,1455.483887 
	C902.715637,1466.052246 902.321472,1476.248291 901.205383,1487.341553 
	C889.945984,1488.411987 879.798645,1488.564819 869.651245,1488.717773 
	C865.335754,1488.568481 861.020203,1488.289673 856.704712,1488.288818 
	C735.615356,1488.265503 614.526062,1488.270142 493.436707,1488.270142 
	C489.502777,1488.270142 485.568817,1488.270142 480.215637,1488.270142 
	C480.215637,1477.575073 480.215637,1467.713379 480.139648,1456.918701 
z"/>
<path fill="#CE2C31" opacity="1.000000" stroke="none" 
	d="
M1243.562866,1488.291138 
	C1243.712769,1491.610962 1243.993042,1494.930908 1243.993530,1498.250732 
	C1244.011597,1619.516479 1244.003540,1740.782104 1243.993408,1862.978027 
	C1233.104858,1863.908081 1222.221924,1863.908081 1210.256714,1863.908081 
	C1210.256714,1738.898193 1210.256714,1614.687378 1211.150879,1489.429932 
	C1222.550903,1488.352783 1233.056885,1488.322021 1243.562866,1488.291138 
z"/>
<path fill="#CE2D32" opacity="1.000000" stroke="none" 
	d="
M519.444092,1495.214600 
	C519.349182,1499.513550 518.027405,1503.246704 518.022766,1506.981567 
	C517.908203,1599.737671 517.933594,1692.493774 517.932617,1785.250000 
	C517.932312,1810.849365 517.927246,1836.448730 517.922546,1862.977539 
	C507.046387,1863.906860 496.172058,1863.906860 484.799042,1863.906860 
	C484.799042,1740.558472 484.799042,1618.076904 484.799042,1494.649536 
	C496.423889,1494.649536 507.627411,1494.649536 519.444092,1495.214600 
z"/>
<path fill="#FEFEFE" opacity="1.000000" stroke="none" 
	d="
M2147.311523,1290.854126 
	C2146.668213,1290.666870 2146.024658,1290.479614 2144.394531,1290.099854 
	C2157.145752,1273.668823 2157.145752,1273.668823 2177.625000,1273.668823 
	C2327.444092,1273.668823 2477.263428,1273.721802 2627.082275,1273.507935 
	C2634.338867,1273.497559 2639.362305,1275.527344 2644.422363,1280.704956 
	C2667.690186,1304.512817 2691.301514,1327.987793 2714.986328,1351.383057 
	C2718.814209,1355.164062 2720.615723,1358.937866 2720.456787,1364.396851 
	C2720.069336,1377.703491 2720.291992,1391.028076 2719.642334,1405.313721 
	C2718.662842,1406.231689 2718.309814,1406.181274 2717.957031,1406.130737 
	C2711.677246,1399.591797 2705.397705,1393.052856 2698.286133,1385.528076 
	C2698.308594,1375.165527 2693.915527,1368.662964 2687.281738,1362.266479 
	C2665.228271,1341.002563 2643.598145,1319.289795 2622.198486,1297.365479 
	C2617.129395,1292.172119 2612.105469,1290.147339 2604.844971,1290.157715 
	C2455.976318,1290.370239 2307.107666,1290.313599 2158.238770,1290.339966 
	C2154.596436,1290.340576 2150.953857,1290.675171 2147.311523,1290.854126 
z"/>
<path fill="#CF3237" opacity="1.000000" stroke="none" 
	d="
M1731.583740,1290.931641 
	C1731.962280,1295.303833 1731.320068,1299.230835 1731.317505,1303.158203 
	C1731.260498,1391.618652 1731.276245,1480.078979 1731.266113,1568.539429 
	C1731.265503,1572.861084 1731.154419,1577.182739 1730.280029,1582.082520 
	C1727.523193,1581.179932 1725.581299,1579.699219 1723.639404,1578.218384 
	C1723.639404,1578.218384 1723.888550,1578.099243 1723.890747,1577.520996 
	C1721.811523,1574.695557 1719.730103,1572.448242 1717.648682,1570.200928 
	C1717.648682,1570.200928 1717.894897,1570.101440 1717.903564,1569.515869 
	C1715.830933,1566.685303 1713.749756,1564.440308 1711.668701,1562.195312 
	C1711.668701,1562.195190 1711.921753,1562.083862 1711.928467,1561.498779 
	C1709.850830,1558.673096 1707.766479,1556.432373 1705.682251,1554.191528 
	C1705.682251,1554.191528 1705.924683,1554.145508 1705.941772,1553.569458 
	C1704.632080,1552.101440 1703.305298,1551.209473 1701.978638,1550.317383 
	C1700.699829,1548.981934 1699.421021,1547.646484 1698.102539,1545.754517 
	C1697.952759,1528.573120 1697.757202,1511.947998 1697.747559,1495.322998 
	C1697.710449,1431.121216 1697.732666,1366.919434 1697.732666,1302.717651 
	C1697.732666,1299.084351 1697.732666,1295.451050 1697.732666,1290.486450 
	C1709.171509,1290.486450 1720.016113,1290.486450 1731.583740,1290.931641 
z"/>
<path fill="#CE2D32" opacity="1.000000" stroke="none" 
	d="
M1578.188721,1703.308105 
	C1582.689575,1695.400146 1587.665283,1688.093872 1593.168701,1680.407715 
	C1610.057617,1701.840210 1626.499023,1723.592773 1642.762451,1745.477783 
	C1671.737549,1784.468872 1700.605225,1823.539917 1729.653564,1863.227051 
	C1721.808716,1864.010010 1713.800415,1863.783813 1705.856689,1864.394531 
	C1699.840576,1864.857056 1696.082031,1862.602661 1692.626099,1857.843628 
	C1676.604004,1835.781006 1660.320557,1813.907837 1644.081543,1792.003174 
	C1622.299194,1762.621094 1600.471558,1733.272705 1578.188721,1703.308105 
z"/>
<path fill="#CE2C31" opacity="1.000000" stroke="none" 
	d="
M455.875732,1291.005127 
	C456.488739,1297.065552 456.236969,1302.687866 456.230133,1308.310547 
	C456.171661,1356.359375 456.157623,1404.408081 455.925507,1453.402100 
	C445.121124,1454.347168 434.521545,1454.347168 424.134033,1454.347168 
	C421.818176,1446.666748 420.912872,1313.328979 422.940033,1290.818604 
	C433.519958,1289.751343 444.326965,1290.266846 455.875732,1291.005127 
z"/>
<path fill="#CE2C31" opacity="1.000000" stroke="none" 
	d="
M1181.906006,1291.023682 
	C1182.536621,1308.779785 1182.349121,1326.087158 1182.318481,1343.394897 
	C1182.254517,1379.690308 1182.273071,1415.985596 1182.138306,1453.226440 
	C1171.141479,1454.171875 1160.264282,1454.171875 1148.844727,1454.171875 
	C1148.844727,1399.451172 1148.844727,1345.728271 1148.844727,1290.818237 
	C1159.526367,1289.765625 1170.346313,1290.253662 1181.906006,1291.023682 
z"/>
<path fill="#4D6997" opacity="1.000000" stroke="none" 
	d="
M1432.575439,1555.622192 
	C1425.504028,1565.563232 1418.432617,1575.504272 1410.604980,1584.820557 
	C1409.865601,1501.830566 1409.873657,1419.465332 1409.924316,1337.100220 
	C1409.926880,1332.797241 1410.290894,1328.494385 1410.486572,1324.191528 
	C1417.379028,1324.191528 1424.271362,1324.191528 1432.399780,1324.191528 
	C1432.399780,1385.823975 1432.399780,1446.244385 1432.384399,1508.495850 
	C1432.437744,1525.425415 1432.506470,1540.523804 1432.575439,1555.622192 
z"/>
<path fill="#CE2D32" opacity="1.000000" stroke="none" 
	d="
M1433.087158,1555.292480 
	C1432.506470,1540.523804 1432.437744,1525.425415 1432.502686,1509.463623 
	C1444.421387,1493.029541 1456.320190,1477.543335 1467.966675,1461.869629 
	C1488.707764,1433.956787 1509.289551,1405.925537 1529.961426,1377.961182 
	C1531.518555,1375.854980 1533.263672,1373.887939 1535.535645,1371.103149 
	C1542.643311,1376.707520 1546.229248,1384.711670 1552.138550,1391.598877 
	C1551.455078,1394.241577 1550.675781,1396.467651 1549.337769,1398.281494 
	C1510.792480,1450.533936 1472.191162,1502.745117 1433.087158,1555.292480 
z"/>
<path fill="#CE2C31" opacity="1.000000" stroke="none" 
	d="
M869.670471,1489.596191 
	C879.798645,1488.564819 889.945984,1488.411987 901.025513,1488.282227 
	C902.054810,1517.382568 902.156616,1546.459717 902.215759,1575.536987 
	C902.216919,1576.098755 901.715027,1576.661621 901.027222,1578.109253 
	C891.639709,1578.109253 881.806946,1578.109253 871.100586,1577.854492 
	C870.055054,1556.813354 869.866333,1536.027100 869.719788,1515.240479 
	C869.661560,1506.985474 869.696899,1498.729858 869.670471,1489.596191 
z"/>
<path fill="#4D6997" opacity="1.000000" stroke="none" 
	d="
M1243.739014,1487.347656 
	C1233.056885,1488.322021 1222.550903,1488.352783 1211.144531,1488.536133 
	C1206.388428,1488.046021 1206.217773,1485.234253 1206.238647,1482.144531 
	C1206.293213,1474.048950 1206.233521,1465.952515 1206.147705,1456.925537 
	C1218.231812,1455.994751 1230.387451,1455.994751 1243.915161,1455.994751 
	C1243.915161,1466.198975 1243.915161,1476.301514 1243.739014,1487.347656 
z"/>
<path fill="#353F4F" opacity="1.000000" stroke="none" 
	d="
M1069.678223,1385.091797 
	C1069.930664,1473.011108 1069.935547,1560.491699 1069.789307,1647.972046 
	C1069.782593,1651.992920 1071.827759,1656.742432 1066.491699,1660.198242 
	C1065.742065,1642.132202 1065.868530,1623.819580 1065.879517,1605.507080 
	C1065.923096,1532.245361 1065.930908,1458.983643 1066.197266,1384.807983 
	C1067.429077,1384.146973 1068.415527,1384.399902 1069.678223,1385.091797 
z"/>
<path fill="#353F4F" opacity="1.000000" stroke="none" 
	d="
M1897.330933,1325.720459 
	C1897.817261,1329.715332 1898.049561,1333.707642 1898.050049,1337.700073 
	C1898.068115,1508.997070 1898.065674,1680.294189 1898.065796,1851.591187 
	C1898.065796,1855.136108 1898.065674,1858.680908 1898.065674,1862.225830 
	C1897.484131,1862.225220 1896.902588,1862.224487 1896.321045,1862.223877 
	C1896.137939,1859.655884 1895.794556,1857.087891 1895.794312,1854.519897 
	C1895.773804,1679.890259 1895.781006,1505.260620 1895.790771,1330.630981 
	C1895.790771,1329.632202 1895.863525,1328.633301 1896.073242,1326.683350 
	C1896.244263,1325.732178 1896.968750,1325.718018 1897.330933,1325.720459 
z"/>
<path fill="#4C6896" opacity="1.000000" stroke="none" 
	d="
M707.266418,1577.037476 
	C700.303955,1577.936157 693.029602,1578.093506 684.875244,1577.983154 
	C683.995239,1562.160522 683.995239,1546.605713 683.995239,1530.393921 
	C691.583862,1530.393921 698.337952,1530.393921 705.827209,1530.393921 
	C706.209290,1545.951294 706.581970,1561.123657 707.266418,1577.037476 
z"/>
<path fill="#4D6997" opacity="1.000000" stroke="none" 
	d="
M2717.967285,1407.058838 
	C2718.309814,1406.181274 2718.662842,1406.231689 2719.549561,1406.262451 
	C2720.351074,1409.194458 2720.851318,1412.146118 2720.852295,1415.097900 
	C2720.891602,1533.142700 2720.887695,1651.187500 2720.871826,1769.232300 
	C2720.871582,1771.553467 2720.667969,1773.874756 2720.197754,1777.070923 
	C2719.221191,1774.135132 2718.071045,1770.324951 2718.067871,1766.513550 
	C2717.968994,1647.004761 2717.981689,1527.495972 2717.967285,1407.058838 
z"/>
<path fill="#030303" opacity="1.000000" stroke="none" 
	d="
M1409.937256,1324.125488 
	C1410.290894,1328.494385 1409.926880,1332.797241 1409.924316,1337.100220 
	C1409.873657,1419.465332 1409.865601,1501.830566 1410.010132,1585.119751 
	C1409.507690,1586.186035 1408.843750,1586.328247 1408.179810,1586.470459 
	C1408.072632,1583.827637 1407.871948,1581.184937 1407.871826,1578.542114 
	C1407.866699,1494.306641 1407.880859,1410.071289 1408.087646,1324.916260 
	C1408.651489,1324.017578 1409.019653,1324.038574 1409.937256,1324.125488 
z"/>
<path fill="#353F4F" opacity="1.000000" stroke="none" 
	d="
M1723.342773,1578.914551 
	C1725.581299,1579.699219 1727.523193,1581.179932 1729.989502,1583.073853 
	C1730.751953,1584.892700 1730.989990,1586.298340 1731.228149,1587.703979 
	C1730.662598,1587.989868 1730.097046,1588.275757 1729.531372,1588.561523 
	C1727.369751,1585.577881 1725.208008,1582.594238 1723.342773,1578.914551 
z"/>
<path fill="#353F4F" opacity="1.000000" stroke="none" 
	d="
M1705.454834,1554.881592 
	C1707.766479,1556.432373 1709.850830,1558.673096 1711.833496,1561.599365 
	C1709.563721,1560.047119 1707.395630,1557.809326 1705.454834,1554.881592 
z"/>
<path fill="#353F4F" opacity="1.000000" stroke="none" 
	d="
M1711.417725,1562.884521 
	C1713.749756,1564.440308 1715.830933,1566.685303 1717.816406,1569.616211 
	C1715.536011,1568.059204 1713.351318,1565.816406 1711.417725,1562.884521 
z"/>
<path fill="#353F4F" opacity="1.000000" stroke="none" 
	d="
M1717.363892,1570.886719 
	C1719.730103,1572.448242 1721.811523,1574.695557 1723.804199,1577.628540 
	C1721.503296,1576.067017 1719.291260,1573.819702 1717.363892,1570.886719 
z"/>
<path fill="#353F4F" opacity="1.000000" stroke="none" 
	d="
M1702.042480,1550.949707 
	C1703.305298,1551.209473 1704.632080,1552.101440 1705.847534,1553.649170 
	C1704.526245,1553.397217 1703.316284,1552.489624 1702.042480,1550.949707 
z"/>
<path fill="#FEF9F9" opacity="1.000000" stroke="none" 
	d="
M2617.818359,2059.997314 
	C2621.451172,2059.997314 2624.114014,2059.984375 2626.777100,2059.999512 
	C2638.919678,2060.069092 2645.317871,2066.617188 2645.376953,2079.034180 
	C2645.389893,2081.697266 2645.389893,2084.360107 2645.376953,2087.023193 
	C2645.317383,2099.402344 2638.894287,2105.965088 2626.737549,2106.004883 
	C2616.450439,2106.038818 2606.163574,2106.011963 2595.141113,2106.011963 
	C2595.141113,2099.296387 2595.141113,2093.191162 2595.141113,2086.411621 
	C2604.632812,2084.067383 2614.997070,2087.568604 2625.818604,2083.972656 
	C2619.110107,2079.771484 2606.631104,2079.115479 2590.314941,2081.302734 
	C2590.314941,2090.678467 2590.314941,2100.145996 2590.314941,2110.648926 
	C2607.296387,2110.648926 2624.092773,2110.648926 2641.661377,2110.648926 
	C2641.661377,2118.005371 2641.661377,2124.357178 2641.661377,2131.706543 
	C2636.769043,2131.706543 2632.183594,2131.706787 2627.598389,2131.706543 
	C2613.284912,2131.706055 2598.970459,2131.817383 2584.658691,2131.659912 
	C2576.972168,2131.575684 2569.263916,2124.240723 2569.127441,2116.634033 
	C2568.876709,2102.657959 2568.871582,2088.671143 2569.121094,2074.695068 
	C2569.253174,2067.304443 2577.194092,2060.124756 2584.893555,2060.031006 
	C2595.543701,2059.901123 2606.196777,2059.997803 2617.818359,2059.997314 
z"/>
<path fill="#FEF9F9" opacity="1.000000" stroke="none" 
	d="
M949.966797,2125.631836 
	C946.518188,2122.827637 945.613159,2119.920654 945.651855,2116.306641 
	C945.798279,2102.647949 945.599670,2088.985596 945.758484,2075.326904 
	C945.848999,2067.541260 953.120117,2060.135010 960.823120,2060.048584 
	C975.814209,2059.880615 990.809387,2059.906250 1005.801270,2060.036621 
	C1013.940979,2060.107178 1021.511536,2067.617920 1021.790161,2075.619629 
	C1021.917664,2079.280273 1021.825439,2082.948730 1021.814880,2086.613770 
	C1021.776978,2099.742188 1015.603149,2105.988281 1002.585510,2106.004883 
	C993.257141,2106.016602 983.928528,2105.970215 974.600281,2105.916016 
	C973.955872,2105.912354 973.312988,2105.627441 971.866943,2105.281250 
	C971.866943,2099.372559 971.866943,2093.260498 971.866943,2086.255127 
	C981.265198,2084.544678 991.483093,2086.976074 1003.189758,2084.287598 
	C995.325134,2079.794678 982.123779,2079.145996 966.644958,2081.334961 
	C966.644958,2090.706299 966.644958,2100.172363 966.644958,2110.920410 
	C984.025757,2110.920410 1001.140930,2110.920410 1018.750610,2110.920410 
	C1018.750610,2118.336914 1018.750610,2124.476318 1018.750610,2131.706543 
	C1009.670593,2131.706543 1001.105042,2131.706543 992.539490,2131.706543 
	C982.877319,2131.706543 973.201294,2131.394775 963.558411,2131.826660 
	C958.035095,2132.073730 953.822266,2130.547852 949.966797,2125.631836 
z"/>
<path fill="#FEF9F9" opacity="1.000000" stroke="none" 
	d="
M1199.929321,2068.364746 
	C1199.929688,2077.519287 1199.929688,2085.726074 1199.929688,2093.932617 
	C1200.467773,2094.164307 1201.005859,2094.395752 1201.543945,2094.627197 
	C1207.408081,2086.871582 1213.272339,2079.115723 1219.938721,2070.299072 
	C1226.489868,2078.928467 1232.394287,2086.705566 1238.298584,2094.482910 
	C1238.841431,2094.369385 1239.384155,2094.255859 1239.926880,2094.142334 
	C1239.926880,2083.118896 1239.926880,2072.095459 1239.926880,2060.562012 
	C1246.902100,2060.562012 1252.771484,2060.562012 1258.723389,2060.562012 
	C1260.806030,2066.987061 1261.466797,2116.246094 1259.434082,2131.704590 
	C1255.087158,2131.704590 1250.522705,2131.451416 1246.000366,2131.779053 
	C1241.856934,2132.079590 1239.167969,2130.523926 1236.825562,2127.199219 
	C1231.689087,2119.908203 1226.257690,2112.825195 1220.113647,2104.533203 
	C1214.965698,2111.341064 1209.848511,2116.976562 1206.075928,2123.401611 
	C1201.942871,2130.440430 1196.422974,2132.730713 1188.773804,2131.757812 
	C1186.213257,2131.432129 1183.576172,2131.706299 1179.845581,2131.706299 
	C1179.845581,2114.562012 1179.845581,2098.108398 1179.845581,2081.580811 
	C1176.709106,2080.697021 1174.593262,2080.100586 1172.184692,2079.421631 
	C1172.184692,2073.322266 1172.184692,2067.402100 1172.184692,2060.738770 
	C1181.083862,2060.738770 1189.855835,2060.738770 1199.253296,2060.738770 
	C1199.479858,2062.977295 1199.704346,2065.197266 1199.929321,2068.364746 
z"/>
<path fill="#FEF9F9" opacity="1.000000" stroke="none" 
	d="
M1340.825073,2131.706543 
	C1329.350342,2131.060059 1322.489014,2124.427734 1322.413208,2114.518066 
	C1322.316406,2101.859619 1322.301392,2089.198975 1322.420776,2076.540771 
	C1322.504395,2067.674072 1329.834106,2060.108887 1338.506836,2060.035400 
	C1354.163208,2059.902832 1369.822388,2059.903076 1385.478760,2060.037109 
	C1393.641113,2060.107178 1401.270264,2067.594238 1401.379639,2075.713135 
	C1401.559082,2089.036133 1401.557739,2102.365234 1401.384399,2115.688477 
	C1401.272583,2124.272461 1393.536377,2131.612061 1384.699097,2131.677246 
	C1370.375000,2131.783447 1356.049316,2131.706299 1340.825073,2131.706543 
M1380.613403,2091.159668 
	C1380.613403,2087.912842 1380.613403,2084.666016 1380.613403,2080.862305 
	C1367.811157,2080.862305 1356.006958,2080.862305 1343.657227,2080.862305 
	C1343.657227,2090.916016 1343.657227,2100.656494 1343.657227,2110.566895 
	C1356.204590,2110.566895 1367.999512,2110.566895 1380.613892,2110.566895 
	C1380.613892,2104.300537 1380.613892,2098.689209 1380.613403,2091.159668 
z"/>
<path fill="#FEF9F9" opacity="1.000000" stroke="none" 
	d="
M2486.430664,2070.344482 
	C2486.613037,2066.503906 2486.794922,2063.604492 2486.997070,2060.385254 
	C2493.654297,2060.385254 2499.571045,2060.385254 2505.447998,2060.385254 
	C2507.641602,2067.271729 2508.156494,2118.905762 2506.004150,2131.706299 
	C2501.998779,2131.706299 2497.748047,2131.437256 2493.546387,2131.776855 
	C2488.733154,2132.166260 2485.503418,2130.537354 2482.746094,2126.463379 
	C2477.711426,2119.025146 2472.166748,2111.929443 2466.775391,2104.735840 
	C2465.052979,2102.437744 2463.142578,2100.280273 2459.608398,2098.401855 
	C2459.608398,2109.087646 2459.608398,2119.773193 2459.608398,2131.062500 
	C2452.227051,2131.062500 2446.073975,2131.062500 2438.808594,2131.062500 
	C2438.808594,2114.617676 2438.808594,2098.130859 2438.808594,2081.590332 
	C2435.734863,2080.643799 2433.645508,2080.000244 2431.308105,2079.280518 
	C2431.308105,2073.148193 2431.308105,2067.251953 2431.308105,2060.046143 
	C2439.862793,2060.046143 2448.064941,2059.751953 2456.219482,2060.246094 
	C2458.350586,2060.374756 2460.810791,2062.579346 2462.299316,2064.475342 
	C2468.054443,2071.805664 2473.457031,2079.411621 2479.037354,2086.880371 
	C2480.774902,2089.206299 2482.658936,2091.422607 2486.164551,2095.795410 
	C2486.270020,2086.084473 2486.350342,2078.685059 2486.430664,2070.344482 
z"/>
<path fill="#FEF9F9" opacity="1.000000" stroke="none" 
	d="
M1972.597778,2131.706543 
	C1964.827637,2132.756104 1959.147461,2130.654297 1955.341797,2124.849609 
	C1953.645142,2122.261963 1951.949341,2119.081055 1951.870483,2116.126221 
	C1951.506958,2102.505371 1951.595581,2088.867920 1951.760498,2075.239258 
	C1951.853760,2067.535156 1959.195312,2060.124023 1966.858643,2060.047607 
	C1982.814941,2059.888428 1998.775024,2059.891357 2014.731323,2060.045654 
	C2022.869385,2060.124268 2030.057007,2067.636230 2030.135498,2075.995361 
	C2030.260254,2089.292480 2030.281006,2102.592773 2030.130493,2115.889160 
	C2030.038208,2124.035156 2022.538208,2131.567627 2014.412964,2131.659912 
	C2000.783936,2131.815186 1987.152100,2131.705078 1972.597778,2131.706543 
M1977.609131,2080.306396 
	C1974.099854,2080.051270 1971.922241,2081.090576 1971.990723,2085.192871 
	C1972.128662,2093.443604 1972.031738,2101.698486 1972.031738,2110.588379 
	C1984.835815,2110.588379 1996.913086,2110.588379 2009.763550,2110.588379 
	C2009.759277,2100.274658 2010.297119,2090.545898 2009.344482,2080.300293 
	C1998.690308,2080.300293 1989.095947,2080.300293 1977.609131,2080.306396 
z"/>
<path fill="#FEF9F9" opacity="1.000000" stroke="none" 
	d="
M711.968506,2059.997314 
	C718.609192,2059.997803 724.258789,2059.967529 729.907898,2060.004639 
	C741.467102,2060.080566 747.966125,2066.669189 748.004272,2078.403809 
	C748.044250,2090.699463 748.103210,2102.996338 747.982300,2115.290771 
	C747.896240,2124.045898 740.496521,2131.594727 731.831848,2131.667725 
	C716.214111,2131.799316 700.593506,2131.809082 684.976074,2131.660645 
	C677.276306,2131.587402 669.689819,2124.258545 669.580505,2116.674561 
	C669.379333,2102.720215 669.376221,2088.758789 669.585327,2074.804688 
	C669.701111,2067.083740 677.105652,2060.163086 685.057129,2060.030762 
	C693.694946,2059.886963 702.336975,2059.997803 711.968506,2059.997314 
M723.933044,2111.170898 
	C725.124817,2110.253906 727.324585,2109.365479 727.351746,2108.415039 
	C727.613037,2099.270996 727.508240,2090.116699 727.508240,2080.855469 
	C714.436157,2080.855469 702.630798,2080.855469 690.613098,2080.855469 
	C690.613098,2091.116211 690.613098,2100.811279 690.613098,2111.224365 
	C701.614868,2111.224365 711.867371,2111.224365 723.933044,2111.170898 
z"/>
<path fill="#FEF9F9" opacity="1.000000" stroke="none" 
	d="
M2141.574219,2129.279297 
	C2133.336182,2118.254639 2125.582764,2107.841797 2116.401611,2095.511719 
	C2115.067871,2108.309570 2116.330078,2119.329590 2115.442871,2130.934082 
	C2109.031982,2130.934082 2102.897461,2130.934082 2095.388672,2130.934082 
	C2094.729248,2114.779785 2095.493164,2098.256836 2094.965820,2081.660400 
	C2092.364258,2080.794189 2090.266602,2080.095703 2087.990234,2079.337891 
	C2087.990234,2073.153076 2087.990234,2067.246582 2087.990234,2060.052979 
	C2096.464355,2060.052979 2104.695068,2059.665771 2112.846680,2060.295166 
	C2115.213623,2060.478027 2117.812500,2063.214600 2119.518066,2065.395752 
	C2125.465332,2073.002441 2131.053711,2080.889160 2136.812500,2088.644287 
	C2138.111572,2090.393799 2139.547852,2092.041260 2142.808350,2093.285889 
	C2142.808350,2082.563477 2142.808350,2071.840820 2142.808350,2060.578613 
	C2150.185059,2060.578613 2156.329590,2060.578613 2163.109375,2060.578613 
	C2163.109375,2083.947754 2163.109375,2107.100098 2163.109375,2130.939941 
	C2156.010254,2131.554932 2148.987305,2133.426025 2141.574219,2129.279297 
z"/>
<path fill="#FEF9F9" opacity="1.000000" stroke="none" 
	d="
M1480.050903,2080.329834 
	C1472.757446,2080.329834 1466.454468,2080.329834 1459.351440,2080.329834 
	C1459.351440,2073.695801 1459.351440,2067.605469 1459.351440,2060.803467 
	C1461.390137,2060.547607 1463.581177,2060.041748 1465.774170,2060.033447 
	C1483.086304,2059.968018 1500.399170,2059.944336 1517.711182,2060.017578 
	C1528.029541,2060.061279 1534.687012,2066.895996 1534.822144,2077.378174 
	C1534.869385,2081.039795 1534.831055,2084.702637 1534.831055,2088.364746 
	C1534.831299,2104.462158 1534.831177,2104.462158 1525.656982,2116.563721 
	C1529.671631,2120.990234 1533.771729,2125.511230 1539.379272,2131.694092 
	C1531.151367,2131.694092 1524.986328,2131.907959 1518.850708,2131.576904 
	C1516.740479,2131.462891 1514.409912,2130.369629 1512.701782,2129.048828 
	C1510.090088,2127.029053 1507.625732,2124.653809 1505.640747,2122.020996 
	C1500.931885,2115.775391 1494.947388,2114.992676 1487.503540,2117.117920 
	C1487.100342,2121.632080 1486.696533,2126.154541 1486.248535,2131.170410 
	C1479.728027,2131.170410 1473.596191,2131.170410 1466.858154,2131.170410 
	C1466.858154,2116.304443 1466.858154,2101.807861 1466.858154,2086.491699 
	C1472.888794,2086.491699 1479.005127,2086.491699 1485.929932,2086.491699 
	C1486.505981,2089.050293 1487.193481,2092.103760 1487.947632,2095.453613 
	C1496.458862,2095.453613 1504.682495,2095.453613 1513.574463,2095.453613 
	C1513.574463,2090.627197 1513.574463,2086.132080 1513.574463,2080.329834 
	C1502.807373,2080.329834 1491.924316,2080.329834 1480.050903,2080.329834 
z"/>
<path fill="#FEF9F9" opacity="1.000000" stroke="none" 
	d="
M1765.686035,2080.330078 
	C1750.447266,2080.330078 1736.176514,2080.330078 1721.231567,2080.330078 
	C1721.231567,2073.562744 1721.231567,2067.444580 1721.231567,2060.525391 
	C1724.586182,2060.343994 1727.791992,2060.031006 1730.999023,2060.020996 
	C1747.293091,2059.969971 1763.587646,2059.940674 1779.881592,2060.018555 
	C1789.644531,2060.064941 1796.708984,2066.925293 1796.798584,2076.518311 
	C1796.919678,2089.486328 1796.929565,2102.456787 1796.790405,2115.424316 
	C1796.705078,2123.368164 1789.738525,2131.508057 1782.480347,2131.614258 
	C1764.903076,2131.871338 1747.319580,2131.697754 1729.001465,2131.697754 
	C1729.001465,2116.326172 1729.001465,2101.596436 1729.001465,2086.267578 
	C1735.305664,2086.267578 1741.464355,2086.267578 1748.826172,2086.267578 
	C1748.826172,2094.126709 1748.826172,2101.917480 1748.826172,2110.333496 
	C1758.170654,2110.333496 1766.351562,2110.333496 1776.002197,2110.333496 
	C1776.420654,2100.862305 1776.349365,2091.164551 1775.963135,2080.857910 
	C1772.457031,2080.659180 1769.555542,2080.494629 1765.686035,2080.330078 
z"/>
<path fill="#FEF9F9" opacity="1.000000" stroke="none" 
	d="
M609.506836,2102.475098 
	C605.712952,2111.944580 600.025879,2117.087646 589.703491,2116.289795 
	C580.811523,2115.602783 571.824402,2116.147217 562.266907,2116.147217 
	C561.832825,2121.339111 561.457031,2125.833984 561.024658,2131.004883 
	C554.657715,2131.004883 548.489014,2131.004883 541.527283,2131.004883 
	C541.527283,2116.400879 541.527283,2101.625244 541.527283,2086.258301 
	C547.851990,2086.258301 554.027344,2086.258301 560.730225,2086.258301 
	C561.241211,2089.117920 561.748230,2091.955566 562.346741,2095.305176 
	C570.573608,2095.305176 578.782104,2095.305176 587.858276,2095.305176 
	C587.858276,2090.830322 587.858276,2086.397705 587.858276,2080.488770 
	C579.288940,2080.436768 570.459961,2080.362061 561.630920,2080.335693 
	C552.658020,2080.309082 543.684998,2080.329834 534.001465,2080.329834 
	C534.001465,2073.664551 534.001465,2067.541260 534.001465,2060.669678 
	C535.798706,2060.450684 537.649658,2060.034668 539.501831,2060.029297 
	C557.164551,2059.979248 574.827820,2059.938965 592.490234,2060.020996 
	C602.095337,2060.065430 609.371033,2067.187988 609.508301,2076.627930 
	C609.629395,2084.957520 609.527954,2093.290527 609.506836,2102.475098 
z"/>
<path fill="#FEF9F9" opacity="1.000000" stroke="none" 
	d="
M833.565002,2125.335449 
	C833.606506,2129.114258 833.232910,2131.661377 829.474670,2131.659180 
	C824.248901,2131.656006 819.023193,2131.658203 813.030396,2131.658203 
	C813.030396,2114.455566 813.030396,2098.250488 813.030396,2081.770752 
	C810.300903,2080.849854 808.204773,2080.142578 805.809021,2079.334229 
	C805.809021,2073.231934 805.809021,2067.033203 805.809021,2060.417725 
	C814.891357,2060.417725 823.451172,2060.417725 833.359558,2060.417725 
	C833.430420,2064.678955 833.525085,2068.859863 833.562012,2073.041016 
	C833.596436,2076.937500 833.569336,2080.834229 833.569336,2085.191895 
	C839.864563,2085.191895 845.060913,2085.191895 850.946045,2085.191895 
	C854.901306,2077.094971 858.944763,2068.817627 863.077271,2060.357910 
	C869.919617,2060.357910 876.512634,2060.357910 884.014771,2060.357910 
	C883.399414,2062.705566 883.134521,2064.848877 882.291870,2066.733398 
	C878.765808,2074.620117 875.252441,2082.523682 871.353638,2090.228271 
	C869.342896,2094.201660 869.437561,2097.566406 871.445740,2101.500732 
	C875.219910,2108.894775 878.571411,2116.507080 882.014771,2124.066650 
	C882.935242,2126.087158 883.552307,2128.246094 884.595093,2131.135254 
	C877.229736,2131.135254 870.748108,2131.135254 863.143921,2131.135254 
	C859.455139,2123.441650 855.476929,2115.144043 851.317810,2106.469238 
	C845.825989,2106.469238 840.314575,2106.469238 833.568481,2106.469238 
	C833.568481,2112.666016 833.568481,2118.544434 833.565002,2125.335449 
z"/>
<path fill="#FEF9F9" opacity="1.000000" stroke="none" 
	d="
M1606.781738,2131.701660 
	C1600.936279,2132.099365 1600.716309,2128.850830 1600.731079,2125.242432 
	C1600.778809,2113.587646 1600.746338,2101.932129 1600.744751,2090.277100 
	C1600.744385,2087.628174 1600.744751,2084.979248 1600.744751,2081.887939 
	C1598.231812,2080.883301 1595.956787,2079.973633 1593.724365,2079.081055 
	C1593.724365,2072.869385 1593.724365,2066.954346 1593.724365,2060.543945 
	C1602.943359,2060.543945 1611.719360,2060.543945 1621.443237,2060.543945 
	C1621.443237,2077.240479 1621.443237,2093.413574 1621.443237,2110.911621 
	C1637.100098,2110.911621 1651.851807,2110.911621 1666.930542,2110.911621 
	C1666.930542,2118.401123 1666.930542,2124.542725 1666.930542,2131.705566 
	C1646.815918,2131.705566 1627.257690,2131.705566 1606.781738,2131.701660 
z"/>
<path fill="#FEF9F9" opacity="1.000000" stroke="none" 
	d="
M2228.745117,2107.964600 
	C2228.745361,2098.672852 2228.745361,2090.366699 2228.745361,2081.689209 
	C2226.305420,2080.853271 2224.212646,2080.136475 2221.786133,2079.305420 
	C2221.786133,2073.217285 2221.786133,2067.018555 2221.786133,2060.410156 
	C2230.853271,2060.410156 2239.419922,2060.410156 2249.259277,2060.410156 
	C2249.259277,2076.909912 2249.259277,2093.346680 2249.259277,2111.056885 
	C2265.241211,2111.056885 2280.009033,2111.056885 2295.111572,2111.056885 
	C2295.111572,2118.276611 2295.111572,2124.185547 2295.111572,2130.042236 
	C2287.998779,2132.104004 2240.693604,2132.503174 2228.744873,2130.454590 
	C2228.744873,2123.438477 2228.744873,2116.194336 2228.745117,2107.964600 
z"/>
<path fill="#FEF9F9" opacity="1.000000" stroke="none" 
	d="
M2353.206543,2063.142578 
	C2359.200684,2056.985107 2366.000488,2061.952637 2372.969238,2059.232666 
	C2372.969238,2083.670410 2372.969238,2106.818604 2372.969238,2130.839355 
	C2366.892578,2130.839355 2360.524414,2130.839355 2353.085938,2130.839355 
	C2353.085938,2108.507568 2353.085938,2086.269043 2353.206543,2063.142578 
z"/>
<path fill="#030303" opacity="1.000000" stroke="none" 
	d="
M683.004883,1742.562988 
	C683.845520,1780.151733 683.883545,1818.039185 683.868774,1855.926758 
	C683.867920,1858.223511 683.447693,1860.520142 682.590820,1863.360107 
	C682.036133,1823.556274 682.113281,1783.209106 683.004883,1742.562988 
z"/>
<path fill="#030303" opacity="1.000000" stroke="none" 
	d="
M2146.951660,1291.461426 
	C2150.953857,1290.675171 2154.596436,1290.340576 2158.238770,1290.339966 
	C2307.107666,1290.313599 2455.976318,1290.370239 2604.844971,1290.157715 
	C2612.105469,1290.147339 2617.129395,1292.172119 2622.198486,1297.365479 
	C2643.598145,1319.289795 2665.228271,1341.002563 2687.281738,1362.266479 
	C2693.915527,1368.662964 2698.308594,1375.165527 2697.656738,1385.292236 
	C2697.691650,1389.689331 2697.378906,1393.336426 2697.378174,1396.983398 
	C2697.352783,1520.950195 2697.271240,1644.917236 2697.533203,1768.883545 
	C2697.552490,1777.968262 2694.847412,1784.418579 2688.367432,1790.710205 
	C2665.656250,1812.760742 2643.365234,1835.249023 2621.181641,1857.833252 
	C2616.859863,1862.233276 2612.514160,1864.012573 2606.329590,1864.005859 
	C2456.703125,1863.844238 2307.076660,1863.835571 2157.450195,1864.025391 
	C2150.821045,1864.033813 2146.304443,1861.881714 2141.817871,1857.295410 
	C2125.041748,1840.146851 2107.935303,1823.321289 2090.320801,1806.061523 
	C2084.198486,1799.963501 2079.011963,1793.843750 2073.125244,1788.494629 
	C2068.039307,1783.873047 2066.153809,1778.834839 2066.191406,1771.934204 
	C2066.459473,1722.626953 2066.333740,1673.317383 2066.333740,1624.008667 
	C2066.333984,1543.382202 2066.412109,1462.755615 2066.195068,1382.129761 
	C2066.176514,1375.241577 2068.213867,1370.374146 2073.092773,1365.565796 
	C2097.769531,1341.246460 2122.124023,1316.600220 2146.951660,1291.461426 
M2662.357910,1542.168457 
	C2662.399414,1495.749756 2662.447266,1449.330933 2662.456299,1402.912231 
	C2662.456543,1401.277832 2662.069336,1399.643555 2661.869385,1396.615723 
	C2661.068848,1395.193481 2660.517090,1393.536621 2659.431152,1392.383545 
	C2638.647949,1370.319702 2617.715576,1348.395142 2597.053223,1326.219238 
	C2593.612061,1322.525879 2589.825928,1322.256958 2585.414062,1322.258423 
	C2452.486816,1322.302612 2319.559570,1322.325928 2186.632324,1322.191040 
	C2180.848877,1322.185181 2176.704102,1323.884155 2172.681152,1328.038086 
	C2154.372559,1346.943359 2135.984131,1365.782959 2117.156494,1384.166870 
	C2111.432617,1389.755615 2108.986084,1395.686401 2109.009277,1403.452026 
	C2109.143311,1448.093750 2109.059814,1492.736328 2109.117188,1537.378540 
	C2109.120361,1539.889282 2109.723633,1542.399292 2110.053955,1544.959229 
	C2173.574463,1544.959229 2236.333740,1544.959229 2300.216797,1544.959229 
	C2300.216797,1525.111084 2300.216797,1505.966064 2300.216797,1487.021606 
	C2315.170898,1485.090698 2462.605957,1485.703125 2470.720703,1487.872559 
	C2470.720703,1506.705444 2470.720703,1525.850952 2470.720703,1545.060425 
	C2473.097656,1545.357544 2474.391357,1545.660034 2475.684814,1545.660645 
	C2535.985107,1545.686890 2596.285400,1545.701294 2656.585693,1545.618164 
	C2658.339111,1545.615723 2660.091064,1544.549561 2662.357910,1542.168457 
M2423.000000,1828.315918 
	C2475.988770,1828.315918 2528.978271,1828.211670 2581.965820,1828.456055 
	C2588.146729,1828.484497 2592.426270,1826.724854 2596.745850,1822.323486 
	C2616.584717,1802.108276 2636.698975,1782.160156 2656.925293,1762.331055 
	C2660.780273,1758.551880 2662.391113,1754.711914 2662.353760,1749.282593 
	C2662.125000,1715.957642 2662.239258,1682.630371 2662.239014,1649.303955 
	C2662.239014,1647.061646 2662.238770,1644.819214 2662.238770,1642.254150 
	C2597.975342,1642.254150 2534.544678,1642.254150 2469.992188,1642.254150 
	C2469.992188,1651.218018 2469.992188,1659.645996 2469.992188,1667.659058 
	C2412.706299,1667.659058 2356.544678,1667.659058 2299.625488,1667.659058 
	C2299.625488,1658.856689 2299.625488,1650.660278 2299.625488,1642.301636 
	C2235.732910,1642.301636 2172.607178,1642.301636 2109.131104,1642.301636 
	C2109.131104,1679.214722 2109.209961,1715.520752 2109.034180,1751.825684 
	C2109.011475,1756.468628 2111.444092,1759.138550 2114.300293,1761.987793 
	C2134.119385,1781.757812 2154.117676,1801.355957 2173.558105,1821.492065 
	C2178.709717,1826.828125 2183.923340,1828.468628 2191.048096,1828.448853 
	C2267.698242,1828.235596 2344.349121,1828.315918 2423.000000,1828.315918 
M2406.999512,1523.073242 
	C2381.505859,1523.073242 2356.011963,1523.073242 2330.506836,1523.073242 
	C2330.506836,1559.916626 2330.506836,1595.393677 2330.506836,1631.151855 
	C2367.235107,1631.151855 2403.382080,1631.151855 2439.665283,1631.151855 
	C2439.665283,1594.882324 2439.665283,1559.119873 2439.665283,1523.073242 
	C2428.980713,1523.073242 2418.989502,1523.073242 2406.999512,1523.073242 
z"/>
<path fill="#CF3237" opacity="1.000000" stroke="none" 
	d="
M1380.613647,2092.118652 
	C1380.613892,2098.689209 1380.613892,2104.300537 1380.613892,2110.566895 
	C1367.999512,2110.566895 1356.204590,2110.566895 1343.657227,2110.566895 
	C1343.657227,2100.656494 1343.657227,2090.916016 1343.657227,2080.862305 
	C1356.006958,2080.862305 1367.811157,2080.862305 1380.613403,2080.862305 
	C1380.613403,2084.666016 1380.613403,2087.912842 1380.613647,2092.118652 
z"/>
<path fill="#CF3237" opacity="1.000000" stroke="none" 
	d="
M1978.555420,2080.303223 
	C1989.095947,2080.300293 1998.690308,2080.300293 2009.344482,2080.300293 
	C2010.297119,2090.545898 2009.759277,2100.274658 2009.763550,2110.588379 
	C1996.913086,2110.588379 1984.835815,2110.588379 1972.031738,2110.588379 
	C1972.031738,2101.698486 1972.128662,2093.443604 1971.990723,2085.192871 
	C1971.922241,2081.090576 1974.099854,2080.051270 1978.555420,2080.303223 
z"/>
<path fill="#CF3237" opacity="1.000000" stroke="none" 
	d="
M723.026489,2111.197754 
	C711.867371,2111.224365 701.614868,2111.224365 690.613098,2111.224365 
	C690.613098,2100.811279 690.613098,2091.116211 690.613098,2080.855469 
	C702.630798,2080.855469 714.436157,2080.855469 727.508240,2080.855469 
	C727.508240,2090.116699 727.613037,2099.270996 727.351746,2108.415039 
	C727.324585,2109.365479 725.124817,2110.253906 723.026489,2111.197754 
z"/>
<path fill="#CE2C31" opacity="1.000000" stroke="none" 
	d="
M2661.843750,1543.979248 
	C2660.091064,1544.549561 2658.339111,1545.615723 2656.585693,1545.618164 
	C2596.285400,1545.701294 2535.985107,1545.686890 2475.684814,1545.660645 
	C2474.391357,1545.660034 2473.097656,1545.357544 2470.720703,1545.060425 
	C2470.720703,1525.850952 2470.720703,1506.705444 2470.720703,1487.872559 
	C2462.605957,1485.703125 2315.170898,1485.090698 2300.216797,1487.021606 
	C2300.216797,1505.966064 2300.216797,1525.111084 2300.216797,1544.959229 
	C2236.333740,1544.959229 2173.574463,1544.959229 2110.053955,1544.959229 
	C2109.723633,1542.399292 2109.120361,1539.889282 2109.117188,1537.378540 
	C2109.059814,1492.736328 2109.143311,1448.093750 2109.009277,1403.452026 
	C2108.986084,1395.686401 2111.432617,1389.755615 2117.156494,1384.166870 
	C2135.984131,1365.782959 2154.372559,1346.943359 2172.681152,1328.038086 
	C2176.704102,1323.884155 2180.848877,1322.185181 2186.632324,1322.191040 
	C2319.559570,1322.325928 2452.486816,1322.302612 2585.414062,1322.258423 
	C2589.825928,1322.256958 2593.612061,1322.525879 2597.053223,1326.219238 
	C2617.715576,1348.395142 2638.647949,1370.319702 2659.431152,1392.383545 
	C2660.517090,1393.536621 2661.068848,1395.193481 2661.292969,1397.916016 
	C2660.471191,1400.838867 2660.012695,1402.461304 2660.011230,1404.084106 
	C2659.972412,1448.247070 2659.950195,1492.410278 2660.059570,1536.572876 
	C2660.065674,1539.043213 2661.222412,1541.510498 2661.843750,1543.979248 
z"/>
<path fill="#FFFFFF" opacity="1.000000" stroke="none" 
	d="
M2422.000000,1828.315918 
	C2344.349121,1828.315918 2267.698242,1828.235596 2191.048096,1828.448853 
	C2183.923340,1828.468628 2178.709717,1826.828125 2173.558105,1821.492065 
	C2154.117676,1801.355957 2134.119385,1781.757812 2114.300293,1761.987793 
	C2111.444092,1759.138550 2109.011475,1756.468628 2109.034180,1751.825684 
	C2109.209961,1715.520752 2109.131104,1679.214722 2109.131104,1642.301636 
	C2172.607178,1642.301636 2235.732910,1642.301636 2299.625488,1642.301636 
	C2299.625488,1650.660278 2299.625488,1658.856689 2299.625488,1667.659058 
	C2356.544678,1667.659058 2412.706299,1667.659058 2469.992188,1667.659058 
	C2469.992188,1659.645996 2469.992188,1651.218018 2469.992188,1642.254150 
	C2534.544678,1642.254150 2597.975342,1642.254150 2662.238770,1642.254150 
	C2662.238770,1644.819214 2662.239014,1647.061646 2662.239014,1649.303955 
	C2662.239258,1682.630371 2662.125000,1715.957642 2662.353760,1749.282593 
	C2662.391113,1754.711914 2660.780273,1758.551880 2656.925293,1762.331055 
	C2636.698975,1782.160156 2616.584717,1802.108276 2596.745850,1822.323486 
	C2592.426270,1826.724854 2588.146729,1828.484497 2581.965820,1828.456055 
	C2528.978271,1828.211670 2475.988770,1828.315918 2422.000000,1828.315918 
z"/>
<path fill="#FEFEFE" opacity="1.000000" stroke="none" 
	d="
M2407.998779,1523.073242 
	C2418.989502,1523.073242 2428.980713,1523.073242 2439.665283,1523.073242 
	C2439.665283,1559.119873 2439.665283,1594.882324 2439.665283,1631.151855 
	C2403.382080,1631.151855 2367.235107,1631.151855 2330.506836,1631.151855 
	C2330.506836,1595.393677 2330.506836,1559.916626 2330.506836,1523.073242 
	C2356.011963,1523.073242 2381.505859,1523.073242 2407.998779,1523.073242 
z"/>
<path fill="#CF3237" opacity="1.000000" stroke="none" 
	d="
M2662.100830,1543.073853 
	C2661.222412,1541.510498 2660.065674,1539.043213 2660.059570,1536.572876 
	C2659.950195,1492.410278 2659.972412,1448.247070 2660.011230,1404.084106 
	C2660.012695,1402.461304 2660.471191,1400.838867 2661.289551,1398.612793 
	C2662.069336,1399.643555 2662.456543,1401.277832 2662.456299,1402.912231 
	C2662.447266,1449.330933 2662.399414,1495.749756 2662.100830,1543.073853 
z"/>
</svg>