<svg version="1.1" id="Layer_1" xmlns="http://www.w3.org/2000/svg" xmlns:xlink="http://www.w3.org/1999/xlink" x="0px" y="0px"
	 width="100%" viewBox="0 0 3240 3240" enable-background="new 0 0 3240 3240" xml:space="preserve">
<path fill="#000000" opacity="1.000000" stroke="none" 
	d="
M1742.000000,3242.000000 
	C1161.333496,3242.000000 581.666992,3242.000000 2.000389,3242.000000 
	C2.000259,2162.000488 2.000259,1082.000977 2.000130,2.001113 
	C1081.999146,2.000742 2161.998291,2.000742 3241.998047,2.000371 
	C3241.998779,1081.998901 3241.998779,2161.997803 3241.999512,3241.998291 
	C2742.333252,3242.000000 2242.666748,3242.000000 1742.000000,3242.000000 
M1673.995972,1717.995483 
	C1673.995972,1717.995483 1674.114502,1717.996948 1674.334839,1716.582275 
	C1672.237061,1714.347778 1670.139404,1712.113159 1667.996094,1709.993286 
	C1667.996094,1709.993286 1668.119629,1709.994141 1668.350830,1708.543091 
	C1659.647949,1696.829224 1650.945068,1685.115234 1641.883301,1672.113647 
	C1634.474121,1662.050293 1627.064941,1651.987061 1619.220947,1641.333130 
	C1616.400879,1644.776123 1614.417114,1646.993408 1612.657349,1649.376099 
	C1562.579956,1717.181030 1512.461426,1784.956055 1462.592041,1852.913696 
	C1458.775513,1858.114746 1454.834839,1859.908813 1448.531128,1859.866455 
	C1408.203491,1859.595215 1367.873047,1859.728271 1327.543579,1859.728271 
	C1323.972290,1859.728271 1320.400879,1859.728271 1316.323364,1859.728271 
	C1316.323364,1871.641724 1316.323364,1882.421265 1316.323364,1894.264893 
	C1320.483154,1894.264893 1324.062012,1894.265015 1327.640991,1894.265015 
	C1374.636597,1894.265015 1421.635498,1893.969849 1468.624756,1894.519043 
	C1477.803833,1894.626221 1483.048218,1891.361816 1488.165283,1884.341309 
	C1522.289429,1837.523071 1556.711182,1790.921387 1591.145874,1744.330078 
	C1602.420166,1729.075439 1614.020142,1714.061401 1626.455444,1700.137939 
	C1660.087036,1745.473877 1693.679321,1790.838867 1727.387329,1836.118042 
	C1733.298218,1844.057983 1739.693970,1851.636841 1745.865967,1859.382324 
	C1756.158203,1859.418457 1766.450317,1859.454468 1777.688721,1860.429565 
	C1784.625244,1869.786255 1791.681763,1879.057251 1798.444946,1888.537598 
	C1801.556396,1892.899170 1804.943970,1895.043335 1810.735596,1895.012085 
	C1860.377319,1894.743774 1910.021118,1894.869751 1959.664307,1894.822998 
	C1962.193481,1894.820679 1964.722168,1894.315186 1967.044678,1894.066040 
	C1967.044678,1702.554810 1967.044678,1511.817627 1967.044678,1321.083496 
	C1959.216309,1321.083496 1952.131592,1321.083496 1944.368896,1321.083496 
	C1944.368896,1347.545898 1944.368896,1373.161865 1944.368896,1398.777832 
	C1944.368896,1424.099243 1944.368896,1449.420532 1944.368896,1474.741943 
	C1944.368896,1500.396484 1944.368896,1526.050903 1944.368896,1551.705444 
	C1944.368896,1577.359985 1944.368896,1603.014526 1944.368896,1628.669067 
	C1944.368896,1654.323608 1944.368896,1679.978027 1944.368896,1705.632568 
	C1944.368896,1730.953979 1944.470825,1756.275757 1944.340454,1781.596558 
	C1944.208862,1807.130127 1944.921631,1832.684326 1943.843750,1859.132690 
	C1938.892456,1859.132690 1934.950195,1859.132568 1931.007935,1859.132568 
	C1886.029175,1859.132568 1841.050293,1859.222656 1796.071899,1859.088867 
	C1777.624756,1859.034058 1783.411377,1861.351440 1771.749756,1846.742065 
	C1768.137695,1842.216675 1763.956055,1838.145996 1760.001465,1833.973877 
	C1760.001465,1833.973877 1760.112305,1833.995361 1760.348267,1832.545654 
	C1759.972900,1831.637573 1759.763306,1830.607300 1759.197632,1829.839478 
	C1747.497925,1813.962280 1735.787720,1798.092651 1723.963867,1782.308105 
	C1723.104980,1781.161743 1721.362793,1780.677246 1719.994141,1779.998169 
	C1719.994141,1779.998169 1720.113159,1779.998291 1720.328125,1778.583740 
	C1718.232178,1776.348999 1716.136230,1774.114380 1713.996216,1771.993774 
	C1713.996216,1771.993774 1714.118530,1771.994629 1714.343018,1770.543823 
	C1703.784424,1755.978394 1693.241455,1741.401489 1682.613281,1726.887085 
	C1682.153809,1726.259888 1680.907959,1726.208740 1679.991943,1726.000488 
	C1679.991943,1726.000488 1680.108765,1726.000488 1680.309814,1724.587891 
	C1678.218628,1722.353271 1676.127441,1720.118652 1673.995972,1717.995483 
M1480.391846,1502.182373 
	C1480.352417,1444.244751 1480.317749,1386.307251 1480.254028,1328.369629 
	C1480.251831,1326.389038 1479.975830,1324.406982 1479.784546,1322.429810 
	C1479.756348,1322.138916 1479.523560,1321.842651 1479.322876,1321.600830 
	C1479.113159,1321.348145 1478.827759,1321.158447 1478.414062,1320.802246 
	C1472.041626,1320.802246 1465.518433,1320.802246 1458.407471,1320.802246 
	C1458.407471,1408.241577 1458.407471,1495.140137 1458.407471,1582.038574 
	C1458.884888,1582.239014 1459.362183,1582.439331 1459.839600,1582.639771 
	C1466.683960,1572.970703 1473.528320,1563.301636 1481.430298,1552.953735 
	C1482.287598,1551.936523 1483.205688,1550.963989 1483.993652,1549.895630 
	C1517.954590,1503.848999 1551.907837,1457.796387 1585.850708,1411.736328 
	C1591.126221,1404.577515 1596.347046,1397.378418 1601.742920,1389.993042 
	C1595.544189,1381.727539 1589.840576,1374.122314 1583.693115,1365.925049 
	C1581.197998,1369.037842 1579.291138,1371.259521 1577.554932,1373.607300 
	C1563.130737,1393.111938 1548.788330,1412.677124 1534.322998,1432.151001 
	C1516.493042,1456.154419 1498.568848,1480.087769 1480.391846,1502.182373 
M1258.260498,1486.494995 
	C1258.260498,1610.558838 1258.260498,1734.622803 1258.260498,1859.127686 
	C1270.644043,1859.127686 1281.764648,1859.127686 1293.973267,1859.127686 
	C1293.973267,1854.645142 1293.973267,1850.743164 1293.973267,1846.841187 
	C1293.973267,1729.985107 1293.977295,1613.129028 1293.956177,1496.272949 
	C1293.955444,1492.286133 1293.701050,1488.299316 1293.901245,1482.414429 
	C1293.901245,1471.933350 1293.901245,1461.452393 1293.901245,1450.731079 
	C1280.130127,1450.731079 1267.708374,1450.731079 1254.343628,1450.731079 
	C1254.343628,1461.203857 1254.201294,1471.075439 1254.515991,1480.932495 
	C1254.557251,1482.229858 1256.935059,1483.452759 1258.260498,1486.494995 
M952.221924,1482.401245 
	C952.134583,1471.890869 952.792725,1461.345093 951.792236,1450.556885 
	C948.468811,1450.379028 946.186584,1450.147705 943.904541,1450.150146 
	C806.008667,1450.295044 668.112854,1450.458862 530.217041,1450.646606 
	C529.963684,1450.646973 529.706238,1451.019897 529.459167,1451.228638 
	C529.204468,1451.444092 528.960205,1451.671631 528.971924,1451.661255 
	C528.971924,1462.472290 528.971924,1472.984619 528.971924,1484.271729 
	C533.634583,1484.271729 537.583252,1484.271729 541.531860,1484.271729 
	C662.121765,1484.271729 782.711670,1484.267090 903.301575,1484.290405 
	C907.622314,1484.291260 911.943054,1484.565308 916.244629,1486.469971 
	C916.244629,1515.002930 916.244629,1543.536011 916.244629,1572.641724 
	C928.643433,1572.641724 940.073181,1572.641724 951.936890,1572.641724 
	C951.936890,1542.742920 951.936890,1513.517944 952.221924,1482.401245 
M2136.184326,1800.020264 
	C2131.093750,1794.761475 2126.300537,1789.165527 2120.826416,1784.341553 
	C2115.632812,1779.764771 2113.994873,1774.627808 2114.004883,1767.761353 
	C2114.192139,1637.864624 2114.191895,1507.967163 2114.006104,1378.070435 
	C2113.996338,1371.188599 2115.989746,1366.311157 2120.888428,1361.509155 
	C2143.483154,1339.360474 2165.762695,1316.889160 2188.061768,1294.440796 
	C2190.165283,1292.322998 2193.708008,1290.776733 2192.983398,1286.260742 
	C2184.358887,1286.260742 2176.041992,1286.535522 2167.754150,1286.162964 
	C2162.335938,1285.919556 2158.418457,1287.592651 2154.567627,1291.496582 
	C2131.178223,1315.207642 2107.623291,1338.758057 2083.910400,1362.145996 
	C2079.789795,1366.210205 2078.144287,1370.374023 2078.150391,1376.157104 
	C2078.292236,1507.386353 2078.292236,1638.615845 2078.150146,1769.845093 
	C2078.143799,1775.629395 2079.787109,1779.796509 2083.913086,1783.854980 
	C2104.570557,1804.174438 2124.964844,1824.761353 2145.452881,1845.252808 
	C2160.615234,1860.417480 2160.616211,1860.416504 2183.717285,1860.325562 
	C2193.140381,1869.756714 2202.757812,1879.004517 2211.897217,1888.703125 
	C2215.919189,1892.971558 2220.214111,1894.378662 2225.960205,1894.373779 
	C2376.286865,1894.245117 2526.613281,1894.235840 2676.939697,1894.397827 
	C2683.138916,1894.404419 2687.508301,1892.579834 2691.817627,1888.204712 
	C2714.738770,1864.933228 2737.810547,1841.805908 2761.126465,1818.930664 
	C2766.052490,1814.097900 2767.891602,1809.124390 2767.878174,1802.287231 
	C2767.686768,1704.625366 2767.747314,1606.962891 2767.747314,1509.300659 
	C2767.747314,1476.302124 2767.788086,1443.303467 2767.682861,1410.305298 
	C2767.672607,1407.085083 2767.879395,1402.891602 2766.070801,1400.826660 
	C2759.862549,1393.737915 2753.575439,1386.540771 2744.311768,1380.028320 
	C2744.311768,1385.148315 2744.311768,1388.698608 2744.311768,1392.248779 
	C2744.311523,1517.576538 2744.275635,1642.904175 2744.414307,1768.231812 
	C2744.421631,1774.635864 2742.868408,1779.405884 2738.117676,1784.051270 
	C2715.002197,1806.654541 2692.121582,1829.504150 2669.503174,1852.604736 
	C2664.427979,1857.788086 2659.325684,1859.892212 2652.031738,1859.876953 
	C2544.037109,1859.651367 2436.041748,1859.721436 2328.046631,1859.721436 
	C2287.048584,1859.721313 2246.049561,1859.598022 2205.052979,1859.852905 
	C2198.870605,1859.891235 2194.434326,1858.223022 2190.154785,1853.717529 
	C2179.139160,1842.121338 2167.695068,1830.928589 2156.303223,1819.695068 
	C2149.916016,1813.396729 2143.292480,1807.338257 2136.184326,1800.020264 
M2156.765869,1392.894775 
	C2156.569824,1393.864258 2156.203369,1394.833618 2156.202393,1395.803223 
	C2156.154297,1442.537720 2156.117432,1489.272339 2156.197510,1536.006714 
	C2156.200439,1537.703369 2157.387451,1539.397949 2159.836914,1541.559204 
	C2220.148682,1541.607544 2280.460693,1541.667480 2340.772461,1541.657593 
	C2342.951172,1541.657227 2345.129883,1540.968750 2347.339844,1540.595703 
	C2348.429443,1520.843994 2346.824463,1501.639160 2348.277588,1482.712036 
	C2405.302979,1482.712036 2461.126221,1482.712036 2518.076660,1482.712036 
	C2518.076660,1502.485840 2518.076660,1521.623047 2518.076660,1541.062866 
	C2582.650879,1541.062866 2646.090332,1541.062866 2709.678955,1541.062866 
	C2709.944580,1539.160156 2710.281494,1537.869995 2710.282471,1536.579712 
	C2710.314697,1490.595215 2710.261230,1444.610474 2710.397949,1398.626343 
	C2710.413086,1393.537231 2708.600586,1389.720947 2705.225098,1386.171631 
	C2685.250977,1365.167725 2665.248291,1344.188354 2645.519531,1322.955444 
	C2641.917969,1319.078979 2638.138672,1318.152222 2633.198486,1318.188110 
	C2608.208008,1318.369873 2583.215820,1318.272705 2558.224121,1318.272827 
	C2450.593506,1318.273071 2342.963135,1318.295654 2235.332520,1318.208496 
	C2229.800781,1318.203979 2225.272949,1318.920532 2221.037842,1323.301392 
	C2201.584473,1343.424194 2181.692627,1363.122437 2162.153320,1383.163574 
	C2160.058838,1385.311890 2159.233398,1388.698120 2156.765869,1392.894775 
M2225.000000,1637.677856 
	C2202.441895,1637.677856 2179.883789,1637.677856 2156.870117,1637.677856 
	C2156.685547,1640.237793 2156.470947,1641.833862 2156.470703,1643.429932 
	C2156.464355,1677.412476 2156.585693,1711.395752 2156.384033,1745.377075 
	C2156.353516,1750.521606 2158.060059,1754.047852 2161.622803,1757.578247 
	C2181.975098,1777.744629 2202.281982,1797.963379 2222.214355,1818.541626 
	C2226.626953,1823.097046 2231.081787,1824.440186 2237.120605,1824.433960 
	C2368.053711,1824.298706 2498.986816,1824.297363 2629.919678,1824.443726 
	C2635.651123,1824.450073 2639.843506,1823.035278 2643.926514,1818.869507 
	C2663.981201,1798.409424 2684.255127,1778.161865 2704.646729,1758.036987 
	C2708.464600,1754.269043 2710.160645,1750.461548 2710.120850,1744.996948 
	C2709.876465,1711.349243 2710.004150,1677.698853 2709.977783,1644.049438 
	C2709.976318,1642.150146 2709.707275,1640.251099 2709.551025,1638.199341 
	C2645.493652,1638.199341 2582.045166,1638.199341 2517.705078,1638.199341 
	C2517.705078,1646.851807 2517.705078,1655.023804 2517.705078,1663.498291 
	C2460.692139,1663.498291 2404.573242,1663.498291 2347.571777,1663.498291 
	C2347.571777,1654.866211 2347.571777,1646.689331 2347.571777,1637.677856 
	C2306.796387,1637.677856 2266.898193,1637.677856 2225.000000,1637.677856 
M731.146851,1761.067261 
	C731.143921,1793.582886 731.140930,1826.098511 731.137878,1859.715088 
	C714.074524,1859.715088 698.486694,1859.715088 682.898865,1859.715088 
	C667.572815,1859.715088 652.246765,1859.695068 636.920776,1859.720703 
	C621.407898,1859.746704 605.895081,1859.817993 589.889893,1859.871094 
	C589.731750,1872.082397 589.413147,1882.877075 590.013611,1893.470947 
	C609.033752,1895.470703 746.585388,1894.667725 754.284607,1892.472778 
	C754.284607,1882.709839 754.284607,1872.751587 754.284607,1862.793457 
	C754.284607,1852.798218 754.284607,1842.802979 754.284607,1832.807739 
	C754.284607,1822.479370 754.220764,1812.150391 754.303040,1801.822632 
	C754.381348,1791.983521 753.930664,1782.106689 754.635071,1771.754761 
	C759.930847,1771.754761 763.905090,1771.754761 767.879333,1771.754761 
	C861.168152,1771.754761 954.457031,1771.693970 1047.745483,1771.885376 
	C1054.264404,1771.898682 1058.886230,1770.037476 1063.456909,1765.383545 
	C1086.567749,1741.851562 1109.889648,1718.522461 1133.424927,1695.415039 
	C1138.090942,1690.834106 1139.914795,1686.194092 1139.888916,1679.692139 
	C1139.662964,1622.720215 1139.758057,1565.746948 1139.758057,1508.774170 
	C1139.758057,1476.123047 1139.791504,1443.471924 1139.706177,1410.821045 
	C1139.697632,1407.572144 1140.131226,1403.325684 1138.358521,1401.256836 
	C1132.028687,1393.869629 1125.572388,1386.406860 1116.099121,1379.923950 
	C1116.099121,1385.031738 1116.099121,1388.608032 1116.099121,1392.184326 
	C1116.099121,1476.477417 1116.003174,1560.770874 1116.267822,1645.063232 
	C1116.290771,1652.394409 1114.079224,1657.407349 1108.920410,1662.443115 
	C1086.511230,1684.318726 1064.294067,1706.401001 1042.456421,1728.845215 
	C1036.834595,1734.623169 1031.106201,1736.599365 1023.193481,1736.577881 
	C930.238525,1736.326294 837.282593,1736.416382 744.326965,1736.416382 
	C740.403015,1736.416382 736.479065,1736.416382 731.148926,1736.416382 
	C731.148926,1744.637695 731.148926,1751.866943 731.146851,1761.067261 
M567.907532,1813.000000 
	C567.907532,1705.810791 567.907532,1598.621582 567.907532,1491.008789 
	C555.460571,1491.008789 544.044006,1491.008789 532.751465,1491.008789 
	C530.835754,1503.548584 531.377686,1851.784668 533.280823,1859.190674 
	C544.380188,1859.190674 555.548035,1859.190674 567.907471,1859.190674 
	C567.907471,1844.114014 567.907471,1829.557007 567.907532,1813.000000 
M2377.642090,1551.011719 
	C2377.642090,1576.451660 2377.642090,1601.891479 2377.642090,1627.302246 
	C2415.216309,1627.302246 2451.394775,1627.302246 2487.607666,1627.302246 
	C2487.607666,1590.877075 2487.607666,1554.832642 2487.607666,1518.816040 
	C2450.749512,1518.816040 2414.582520,1518.816040 2377.642090,1518.816040 
	C2377.642090,1529.143433 2377.642090,1539.081177 2377.642090,1551.011719 
M1781.350342,1568.618164 
	C1781.350342,1474.851562 1781.350342,1381.084839 1781.350342,1286.994629 
	C1768.738770,1286.994629 1757.365112,1286.994629 1745.808838,1286.994629 
	C1745.582031,1288.994263 1745.306519,1290.291382 1745.306152,1291.588623 
	C1745.281128,1371.476440 1745.311401,1451.364136 1745.191406,1531.251831 
	C1745.184448,1535.918823 1746.748413,1539.530273 1749.433594,1543.098999 
	C1758.636108,1555.330078 1767.682983,1567.678101 1776.848511,1579.937378 
	C1777.689331,1581.061768 1778.952515,1581.870605 1781.349487,1584.016479 
	C1781.349487,1578.287598 1781.349487,1574.382080 1781.350342,1568.618164 
M1196.254761,1343.000000 
	C1196.254761,1378.497314 1196.254761,1413.994629 1196.254761,1449.749146 
	C1208.811646,1449.749146 1219.976074,1449.749146 1231.552002,1449.749146 
	C1231.552002,1395.187134 1231.552002,1341.174438 1231.552002,1286.823608 
	C1219.699585,1286.823608 1208.554688,1286.823608 1196.254883,1286.823608 
	C1196.254883,1305.241211 1196.254883,1323.120605 1196.254761,1343.000000 
M506.152496,1379.000000 
	C506.152496,1348.481934 506.152496,1317.963867 506.152496,1286.443604 
	C493.689850,1286.320068 482.311218,1285.772583 470.810791,1286.803955 
	C470.810791,1341.607666 470.810791,1395.366455 470.810791,1449.513428 
	C482.743134,1449.513428 494.114655,1449.513428 506.152679,1449.513428 
	C506.152679,1426.158081 506.152679,1403.578979 506.152496,1379.000000 
M754.269836,1564.738281 
	C754.247192,1551.954102 754.224609,1539.169800 754.202148,1526.489014 
	C745.965271,1526.489014 739.209656,1526.489014 732.336548,1526.489014 
	C732.336548,1542.011719 732.336548,1556.766602 732.336548,1572.581909 
	C738.462463,1572.581909 744.004089,1572.527832 749.544128,1572.599365 
	C753.754822,1572.653809 754.351501,1569.981445 754.269836,1564.738281 
z"/>
<path fill="#CE2C31" opacity="1.000000" stroke="none" 
	d="
M2157.819336,1391.510010 
	C2159.233398,1388.698120 2160.058838,1385.311890 2162.153320,1383.163574 
	C2181.692627,1363.122437 2201.584473,1343.424194 2221.037842,1323.301392 
	C2225.272949,1318.920532 2229.800781,1318.203979 2235.332520,1318.208496 
	C2342.963135,1318.295654 2450.593506,1318.273071 2558.224121,1318.272827 
	C2583.215820,1318.272705 2608.208008,1318.369873 2633.198486,1318.188110 
	C2638.138672,1318.152222 2641.917969,1319.078979 2645.519531,1322.955444 
	C2665.248291,1344.188354 2685.250977,1365.167725 2705.225098,1386.171631 
	C2708.600586,1389.720947 2710.413086,1393.537231 2710.397949,1398.626343 
	C2710.261230,1444.610474 2710.314697,1490.595215 2710.282471,1536.579712 
	C2710.281494,1537.869995 2709.944580,1539.160156 2709.678955,1541.062866 
	C2646.090332,1541.062866 2582.650879,1541.062866 2518.076660,1541.062866 
	C2518.076660,1521.623047 2518.076660,1502.485840 2518.076660,1482.712036 
	C2461.126221,1482.712036 2405.302979,1482.712036 2348.277588,1482.712036 
	C2346.824463,1501.639160 2348.429443,1520.843994 2347.339844,1540.595703 
	C2345.129883,1540.968750 2342.951172,1541.657227 2340.772461,1541.657593 
	C2280.460693,1541.667480 2220.148682,1541.607544 2158.925537,1540.457275 
	C2157.949219,1490.073608 2157.884277,1440.791870 2157.819336,1391.510010 
z"/>
<path fill="#FEFEFE" opacity="1.000000" stroke="none" 
	d="
M2226.000000,1637.677856 
	C2266.898193,1637.677856 2306.796387,1637.677856 2347.571777,1637.677856 
	C2347.571777,1646.689331 2347.571777,1654.866211 2347.571777,1663.498291 
	C2404.573242,1663.498291 2460.692139,1663.498291 2517.705078,1663.498291 
	C2517.705078,1655.023804 2517.705078,1646.851807 2517.705078,1638.199341 
	C2582.045166,1638.199341 2645.493652,1638.199341 2709.551025,1638.199341 
	C2709.707275,1640.251099 2709.976318,1642.150146 2709.977783,1644.049438 
	C2710.004150,1677.698853 2709.876465,1711.349243 2710.120850,1744.996948 
	C2710.160645,1750.461548 2708.464600,1754.269043 2704.646729,1758.036987 
	C2684.255127,1778.161865 2663.981201,1798.409424 2643.926514,1818.869507 
	C2639.843506,1823.035278 2635.651123,1824.450073 2629.919678,1824.443726 
	C2498.986816,1824.297363 2368.053711,1824.298706 2237.120605,1824.433960 
	C2231.081787,1824.440186 2226.626953,1823.097046 2222.214355,1818.541626 
	C2202.281982,1797.963379 2181.975098,1777.744629 2161.622803,1757.578247 
	C2158.060059,1754.047852 2156.353516,1750.521606 2156.384033,1745.377075 
	C2156.585693,1711.395752 2156.464355,1677.412476 2156.470703,1643.429932 
	C2156.470947,1641.833862 2156.685547,1640.237793 2156.870117,1637.677856 
	C2179.883789,1637.677856 2202.441895,1637.677856 2226.000000,1637.677856 
z"/>
<path fill="#4C6896" opacity="1.000000" stroke="none" 
	d="
M2136.775391,1801.171753 
	C2143.292480,1807.338257 2149.916016,1813.396729 2156.303223,1819.695068 
	C2167.695068,1830.928589 2179.139160,1842.121338 2190.154785,1853.717529 
	C2194.434326,1858.223022 2198.870605,1859.891235 2205.052979,1859.852905 
	C2246.049561,1859.598022 2287.048584,1859.721313 2328.046631,1859.721436 
	C2436.041748,1859.721436 2544.037109,1859.651367 2652.031738,1859.876953 
	C2659.325684,1859.892212 2664.427979,1857.788086 2669.503174,1852.604736 
	C2692.121582,1829.504150 2715.002197,1806.654541 2738.117676,1784.051270 
	C2742.868408,1779.405884 2744.421631,1774.635864 2744.414307,1768.231812 
	C2744.275635,1642.904175 2744.311523,1517.576538 2744.311768,1392.248779 
	C2744.311768,1388.698608 2744.311768,1385.148315 2744.311768,1380.028320 
	C2753.575439,1386.540771 2759.862549,1393.737915 2766.070801,1400.826660 
	C2767.879395,1402.891602 2767.672607,1407.085083 2767.682861,1410.305298 
	C2767.788086,1443.303467 2767.747314,1476.302124 2767.747314,1509.300659 
	C2767.747314,1606.962891 2767.686768,1704.625366 2767.878174,1802.287231 
	C2767.891602,1809.124390 2766.052490,1814.097900 2761.126465,1818.930664 
	C2737.810547,1841.805908 2714.738770,1864.933228 2691.817627,1888.204712 
	C2687.508301,1892.579834 2683.138916,1894.404419 2676.939697,1894.397827 
	C2526.613281,1894.235840 2376.286865,1894.245117 2225.960205,1894.373779 
	C2220.214111,1894.378662 2215.919189,1892.971558 2211.897217,1888.703125 
	C2202.757812,1879.004517 2193.140381,1869.756714 2182.932617,1859.277344 
	C2168.949707,1844.750610 2155.978027,1831.038330 2142.436523,1817.913940 
	C2137.346436,1812.980835 2135.212158,1807.925171 2136.775391,1801.171753 
z"/>
<path fill="#4B6795" opacity="1.000000" stroke="none" 
	d="
M731.147888,1760.081787 
	C731.148926,1751.866943 731.148926,1744.637695 731.148926,1736.416382 
	C736.479065,1736.416382 740.403015,1736.416382 744.326965,1736.416382 
	C837.282593,1736.416382 930.238525,1736.326294 1023.193481,1736.577881 
	C1031.106201,1736.599365 1036.834595,1734.623169 1042.456421,1728.845215 
	C1064.294067,1706.401001 1086.511230,1684.318726 1108.920410,1662.443115 
	C1114.079224,1657.407349 1116.290771,1652.394409 1116.267822,1645.063232 
	C1116.003174,1560.770874 1116.099121,1476.477417 1116.099121,1392.184326 
	C1116.099121,1388.608032 1116.099121,1385.031738 1116.099121,1379.923950 
	C1125.572388,1386.406860 1132.028687,1393.869629 1138.358521,1401.256836 
	C1140.131226,1403.325684 1139.697632,1407.572144 1139.706177,1410.821045 
	C1139.791504,1443.471924 1139.758057,1476.123047 1139.758057,1508.774170 
	C1139.758057,1565.746948 1139.662964,1622.720215 1139.888916,1679.692139 
	C1139.914795,1686.194092 1138.090942,1690.834106 1133.424927,1695.415039 
	C1109.889648,1718.522461 1086.567749,1741.851562 1063.456909,1765.383545 
	C1058.886230,1770.037476 1054.264404,1771.898682 1047.745483,1771.885376 
	C954.457031,1771.693970 861.168152,1771.754761 767.879333,1771.754761 
	C763.905090,1771.754761 759.930847,1771.754761 754.635071,1771.754761 
	C753.930664,1782.106689 754.381348,1791.983521 754.303040,1801.822632 
	C754.220764,1812.150391 754.284607,1822.479370 754.284607,1832.807739 
	C754.284607,1842.802979 754.284607,1852.798218 754.284607,1862.793457 
	C754.284607,1872.751587 754.284607,1882.709839 754.284607,1892.472778 
	C746.585388,1894.667725 609.033752,1895.470703 590.013611,1893.470947 
	C589.413147,1882.877075 589.731750,1872.082397 589.889893,1859.871094 
	C605.895081,1859.817993 621.407898,1859.746704 636.920776,1859.720703 
	C652.246765,1859.695068 667.572815,1859.715088 682.898865,1859.715088 
	C698.486694,1859.715088 714.074524,1859.715088 731.137878,1859.715088 
	C731.140930,1826.098511 731.143921,1793.582886 731.147888,1760.081787 
z"/>
<path fill="#CB2B30" opacity="1.000000" stroke="none" 
	d="
M2136.479980,1800.595947 
	C2135.212158,1807.925171 2137.346436,1812.980835 2142.436523,1817.913940 
	C2155.978027,1831.038330 2168.949707,1844.750610 2182.438477,1858.848267 
	C2160.616211,1860.416504 2160.615234,1860.417480 2145.452881,1845.252808 
	C2124.964844,1824.761353 2104.570557,1804.174438 2083.913086,1783.854980 
	C2079.787109,1779.796509 2078.143799,1775.629395 2078.150146,1769.845093 
	C2078.292236,1638.615845 2078.292236,1507.386353 2078.150391,1376.157104 
	C2078.144287,1370.374023 2079.789795,1366.210205 2083.910400,1362.145996 
	C2107.623291,1338.758057 2131.178223,1315.207642 2154.567627,1291.496582 
	C2158.418457,1287.592651 2162.335938,1285.919556 2167.754150,1286.162964 
	C2176.041992,1286.535522 2184.358887,1286.260742 2192.983398,1286.260742 
	C2193.708008,1290.776733 2190.165283,1292.322998 2188.061768,1294.440796 
	C2165.762695,1316.889160 2143.483154,1339.360474 2120.888428,1361.509155 
	C2115.989746,1366.311157 2113.996338,1371.188599 2114.006104,1378.070435 
	C2114.191895,1507.967163 2114.192139,1637.864624 2114.004883,1767.761353 
	C2113.994873,1774.627808 2115.632812,1779.764771 2120.826416,1784.341553 
	C2126.300537,1789.165527 2131.093750,1794.761475 2136.479980,1800.595947 
z"/>
<path fill="#4A6693" opacity="1.000000" stroke="none" 
	d="
M1760.035156,1833.867188 
	C1763.956055,1838.145996 1768.137695,1842.216675 1771.749756,1846.742065 
	C1783.411377,1861.351440 1777.624756,1859.034058 1796.071899,1859.088867 
	C1841.050293,1859.222656 1886.029175,1859.132568 1931.007935,1859.132568 
	C1934.950195,1859.132568 1938.892456,1859.132690 1943.843750,1859.132690 
	C1944.921631,1832.684326 1944.208862,1807.130127 1944.340454,1781.596558 
	C1944.470825,1756.275757 1944.368896,1730.953979 1944.368896,1705.632568 
	C1944.368896,1679.978027 1944.368896,1654.323608 1944.368896,1628.669067 
	C1944.368896,1603.014526 1944.368896,1577.359985 1944.368896,1551.705444 
	C1944.368896,1526.050903 1944.368896,1500.396484 1944.368896,1474.741943 
	C1944.368896,1449.420532 1944.368896,1424.099243 1944.368896,1398.777832 
	C1944.368896,1373.161865 1944.368896,1347.545898 1944.368896,1321.083496 
	C1952.131592,1321.083496 1959.216309,1321.083496 1967.044678,1321.083496 
	C1967.044678,1511.817627 1967.044678,1702.554810 1967.044678,1894.066040 
	C1964.722168,1894.315186 1962.193481,1894.820679 1959.664307,1894.822998 
	C1910.021118,1894.869751 1860.377319,1894.743774 1810.735596,1895.012085 
	C1804.943970,1895.043335 1801.556396,1892.899170 1798.444946,1888.537598 
	C1791.681763,1879.057251 1784.625244,1869.786255 1776.965942,1859.309448 
	C1770.840454,1850.081909 1765.437866,1841.974487 1760.035156,1833.867188 
z"/>
<path fill="#4C6997" opacity="1.000000" stroke="none" 
	d="
M1625.471191,1698.937256 
	C1614.020142,1714.061401 1602.420166,1729.075439 1591.145874,1744.330078 
	C1556.711182,1790.921387 1522.289429,1837.523071 1488.165283,1884.341309 
	C1483.048218,1891.361816 1477.803833,1894.626221 1468.624756,1894.519043 
	C1421.635498,1893.969849 1374.636597,1894.265015 1327.640991,1894.265015 
	C1324.062012,1894.265015 1320.483154,1894.264893 1316.323364,1894.264893 
	C1316.323364,1882.421265 1316.323364,1871.641724 1316.323364,1859.728271 
	C1320.400879,1859.728271 1323.972290,1859.728271 1327.543579,1859.728271 
	C1367.873047,1859.728271 1408.203491,1859.595215 1448.531128,1859.866455 
	C1454.834839,1859.908813 1458.775513,1858.114746 1462.592041,1852.913696 
	C1512.461426,1784.956055 1562.579956,1717.181030 1612.657349,1649.376099 
	C1614.417114,1646.993408 1616.400879,1644.776123 1619.220947,1641.333130 
	C1627.064941,1651.987061 1634.474121,1662.050293 1641.984009,1673.401611 
	C1642.057129,1675.120361 1642.029541,1675.551025 1641.388550,1676.256836 
	C1635.673828,1684.000488 1630.572510,1691.468872 1625.471191,1698.937256 
z"/>
<path fill="#4C6997" opacity="1.000000" stroke="none" 
	d="
M916.263794,1484.711914 
	C911.943054,1484.565308 907.622314,1484.291260 903.301575,1484.290405 
	C782.711670,1484.267090 662.121765,1484.271729 541.531860,1484.271729 
	C537.583252,1484.271729 533.634583,1484.271729 528.971924,1484.271729 
	C528.971924,1472.984619 528.971924,1462.472290 528.971924,1451.661255 
	C528.960205,1451.671631 529.204468,1451.444092 529.459167,1451.228638 
	C529.706238,1451.019897 529.963684,1450.646973 530.217041,1450.646606 
	C668.112854,1450.458862 806.008667,1450.295044 943.904541,1450.150146 
	C946.186584,1450.147705 948.468811,1450.379028 951.792236,1450.556885 
	C952.792725,1461.345093 952.134583,1471.890869 951.148560,1483.324219 
	C938.804749,1484.401978 927.534302,1484.556885 916.263794,1484.711914 
z"/>
<path fill="#CE2C31" opacity="1.000000" stroke="none" 
	d="
M1293.564941,1484.312500 
	C1293.701050,1488.299316 1293.955444,1492.286133 1293.956177,1496.272949 
	C1293.977295,1613.129028 1293.973267,1729.985107 1293.973267,1846.841187 
	C1293.973267,1850.743164 1293.973267,1854.645142 1293.973267,1859.127686 
	C1281.764648,1859.127686 1270.644043,1859.127686 1258.260498,1859.127686 
	C1258.260498,1734.622803 1258.260498,1610.558838 1259.147583,1485.446533 
	C1271.211426,1484.369507 1282.388062,1484.341064 1293.564941,1484.312500 
z"/>
<path fill="#CB2B30" opacity="1.000000" stroke="none" 
	d="
M567.907471,1814.000000 
	C567.907471,1829.557007 567.907471,1844.114014 567.907471,1859.190674 
	C555.548035,1859.190674 544.380188,1859.190674 533.280823,1859.190674 
	C531.377686,1851.784668 530.835754,1503.548584 532.751465,1491.008789 
	C544.044006,1491.008789 555.460571,1491.008789 567.907532,1491.008789 
	C567.907532,1598.621582 567.907532,1705.810791 567.907471,1814.000000 
z"/>
<path fill="#FCFCFC" opacity="1.000000" stroke="none" 
	d="
M2377.642090,1550.015259 
	C2377.642090,1539.081177 2377.642090,1529.143433 2377.642090,1518.816040 
	C2414.582520,1518.816040 2450.749512,1518.816040 2487.607666,1518.816040 
	C2487.607666,1554.832642 2487.607666,1590.877075 2487.607666,1627.302246 
	C2451.394775,1627.302246 2415.216309,1627.302246 2377.642090,1627.302246 
	C2377.642090,1601.891479 2377.642090,1576.451660 2377.642090,1550.015259 
z"/>
<path fill="#CB2B30" opacity="1.000000" stroke="none" 
	d="
M1781.349854,1569.547363 
	C1781.349487,1574.382080 1781.349487,1578.287598 1781.349487,1584.016479 
	C1778.952515,1581.870605 1777.689331,1581.061768 1776.848511,1579.937378 
	C1767.682983,1567.678101 1758.636108,1555.330078 1749.433594,1543.098999 
	C1746.748413,1539.530273 1745.184448,1535.918823 1745.191406,1531.251831 
	C1745.311401,1451.364136 1745.281128,1371.476440 1745.306152,1291.588623 
	C1745.306519,1290.291382 1745.582031,1288.994263 1745.808838,1286.994629 
	C1757.365112,1286.994629 1768.738770,1286.994629 1781.350342,1286.994629 
	C1781.350342,1381.084839 1781.350342,1474.851562 1781.349854,1569.547363 
z"/>
<path fill="#CB2B30" opacity="1.000000" stroke="none" 
	d="
M1196.254883,1342.000000 
	C1196.254883,1323.120605 1196.254883,1305.241211 1196.254883,1286.823608 
	C1208.554688,1286.823608 1219.699585,1286.823608 1231.552002,1286.823608 
	C1231.552002,1341.174438 1231.552002,1395.187134 1231.552002,1449.749146 
	C1219.976074,1449.749146 1208.811646,1449.749146 1196.254761,1449.749146 
	C1196.254761,1413.994629 1196.254761,1378.497314 1196.254883,1342.000000 
z"/>
<path fill="#CB2B30" opacity="1.000000" stroke="none" 
	d="
M506.152588,1380.000000 
	C506.152679,1403.578979 506.152679,1426.158081 506.152679,1449.513428 
	C494.114655,1449.513428 482.743134,1449.513428 470.810791,1449.513428 
	C470.810791,1395.366455 470.810791,1341.607666 470.810791,1286.803955 
	C482.311218,1285.772583 493.689850,1286.320068 506.152496,1286.443604 
	C506.152496,1317.963867 506.152496,1348.481934 506.152588,1380.000000 
z"/>
<path fill="#CB2B30" opacity="1.000000" stroke="none" 
	d="
M1480.685547,1504.051270 
	C1498.568848,1480.087769 1516.493042,1456.154419 1534.322998,1432.151001 
	C1548.788330,1412.677124 1563.130737,1393.111938 1577.554932,1373.607300 
	C1579.291138,1371.259521 1581.197998,1369.037842 1583.693115,1365.925049 
	C1589.840576,1374.122314 1595.544189,1381.727539 1601.742920,1389.993042 
	C1596.347046,1397.378418 1591.126221,1404.577515 1585.850708,1411.736328 
	C1551.907837,1457.796387 1517.954590,1503.848999 1483.993652,1549.895630 
	C1483.205688,1550.963989 1482.287598,1551.936523 1480.791870,1552.395874 
	C1480.330811,1535.909180 1480.508179,1519.980225 1480.685547,1504.051270 
z"/>
<path fill="#CB2B30" opacity="1.000000" stroke="none" 
	d="
M1625.963379,1699.537598 
	C1630.572510,1691.468872 1635.673828,1684.000488 1641.701660,1676.858276 
	C1651.125366,1688.120972 1659.622559,1699.057495 1668.119629,1709.994141 
	C1668.119629,1709.994141 1667.996094,1709.993286 1668.092041,1710.591553 
	C1670.163452,1713.458862 1672.138916,1715.727905 1674.114502,1717.996948 
	C1674.114502,1717.996948 1673.995972,1717.995483 1674.081787,1718.597412 
	C1676.148071,1721.466553 1678.128418,1723.733521 1680.108765,1726.000488 
	C1680.108765,1726.000488 1679.991943,1726.000488 1680.087646,1726.640137 
	C1687.353516,1737.130005 1694.424927,1747.054443 1701.733765,1756.800659 
	C1705.650879,1762.023682 1709.976929,1766.939941 1714.118530,1771.994629 
	C1714.118530,1771.994629 1713.996216,1771.993774 1714.090332,1772.592773 
	C1716.160645,1775.460693 1718.136963,1777.729492 1720.113159,1779.998291 
	C1720.113159,1779.998291 1719.994141,1779.998169 1720.098633,1780.635254 
	C1730.729858,1795.648315 1741.203857,1810.063232 1751.821411,1824.371704 
	C1754.337891,1827.762939 1757.335815,1830.796997 1760.112305,1833.995361 
	C1760.112305,1833.995361 1760.001465,1833.973877 1760.018311,1833.920410 
	C1765.437866,1841.974487 1770.840454,1850.081909 1776.492920,1858.839966 
	C1766.450317,1859.454468 1756.158203,1859.418457 1745.865967,1859.382324 
	C1739.693970,1851.636841 1733.298218,1844.057983 1727.387329,1836.118042 
	C1693.679321,1790.838867 1660.087036,1745.473877 1625.963379,1699.537598 
z"/>
<path fill="#4C6997" opacity="1.000000" stroke="none" 
	d="
M1480.538696,1503.116943 
	C1480.508179,1519.980225 1480.330811,1535.909180 1480.263062,1552.735352 
	C1473.528320,1563.301636 1466.683960,1572.970703 1459.839600,1582.639771 
	C1459.362183,1582.439331 1458.884888,1582.239014 1458.407471,1582.038574 
	C1458.407471,1495.140137 1458.407471,1408.241577 1458.407471,1320.802246 
	C1465.518433,1320.802246 1472.041626,1320.802246 1478.414062,1320.802246 
	C1478.827759,1321.158447 1479.113159,1321.348145 1479.322876,1321.600830 
	C1479.523560,1321.842651 1479.756348,1322.138916 1479.784546,1322.429810 
	C1479.975830,1324.406982 1480.251831,1326.389038 1480.254028,1328.369629 
	C1480.317749,1386.307251 1480.352417,1444.244751 1480.538696,1503.116943 
z"/>
<path fill="#CB2B30" opacity="1.000000" stroke="none" 
	d="
M916.254211,1485.590942 
	C927.534302,1484.556885 938.804749,1484.401978 951.006104,1484.270020 
	C951.936890,1513.517944 951.936890,1542.742920 951.936890,1572.641724 
	C940.073181,1572.641724 928.643433,1572.641724 916.244629,1572.641724 
	C916.244629,1543.536011 916.244629,1515.002930 916.254211,1485.590942 
z"/>
<path fill="#4A6693" opacity="1.000000" stroke="none" 
	d="
M1293.733032,1483.363525 
	C1282.388062,1484.341064 1271.211426,1484.369507 1259.132690,1484.554077 
	C1256.935059,1483.452759 1254.557251,1482.229858 1254.515991,1480.932495 
	C1254.201294,1471.075439 1254.343628,1461.203857 1254.343628,1450.731079 
	C1267.708374,1450.731079 1280.130127,1450.731079 1293.901245,1450.731079 
	C1293.901245,1461.452393 1293.901245,1471.933350 1293.733032,1483.363525 
z"/>
<path fill="#4C6997" opacity="1.000000" stroke="none" 
	d="
M754.263489,1565.711670 
	C754.351501,1569.981445 753.754822,1572.653809 749.544128,1572.599365 
	C744.004089,1572.527832 738.462463,1572.581909 732.336548,1572.581909 
	C732.336548,1556.766602 732.336548,1542.011719 732.336548,1526.489014 
	C739.209656,1526.489014 745.965271,1526.489014 754.202148,1526.489014 
	C754.224609,1539.169800 754.247192,1551.954102 754.263489,1565.711670 
z"/>
<path fill="#CB2B30" opacity="1.000000" stroke="none" 
	d="
M2157.292725,1392.202393 
	C2157.884277,1440.791870 2157.949219,1490.073608 2158.018066,1540.224609 
	C2157.387451,1539.397949 2156.200439,1537.703369 2156.197510,1536.006714 
	C2156.117432,1489.272339 2156.154297,1442.537720 2156.202393,1395.803223 
	C2156.203369,1394.833618 2156.569824,1393.864258 2157.292725,1392.202393 
z"/>
<path fill="#4A6693" opacity="1.000000" stroke="none" 
	d="
M1760.230225,1833.270508 
	C1757.335815,1830.796997 1754.337891,1827.762939 1751.821411,1824.371704 
	C1741.203857,1810.063232 1730.729858,1795.648315 1720.117188,1780.578735 
	C1721.362793,1780.677246 1723.104980,1781.161743 1723.963867,1782.308105 
	C1735.787720,1798.092651 1747.497925,1813.962280 1759.197632,1829.839478 
	C1759.763306,1830.607300 1759.972900,1831.637573 1760.230225,1833.270508 
z"/>
<path fill="#4A6693" opacity="1.000000" stroke="none" 
	d="
M1714.230713,1771.269287 
	C1709.976929,1766.939941 1705.650879,1762.023682 1701.733765,1756.800659 
	C1694.424927,1747.054443 1687.353516,1737.130005 1680.105835,1726.584473 
	C1680.907959,1726.208740 1682.153809,1726.259888 1682.613281,1726.887085 
	C1693.241455,1741.401489 1703.784424,1755.978394 1714.230713,1771.269287 
z"/>
<path fill="#4A6693" opacity="1.000000" stroke="none" 
	d="
M1668.235229,1709.268555 
	C1659.622559,1699.057495 1651.125366,1688.120972 1642.315186,1676.583008 
	C1642.029541,1675.551025 1642.057129,1675.120361 1642.163574,1674.045410 
	C1650.945068,1685.115234 1659.647949,1696.829224 1668.235229,1709.268555 
z"/>
<path fill="#4A6693" opacity="1.000000" stroke="none" 
	d="
M1674.224609,1717.289551 
	C1672.138916,1715.727905 1670.163452,1713.458862 1668.114868,1710.534180 
	C1670.139404,1712.113159 1672.237061,1714.347778 1674.224609,1717.289551 
z"/>
<path fill="#4A6693" opacity="1.000000" stroke="none" 
	d="
M1680.209229,1725.294189 
	C1678.128418,1723.733521 1676.148071,1721.466553 1674.102051,1718.541748 
	C1676.127441,1720.118652 1678.218628,1722.353271 1680.209229,1725.294189 
z"/>
<path fill="#4A6693" opacity="1.000000" stroke="none" 
	d="
M1720.220703,1779.291016 
	C1718.136963,1777.729492 1716.160645,1775.460693 1714.112305,1772.535889 
	C1716.136230,1774.114380 1718.232178,1776.348999 1720.220703,1779.291016 
z"/>
</svg>