<svg version="1.1" id="Layer_1" xmlns="http://www.w3.org/2000/svg" xmlns:xlink="http://www.w3.org/1999/xlink" x="0px" y="0px"
	 width="100%" viewBox="0 0 3240 3240" enable-background="new 0 0 3240 3240" xml:space="preserve">
<path fill="#000000" opacity="1.000000" stroke="none" 
	d="
M1738.000000,3242.000000 
	C1158.666870,3242.000000 580.333679,3242.000000 2.000388,3242.000000 
	C2.000258,2162.000488 2.000258,1082.000977 2.000129,2.001112 
	C1081.999146,2.000741 2161.998291,2.000741 3241.998047,2.000371 
	C3241.998779,1081.998901 3241.998779,2161.997803 3241.999512,3241.998291 
	C2741.000000,3242.000000 2240.000000,3242.000000 1738.000000,3242.000000 
M1610.349487,1698.581055 
	C1608.247803,1696.344604 1606.145996,1694.108276 1603.999268,1691.990479 
	C1603.999268,1691.990479 1604.126099,1691.993896 1604.380127,1690.571655 
	C1601.176025,1686.246216 1597.971924,1681.920776 1594.274902,1676.287842 
	C1586.860474,1666.142700 1579.446167,1655.997559 1571.538452,1645.177490 
	C1568.908325,1648.548462 1567.035400,1650.837891 1565.280762,1653.214478 
	C1515.414917,1720.757080 1465.458862,1788.233643 1415.875854,1855.983154 
	C1411.316528,1862.213135 1406.601196,1864.067139 1399.288696,1864.010620 
	C1359.297119,1863.701294 1319.301880,1863.850098 1279.307983,1863.886230 
	C1275.807129,1863.889404 1272.306396,1864.215332 1268.838745,1864.389648 
	C1268.838745,1876.109863 1268.838745,1886.633179 1268.838745,1897.635620 
	C1271.962646,1897.875488 1274.543579,1898.244995 1277.124756,1898.246704 
	C1326.450562,1898.281128 1375.776978,1898.170776 1425.101685,1898.402954 
	C1431.161377,1898.431396 1434.758667,1896.258179 1438.222778,1891.504761 
	C1463.322876,1857.060669 1488.632202,1822.768799 1513.968872,1788.497925 
	C1535.143433,1759.856201 1556.444580,1731.307983 1578.628052,1703.934937 
	C1616.706787,1755.194580 1654.871460,1806.391113 1692.725098,1857.816406 
	C1696.329102,1862.712646 1699.898315,1864.770752 1705.839478,1864.403198 
	C1713.802368,1863.910889 1721.813599,1864.202271 1730.380005,1864.935913 
	C1730.835083,1865.424683 1731.388306,1865.742188 1732.455566,1867.191162 
	C1738.561768,1875.507202 1744.985474,1883.614380 1750.650269,1892.220947 
	C1753.841553,1897.069458 1757.640259,1898.377075 1763.131836,1898.358887 
	C1812.453613,1898.195679 1861.776123,1898.276001 1911.098511,1898.231689 
	C1913.948730,1898.229248 1916.798462,1897.769775 1919.450439,1897.540283 
	C1921.420410,1879.522827 1920.606323,1332.425049 1918.638550,1324.993164 
	C1911.906372,1324.993164 1905.115845,1324.993164 1897.162842,1324.993164 
	C1897.162842,1504.824219 1897.162842,1683.935669 1897.162842,1863.386108 
	C1893.396606,1863.589600 1890.779053,1863.852905 1888.161499,1863.854126 
	C1839.172363,1863.878662 1790.183350,1863.881592 1741.194214,1863.848755 
	C1738.206055,1863.846680 1735.218140,1863.508667 1731.863647,1862.371460 
	C1731.263550,1862.204346 1730.663452,1862.037231 1729.996826,1861.977905 
	C1729.996826,1861.977905 1730.121948,1861.997070 1730.356445,1860.550903 
	C1724.223267,1851.796631 1718.145142,1843.002441 1711.890381,1834.335938 
	C1711.062012,1833.188232 1709.332764,1832.690918 1707.989136,1832.003784 
	C1707.989136,1832.003784 1708.104858,1832.007080 1708.278320,1830.595947 
	C1706.195190,1828.359619 1704.112183,1826.123291 1701.992065,1823.999878 
	C1701.992065,1823.999878 1702.110962,1824.002686 1702.311646,1822.589233 
	C1700.219727,1820.353271 1698.127686,1818.117310 1695.996094,1815.995361 
	C1695.996094,1815.995361 1696.116699,1815.998413 1696.343994,1814.582275 
	C1694.243896,1812.345825 1692.143799,1810.109375 1689.998535,1807.991455 
	C1689.998535,1807.991455 1690.125244,1807.993530 1690.372681,1806.548218 
	C1684.232178,1797.800659 1678.146606,1789.013428 1671.885254,1780.353271 
	C1671.053833,1779.203247 1669.329468,1778.698853 1667.988159,1778.005249 
	C1667.988159,1778.005249 1668.101929,1778.008057 1668.267700,1776.598389 
	C1666.187500,1774.362183 1664.107178,1772.126099 1661.991333,1770.001465 
	C1661.991333,1770.001465 1662.108154,1770.003906 1662.301270,1768.591309 
	C1660.212036,1766.355225 1658.122925,1764.119019 1655.995605,1761.996338 
	C1655.995605,1761.996338 1656.115234,1761.999390 1656.330811,1760.584473 
	C1654.234009,1758.348511 1652.137207,1756.112427 1649.996704,1753.994019 
	C1649.996704,1753.994019 1650.122192,1753.995117 1650.365479,1752.577393 
	C1648.259521,1750.341309 1646.153564,1748.105103 1644.001221,1745.988525 
	C1644.001221,1745.988525 1644.129517,1745.992432 1644.414062,1744.605835 
	C1642.244019,1741.730225 1640.073975,1738.854614 1638.018921,1735.990234 
	C1638.018921,1735.990234 1637.992065,1736.102661 1637.747681,1734.733398 
	C1632.505859,1728.452759 1627.264160,1722.172119 1621.989624,1716.002930 
	C1621.989624,1716.002930 1622.105713,1716.006104 1622.281250,1714.594238 
	C1620.197510,1712.358032 1618.113770,1710.121826 1615.992798,1707.999390 
	C1615.992798,1707.999390 1616.112671,1708.001709 1616.317139,1706.587769 
	C1614.223633,1704.351807 1612.130127,1702.115723 1609.996338,1699.995117 
	C1609.996338,1699.995117 1610.118652,1699.997559 1610.349487,1698.581055 
M1433.632446,1557.194458 
	C1434.686890,1555.907715 1435.800659,1554.664673 1436.787109,1553.327637 
	C1473.367676,1503.744873 1509.940308,1454.156006 1546.498901,1404.557007 
	C1549.024048,1401.131104 1551.434082,1397.620361 1554.017944,1393.979492 
	C1547.927368,1385.859985 1542.260254,1378.304932 1536.120117,1370.119385 
	C1533.781494,1372.953491 1532.255859,1374.638062 1530.911377,1376.456665 
	C1510.736450,1403.745117 1490.644897,1431.095581 1470.406616,1458.337158 
	C1457.914307,1475.152466 1445.206909,1491.807617 1432.386108,1506.565186 
	C1432.320435,1446.072144 1432.254761,1385.579102 1432.189087,1325.138794 
	C1424.010620,1325.138794 1417.270508,1325.138794 1410.594604,1325.138794 
	C1410.594604,1412.767212 1410.594604,1499.505371 1410.594604,1586.243530 
	C1411.129883,1586.487671 1411.665039,1586.731689 1412.200317,1586.975830 
	C1419.004761,1577.305786 1425.809326,1567.635742 1433.632446,1557.194458 
M1210.240967,1490.486328 
	C1210.246948,1611.416382 1210.250244,1732.346436 1210.274536,1853.276489 
	C1210.275146,1856.265503 1210.492554,1859.255493 1210.658691,1862.242188 
	C1210.673462,1862.510254 1211.049194,1862.764160 1211.270630,1863.012695 
	C1211.486328,1863.255005 1211.719238,1863.481934 1211.813354,1863.579468 
	C1223.135376,1863.579468 1234.297729,1863.579468 1246.208984,1863.579468 
	C1246.208984,1859.278076 1246.208984,1855.667114 1246.208984,1852.056152 
	C1246.208984,1734.457520 1246.212402,1616.858887 1246.192749,1499.260254 
	C1246.192139,1495.603027 1245.953369,1491.945923 1246.119507,1486.387573 
	C1246.119507,1475.903442 1246.119507,1465.419312 1246.119507,1454.714600 
	C1232.257935,1454.714600 1219.807617,1454.714600 1206.351074,1454.714600 
	C1206.351074,1465.159668 1206.208862,1475.037109 1206.522461,1484.900024 
	C1206.563843,1486.204468 1208.928345,1487.435059 1210.240967,1490.486328 
M904.924988,1486.800293 
	C904.924988,1476.248779 904.924988,1465.697144 904.924988,1454.730103 
	C762.963806,1454.730103 622.163330,1454.730103 481.020294,1454.730103 
	C481.020294,1466.091797 481.020294,1476.846069 481.020294,1488.273193 
	C485.755951,1488.273193 489.725098,1488.273193 493.694214,1488.273193 
	C614.688110,1488.273193 735.682068,1488.268677 856.675964,1488.291504 
	C861.000488,1488.292236 865.325012,1488.563721 869.693359,1490.466919 
	C869.693359,1518.887695 869.693359,1547.308594 869.693359,1576.377563 
	C882.069763,1576.751343 893.081665,1577.090332 904.195740,1576.219971 
	C904.195740,1545.956787 904.195740,1517.124023 904.924988,1486.800293 
M2136.852539,1864.967651 
	C2145.717773,1873.997192 2154.787842,1882.838135 2163.360840,1892.137085 
	C2167.553955,1896.684937 2172.039062,1898.406616 2178.225586,1898.400513 
	C2328.839355,1898.252075 2479.452881,1898.242310 2630.066406,1898.433594 
	C2636.390869,1898.441528 2640.576416,1896.269165 2644.809814,1891.979126 
	C2667.277588,1869.210205 2689.826416,1846.515503 2712.710205,1824.167114 
	C2717.916504,1819.082397 2719.932861,1813.987061 2719.921143,1806.720093 
	C2719.708252,1676.432983 2719.766113,1546.145386 2719.765625,1415.857910 
	C2719.765625,1413.858643 2719.979980,1411.826294 2719.688965,1409.869629 
	C2719.406738,1407.969849 2719.135742,1405.641968 2717.936768,1404.376343 
	C2711.637207,1397.725342 2705.044922,1391.351562 2698.554443,1384.881592 
	C2697.903320,1385.125244 2697.252441,1385.368896 2696.601318,1385.612671 
	C2696.601318,1389.133545 2696.601074,1392.654541 2696.601074,1396.175415 
	C2696.600830,1521.464600 2696.541504,1646.754028 2696.753418,1772.042847 
	C2696.765625,1779.325195 2694.681396,1784.438232 2689.491455,1789.508057 
	C2667.330811,1811.156494 2645.383057,1833.032471 2623.780273,1855.236328 
	C2617.763428,1861.420288 2611.645752,1864.055054 2602.876221,1864.038818 
	C2457.927734,1863.774048 2312.977783,1863.633789 2168.030762,1864.191772 
	C2153.801514,1864.246582 2143.822266,1860.516602 2134.334717,1849.998169 
	C2120.316895,1834.457642 2104.665527,1820.390503 2089.124268,1804.592163 
	C2083.532959,1798.885010 2078.211914,1792.874878 2072.264160,1787.567139 
	C2067.592041,1783.397583 2066.244385,1778.762085 2066.251465,1772.645508 
	C2066.405029,1642.080566 2066.414307,1511.515381 2066.225586,1380.950684 
	C2066.216309,1374.679443 2068.210938,1370.441528 2072.558105,1366.164062 
	C2095.111572,1343.972046 2117.402344,1321.512939 2139.752441,1299.114624 
	C2141.970459,1296.891846 2143.968750,1294.449951 2147.724854,1290.264771 
	C2137.108643,1290.264771 2128.919434,1290.524170 2120.755859,1290.176270 
	C2115.051514,1289.932983 2110.797607,1291.557739 2106.669922,1295.751831 
	C2083.307129,1319.489624 2059.733643,1343.022583 2036.025879,1366.416138 
	C2031.932129,1370.455566 2030.139160,1374.552246 2030.145752,1380.374756 
	C2030.293213,1511.605835 2030.289429,1642.837158 2030.153076,1774.068237 
	C2030.147339,1779.527344 2031.786133,1783.382324 2035.642456,1787.182739 
	C2056.518555,1807.755493 2077.157715,1828.568848 2097.880371,1849.297241 
	C2113.588623,1865.009888 2113.589844,1865.008667 2136.852539,1864.967651 
M2662.375244,1542.241577 
	C2662.418457,1495.775146 2662.468262,1449.308838 2662.477295,1402.842407 
	C2662.477539,1401.208130 2662.075195,1399.573730 2661.876221,1396.547485 
	C2661.066650,1395.130493 2660.499512,1393.485107 2659.411621,1392.330200 
	C2638.630127,1370.268677 2617.701904,1348.344360 2597.042236,1326.170166 
	C2593.594971,1322.470093 2589.788574,1322.242188 2585.388672,1322.243530 
	C2452.477295,1322.284058 2319.565918,1322.307861 2186.654541,1322.173950 
	C2180.876709,1322.168213 2176.731689,1323.850220 2172.705566,1328.011108 
	C2154.638428,1346.681885 2136.564941,1365.367188 2117.862305,1383.391968 
	C2110.992188,1390.012939 2108.396484,1397.192749 2108.425537,1406.296753 
	C2108.563721,1449.600708 2108.475586,1492.905396 2108.513916,1536.209839 
	C2108.516357,1539.097534 2108.898438,1541.985107 2109.111328,1544.978027 
	C2172.952637,1544.978027 2236.029541,1544.978027 2300.225098,1544.978027 
	C2300.225098,1525.130859 2300.225098,1505.992920 2300.225098,1487.044922 
	C2315.091064,1485.118774 2462.555908,1485.718750 2470.698975,1487.877686 
	C2470.698975,1506.712524 2470.698975,1525.856934 2470.698975,1545.069580 
	C2473.068604,1545.370117 2474.360596,1545.676636 2475.652588,1545.677246 
	C2535.945801,1545.704346 2596.238770,1545.718750 2656.531982,1545.639160 
	C2658.302734,1545.636841 2660.071777,1544.613403 2662.375244,1542.241577 
M469.716858,2093.000000 
	C469.716858,2117.186279 469.716858,2141.372559 469.716858,2165.830811 
	C473.780487,2166.025391 476.401794,2166.261230 479.023010,2166.260742 
	C1223.251099,2166.110352 1967.479248,2165.943115 2711.707275,2165.754883 
	C2711.973633,2165.754883 2712.266602,2165.457764 2712.499268,2165.246826 
	C2712.743652,2165.025146 2712.930176,2164.739990 2712.969727,2164.691895 
	C2712.969727,2119.335938 2712.969727,2074.193115 2712.969727,2028.816406 
	C1965.120728,2028.816406 1218.020508,2028.816406 469.716583,2028.816406 
	C469.716583,2049.884033 469.716583,2070.441895 469.716858,2093.000000 
M2650.076416,1769.022827 
	C2651.256592,1767.847046 2652.311523,1766.501343 2653.637939,1765.523804 
	C2660.661377,1760.347900 2662.596680,1753.591553 2662.453857,1744.880249 
	C2661.941162,1713.570801 2662.263672,1682.247681 2662.234375,1650.929810 
	C2662.231689,1648.044067 2661.973633,1645.158447 2661.837891,1642.347656 
	C2597.755371,1642.347656 2534.340576,1642.347656 2470.160645,1642.347656 
	C2470.160645,1651.175415 2470.160645,1659.365479 2470.160645,1667.560547 
	C2413.001709,1667.560547 2356.615967,1667.560547 2299.479736,1667.560547 
	C2299.479736,1658.663086 2299.479736,1650.474365 2299.479736,1642.000977 
	C2235.838623,1642.000977 2172.953857,1642.000977 2109.822510,1642.000977 
	C2109.544434,1643.550537 2109.118896,1644.819946 2109.117676,1646.089722 
	C2109.085449,1681.072510 2109.210938,1716.055908 2108.970703,1751.037109 
	C2108.936279,1756.056152 2111.266357,1759.006958 2114.410645,1762.134521 
	C2134.725098,1782.340454 2155.052734,1802.534790 2175.152588,1822.952759 
	C2178.937256,1826.797363 2182.737793,1828.446167 2188.191162,1828.440308 
	C2319.792969,1828.297974 2451.394775,1828.298096 2582.996582,1828.440674 
	C2588.430176,1828.446655 2592.285400,1826.867676 2596.062500,1823.032227 
	C2613.594482,1805.230591 2631.378418,1787.677002 2650.076416,1769.022827 
M1050.185425,1735.185425 
	C1062.437012,1722.935547 1074.610596,1710.605957 1086.992188,1698.488770 
	C1090.312012,1695.239868 1091.848755,1691.858643 1091.842651,1687.114502 
	C1091.726685,1595.825439 1091.762085,1504.536133 1091.728271,1413.246948 
	C1091.727417,1410.953003 1092.129639,1408.004150 1090.926758,1406.476074 
	C1084.870361,1398.782104 1077.808594,1392.040649 1070.444702,1385.678345 
	C1069.736328,1385.968262 1069.027954,1386.258179 1068.319580,1386.548096 
	C1068.319580,1390.083862 1068.319580,1393.619629 1068.319580,1397.155396 
	C1068.319580,1481.114746 1068.227051,1565.074463 1068.482422,1649.033081 
	C1068.504639,1656.340576 1066.351807,1661.396484 1061.181885,1666.453125 
	C1038.555908,1688.583374 1016.166443,1710.962524 994.060425,1733.611694 
	C988.960876,1738.836548 983.799194,1740.790894 976.557312,1740.773438 
	C883.269653,1740.548706 789.981201,1740.624756 696.692993,1740.624756 
	C692.789307,1740.624756 688.885559,1740.624756 683.696655,1740.624756 
	C683.696655,1782.245361 683.696655,1822.663696 683.696655,1864.181641 
	C635.965881,1864.181641 589.519348,1864.181641 542.437683,1864.181641 
	C542.331177,1876.108887 541.755371,1886.900024 542.736328,1897.632324 
	C597.660522,1897.632324 651.482666,1897.632324 706.462036,1897.632324 
	C706.462036,1856.880981 706.462036,1816.761963 706.462036,1775.750122 
	C711.550903,1775.750122 715.484131,1775.750244 719.417358,1775.750244 
	C813.038757,1775.750244 906.660217,1775.700073 1000.281372,1775.859863 
	C1006.711243,1775.870850 1011.535583,1774.363037 1016.086914,1769.515747 
	C1026.800537,1758.105835 1038.114502,1747.259766 1050.185425,1735.185425 
M520.114075,1840.966309 
	C519.973694,1726.086670 519.833618,1611.207031 519.672302,1496.327393 
	C519.671936,1496.057983 519.390686,1495.762085 519.184937,1495.527466 
	C518.967773,1495.280029 518.683594,1495.091309 517.700562,1494.264526 
	C512.805969,1494.264526 507.177948,1494.211426 501.551392,1494.279663 
	C496.024628,1494.346680 490.499298,1494.537109 485.170624,1494.668457 
	C482.976990,1512.586670 483.859833,1856.934448 485.925659,1863.534912 
	C497.139435,1863.534912 508.288300,1863.534912 520.114197,1863.534912 
	C520.114197,1856.180908 520.114197,1849.567505 520.114075,1840.966309 
M2428.753418,1631.673218 
	C2432.329590,1631.673218 2435.905518,1631.673218 2439.644531,1631.673218 
	C2439.644531,1595.010254 2439.644531,1559.298950 2439.644531,1523.684814 
	C2402.744873,1523.684814 2366.583252,1523.684814 2330.480469,1523.684814 
	C2330.480469,1559.849609 2330.480469,1595.362427 2330.480469,1631.673218 
	C2362.966797,1631.673218 2394.887939,1631.673218 2428.753418,1631.673218 
M1725.794312,1579.297119 
	C1728.044189,1581.805420 1729.160767,1585.526733 1732.928223,1586.829712 
	C1732.928223,1487.803467 1732.928223,1389.437744 1732.928223,1290.875732 
	C1721.024414,1290.875732 1709.869751,1290.875732 1698.283813,1290.875732 
	C1698.062988,1294.041504 1697.725220,1296.632080 1697.724365,1299.222656 
	C1697.696411,1377.479370 1697.742920,1455.736084 1697.610107,1533.992554 
	C1697.601074,1539.307129 1699.022339,1543.585693 1702.223877,1547.736206 
	C1709.949341,1557.751831 1717.394409,1567.983643 1725.794312,1579.297119 
M1178.433228,1454.289917 
	C1186.031738,1455.233154 1185.050171,1449.880493 1185.050293,1445.261108 
	C1185.052002,1396.935181 1185.065796,1348.609253 1185.016602,1300.283325 
	C1185.013306,1297.116821 1184.522217,1293.950928 1184.226196,1290.404053 
	C1171.655518,1290.291748 1160.186035,1290.009033 1148.979004,1290.533936 
	C1148.979004,1345.859741 1148.979004,1399.697632 1148.979004,1454.292603 
	C1158.637085,1454.292603 1167.597168,1454.292603 1178.433228,1454.289917 
M448.678162,1290.264893 
	C440.148346,1290.264893 431.618530,1290.264893 422.805664,1290.264893 
	C422.805664,1345.495483 422.805664,1399.304810 422.805664,1453.580322 
	C434.767242,1453.580322 446.174286,1453.580322 457.825287,1453.580322 
	C457.825287,1399.056030 457.825287,1345.245605 457.825287,1290.938232 
	C455.073090,1290.683105 452.826050,1290.474731 448.678162,1290.264893 
M683.918396,1562.809082 
	C683.918396,1567.329224 683.918396,1571.849243 683.918396,1576.632812 
	C692.020264,1576.632812 698.779602,1576.632812 705.608643,1576.632812 
	C705.608643,1560.807861 705.608643,1545.720459 705.608643,1530.469971 
	C698.189209,1530.469971 691.457214,1530.469971 683.918274,1530.469971 
	C683.918274,1541.086792 683.918274,1550.976440 683.918396,1562.809082 
z"/>
<path fill="#CE2D32" opacity="1.000000" stroke="none" 
	d="
M469.716736,2092.000000 
	C469.716583,2070.441895 469.716583,2049.884033 469.716583,2028.816406 
	C1218.020508,2028.816406 1965.120728,2028.816406 2712.969727,2028.816406 
	C2712.969727,2074.193115 2712.969727,2119.335938 2712.969727,2164.691895 
	C2712.930176,2164.739990 2712.743652,2165.025146 2712.499268,2165.246826 
	C2712.266602,2165.457764 2711.973633,2165.754883 2711.707275,2165.754883 
	C1967.479248,2165.943115 1223.251099,2166.110352 479.023010,2166.260742 
	C476.401794,2166.261230 473.780487,2166.025391 469.716858,2165.830811 
	C469.716858,2141.372559 469.716858,2117.186279 469.716736,2092.000000 
M2642.432129,2115.565186 
	C2641.446045,2114.100098 2640.720459,2111.742676 2639.417725,2111.362305 
	C2636.949951,2110.641602 2634.151123,2111.008301 2631.489746,2111.005127 
	C2617.923340,2110.988037 2604.357178,2110.997070 2590.098389,2110.997070 
	C2589.565674,2100.279053 2589.413574,2090.566650 2590.180664,2080.350342 
	C2600.934814,2080.350342 2610.552490,2080.326904 2620.170410,2080.365479 
	C2622.785645,2080.375977 2624.892822,2081.020020 2623.409912,2085.568115 
	C2614.341309,2085.568115 2604.890625,2085.568115 2594.991211,2085.568115 
	C2594.991211,2092.826416 2594.991211,2098.940918 2594.991211,2104.792480 
	C2596.171143,2105.311523 2596.755859,2105.788330 2597.345459,2105.794922 
	C2606.995850,2105.902100 2616.646973,2106.000000 2626.297852,2105.999023 
	C2639.188965,2105.997559 2645.337158,2099.660645 2645.376465,2086.455078 
	C2645.386230,2083.125488 2645.448975,2079.793945 2645.363281,2076.466553 
	C2645.134766,2067.589111 2637.915527,2060.111328 2629.194336,2060.034180 
	C2614.545166,2059.904297 2599.893555,2059.912109 2585.244385,2060.030518 
	C2576.362061,2060.102539 2569.172363,2067.354736 2569.075439,2076.348145 
	C2568.939209,2088.999023 2568.971191,2101.652832 2569.061279,2114.304443 
	C2569.134766,2124.637207 2576.062256,2131.632568 2586.298828,2131.683838 
	C2602.613525,2131.765381 2618.928711,2131.735107 2635.243164,2131.667969 
	C2637.459473,2131.658936 2639.673584,2131.165283 2642.448486,2130.827881 
	C2642.448486,2126.015137 2642.448486,2121.712402 2642.432129,2115.565186 
M1019.297546,2117.685791 
	C1019.728760,2113.285645 1018.397583,2110.845215 1013.311768,2110.933838 
	C1000.654968,2111.154297 987.991455,2111.043213 975.331177,2110.963135 
	C972.474548,2110.944824 969.620605,2110.510498 966.722046,2110.263672 
	C966.722046,2100.004883 966.722046,2090.551025 966.722046,2081.192139 
	C984.338989,2079.079834 995.691467,2079.751709 1001.931763,2083.852295 
	C991.636963,2087.678711 981.559143,2084.125732 971.931763,2086.342041 
	C971.931763,2092.809326 971.931763,2099.182861 971.931763,2106.010986 
	C983.104065,2106.010986 993.414185,2106.050537 1003.723816,2106.000488 
	C1015.208313,2105.944580 1021.743896,2099.217529 1021.812622,2087.473877 
	C1021.832153,2084.142090 1021.849548,2080.809814 1021.808472,2077.478516 
	C1021.681580,2067.184082 1014.789429,2060.082764 1004.661865,2060.020508 
	C990.668945,2059.934326 976.674805,2059.938477 962.681885,2060.018311 
	C952.331116,2060.077148 945.778320,2066.845947 945.724304,2077.465820 
	C945.661682,2089.793213 945.649780,2102.121338 945.726440,2114.448486 
	C945.791138,2124.845459 952.592102,2131.640869 963.010803,2131.686523 
	C979.336121,2131.757812 995.662170,2131.733887 1011.987549,2131.671387 
	C1014.185913,2131.662842 1016.382629,2131.195801 1019.299255,2130.857422 
	C1019.299255,2126.662598 1019.299255,2123.051270 1019.297546,2117.685791 
M1224.577148,2076.241699 
	C1223.103394,2074.611084 1221.629639,2072.980225 1219.660400,2070.801270 
	C1213.245117,2079.187012 1207.340210,2086.905518 1201.435181,2094.624023 
	C1200.788208,2094.379639 1200.141357,2094.135254 1199.494385,2093.890869 
	C1199.494385,2082.779053 1199.494385,2071.666992 1199.494385,2060.514648 
	C1189.895996,2060.514648 1181.365723,2060.514648 1172.332031,2060.514648 
	C1172.332031,2067.201172 1172.332031,2073.371338 1172.332031,2079.429443 
	C1174.840698,2080.163086 1176.966919,2080.784668 1179.581665,2081.549316 
	C1179.581665,2090.239746 1179.361572,2098.539795 1179.644165,2106.822510 
	C1179.921997,2114.967773 1178.366943,2123.259277 1180.693115,2131.187500 
	C1199.154541,2132.527832 1199.044922,2132.445068 1209.813110,2118.188477 
	C1213.076416,2113.867920 1215.286865,2108.441406 1220.812378,2105.518311 
	C1224.489502,2110.456299 1227.871826,2114.979492 1231.234497,2119.517334 
	C1240.757935,2132.368652 1240.755249,2132.380371 1256.493286,2131.642090 
	C1257.432861,2131.597900 1258.356812,2131.220703 1259.684814,2130.903564 
	C1259.684814,2107.389160 1259.684814,2084.007568 1259.684814,2060.788574 
	C1252.823486,2060.788574 1246.716431,2060.788574 1239.880737,2060.788574 
	C1239.880737,2072.374268 1239.880737,2083.190430 1239.880737,2094.006592 
	C1239.348389,2094.220703 1238.815918,2094.434570 1238.283569,2094.648682 
	C1234.010010,2088.894043 1229.736328,2083.139160 1224.577148,2076.241699 
M1334.683472,2131.644287 
	C1351.630005,2131.673828 1368.577393,2131.806152 1385.522827,2131.687988 
	C1393.511719,2131.632324 1401.304565,2123.931885 1401.414062,2115.974854 
	C1401.596924,2102.685303 1401.578735,2089.390625 1401.424072,2076.100342 
	C1401.323120,2067.415039 1393.777588,2060.065186 1384.976807,2060.000977 
	C1369.692017,2059.889404 1354.405151,2059.895508 1339.120239,2059.997803 
	C1329.788452,2060.060059 1322.482178,2067.434814 1322.384644,2076.816895 
	C1322.277466,2087.116943 1323.042480,2097.477295 1322.168335,2107.703857 
	C1321.283936,2118.049072 1324.512817,2125.701660 1334.683472,2131.644287 
M2491.484131,2059.981934 
	C2487.499756,2059.679932 2486.301025,2061.815430 2486.376221,2065.454834 
	C2486.499756,2071.449219 2486.543213,2077.452881 2486.344482,2083.443604 
	C2486.232910,2086.807861 2487.313721,2090.467773 2484.734131,2094.366455 
	C2475.886719,2082.542725 2467.540527,2071.388672 2459.281982,2060.351807 
	C2449.967041,2060.351807 2441.039795,2060.351807 2431.479004,2060.351807 
	C2431.479004,2066.905518 2431.479004,2073.084961 2431.479004,2079.352051 
	C2433.749023,2080.106201 2435.848389,2080.803711 2438.311279,2081.621826 
	C2438.656738,2098.322266 2438.107666,2114.831055 2438.604248,2131.003906 
	C2446.253906,2131.003906 2452.399658,2131.003906 2459.820068,2131.003906 
	C2459.820068,2119.663574 2459.820068,2109.027588 2459.820068,2098.391602 
	C2468.808594,2107.583496 2475.793457,2117.235840 2483.108643,2126.631104 
	C2484.778076,2128.775635 2487.438477,2131.140869 2489.902588,2131.471680 
	C2495.332520,2132.201172 2500.927490,2131.698486 2506.684814,2131.698486 
	C2506.684814,2107.198242 2506.684814,2084.030518 2506.684814,2059.971191 
	C2501.850098,2059.971191 2497.582031,2059.971191 2491.484131,2059.981934 
M748.002075,2117.694580 
	C748.004211,2103.724121 748.111877,2089.752686 747.968506,2075.783691 
	C747.884033,2067.558594 740.459656,2060.116211 732.247070,2060.042236 
	C716.614746,2059.901855 700.979492,2059.913818 685.346802,2060.032471 
	C676.856689,2060.096924 669.664734,2067.136230 669.564941,2075.535400 
	C669.406860,2088.838623 669.424377,2102.146484 669.552124,2115.450439 
	C669.638489,2124.439697 676.806946,2131.598145 685.770508,2131.674805 
	C699.407349,2131.791260 713.078796,2131.125244 726.673157,2131.894287 
	C737.067017,2132.482178 743.708313,2128.456299 748.002075,2117.694580 
M2015.840210,2060.002930 
	C1999.543335,2060.001953 1983.245483,2059.895020 1966.949951,2060.045898 
	C1959.255371,2060.116943 1951.860962,2067.481201 1951.763672,2075.158203 
	C1951.591064,2088.792480 1951.594971,2102.431396 1951.753296,2116.065674 
	C1951.847412,2124.177734 1959.410034,2131.591553 1967.631592,2131.664307 
	C1982.929443,2131.799805 1998.229980,2131.781982 2013.528320,2131.675049 
	C2022.935791,2131.609131 2030.073730,2124.309814 2030.148926,2114.767822 
	C2030.243408,2102.795410 2029.708862,2090.798096 2030.314697,2078.855713 
	C2030.818115,2068.931641 2025.837769,2063.583496 2015.840210,2060.002930 
M2163.737549,2120.633057 
	C2163.737549,2100.751465 2163.737549,2080.869873 2163.737549,2060.503174 
	C2156.478027,2060.503174 2150.311768,2060.503174 2143.895508,2060.503174 
	C2141.712891,2071.545654 2144.718750,2082.769043 2141.671387,2095.203125 
	C2133.620361,2084.312500 2126.866943,2074.866455 2119.723633,2065.725586 
	C2117.859131,2063.339844 2114.906982,2060.535400 2112.235596,2060.288086 
	C2104.404297,2059.563721 2096.462402,2060.030273 2088.125977,2060.030273 
	C2088.125977,2066.942871 2088.125977,2072.827881 2088.125977,2079.150146 
	C2090.218506,2079.983398 2092.499268,2080.891357 2095.450195,2082.066406 
	C2095.450195,2098.563965 2095.450195,2114.786133 2095.450195,2131.106201 
	C2102.509521,2131.106201 2108.671631,2131.106201 2115.996582,2131.106201 
	C2115.996582,2119.543213 2115.996582,2108.533691 2115.996582,2097.524414 
	C2124.966309,2107.040527 2132.143311,2116.946533 2139.644287,2126.601318 
	C2141.313721,2128.750000 2143.972168,2131.125732 2146.436768,2131.457764 
	C2151.867676,2132.189697 2157.465332,2131.685059 2163.312500,2131.685059 
	C2163.494629,2127.756104 2163.615723,2125.143066 2163.737549,2120.633057 
M1471.458618,2131.699951 
	C1476.320312,2131.699951 1481.181885,2131.699951 1486.262085,2131.699951 
	C1486.766113,2125.952393 1487.161377,2121.447510 1487.526855,2117.281006 
	C1495.907227,2114.133057 1501.470581,2117.119385 1506.579834,2122.866455 
	C1509.577759,2126.238525 1513.219727,2130.375488 1517.203003,2131.230957 
	C1523.680542,2132.622559 1530.675171,2131.606445 1539.360229,2131.606445 
	C1533.698730,2125.376709 1529.571167,2120.834717 1525.330322,2116.168213 
	C1526.603882,2114.619629 1527.269531,2113.411865 1528.274414,2112.654297 
	C1533.873901,2108.434570 1535.492432,2102.900391 1534.944336,2096.043701 
	C1534.415283,2089.424072 1534.938110,2082.727295 1534.799805,2076.068359 
	C1534.613281,2067.093994 1527.480835,2060.083252 1518.385498,2060.024902 
	C1503.064331,2059.926514 1487.742065,2059.998047 1472.420288,2059.998047 
	C1468.173706,2059.998047 1463.927246,2059.998047 1459.125732,2059.998047 
	C1459.125732,2067.124756 1459.125732,2073.249023 1459.125732,2080.324219 
	C1477.505615,2080.324219 1495.344971,2080.324219 1513.413574,2080.324219 
	C1513.413574,2085.983887 1513.413574,2090.672852 1513.413574,2095.331055 
	C1504.359009,2095.331055 1496.140015,2095.331055 1487.737915,2095.331055 
	C1487.123047,2092.014648 1486.592041,2089.150391 1486.057495,2086.267578 
	C1479.500610,2086.267578 1473.322754,2086.267578 1466.303467,2086.267578 
	C1466.303467,2100.420166 1466.207642,2114.005127 1466.450684,2127.584229 
	C1466.475098,2128.955811 1468.546753,2130.290771 1471.458618,2131.699951 
M1776.244019,2087.407715 
	C1776.244019,2094.969727 1776.244019,2102.531494 1776.244019,2110.257324 
	C1766.681763,2110.257324 1758.258667,2110.257324 1748.637573,2110.257324 
	C1748.637573,2101.780518 1748.637573,2094.011230 1748.637573,2086.359619 
	C1741.272827,2086.359619 1735.131348,2086.359619 1728.256714,2086.359619 
	C1728.256714,2094.279297 1728.213989,2101.539307 1728.268433,2108.798828 
	C1728.324585,2116.283203 1728.475220,2123.766846 1728.591064,2131.705811 
	C1746.515869,2131.705811 1763.122803,2131.768555 1779.728882,2131.682617 
	C1789.848633,2131.630127 1796.727661,2124.566406 1796.807129,2114.183105 
	C1796.901367,2101.878906 1796.892700,2089.572998 1796.809082,2077.268799 
	C1796.737915,2066.810303 1790.023193,2060.058350 1779.630981,2060.016602 
	C1762.337891,2059.947266 1745.044067,2059.968262 1727.750854,2060.035156 
	C1725.562012,2060.043701 1723.374878,2060.558105 1721.350098,2060.817383 
	C1721.350098,2067.613525 1721.350098,2073.698975 1721.350098,2080.329102 
	C1725.448975,2080.329102 1728.753052,2080.328613 1732.057251,2080.329102 
	C1744.694824,2080.331055 1757.332764,2080.399170 1769.969482,2080.295410 
	C1773.725464,2080.264648 1776.703857,2080.689209 1776.244019,2087.407715 
M545.702209,2131.695801 
	C550.859192,2131.584961 556.016235,2131.474365 561.172302,2131.363770 
	C561.500183,2125.714111 561.747437,2121.453125 562.055481,2116.145508 
	C572.682129,2116.145508 582.928284,2116.239502 593.171936,2116.117188 
	C602.011475,2116.011475 609.350708,2108.691406 609.503845,2099.869141 
	C609.636780,2092.206787 609.615601,2084.539307 609.512817,2076.876221 
	C609.385681,2067.395508 602.162598,2060.078857 592.739014,2060.025391 
	C575.744141,2059.928711 558.748230,2059.975342 541.752930,2060.022461 
	C539.195923,2060.029541 536.639832,2060.363281 533.860718,2060.562012 
	C533.860718,2067.306152 533.860718,2073.479004 533.860718,2080.647949 
	C552.270996,2080.647949 570.126160,2080.647949 587.988647,2080.647949 
	C587.988647,2086.131592 587.988647,2090.602051 587.988647,2095.385742 
	C579.052490,2095.385742 570.846619,2095.385742 562.256042,2095.385742 
	C561.791321,2092.181641 561.381165,2089.353516 560.915833,2086.145020 
	C554.232727,2086.145020 548.043701,2086.145020 540.874023,2086.145020 
	C540.874023,2100.464355 540.803772,2114.381592 541.006042,2128.294922 
	C541.022400,2129.418945 542.909302,2130.515381 545.702209,2131.695801 
M817.689758,2131.724121 
	C822.839905,2131.587158 827.990051,2131.450439 834.080627,2131.288574 
	C834.080627,2122.200439 834.080627,2114.384521 834.080627,2106.346191 
	C840.347046,2106.346191 845.601929,2106.346191 851.296204,2106.346191 
	C855.257812,2114.752441 859.186768,2123.089111 862.901184,2130.970703 
	C870.466553,2130.970703 877.184692,2130.970703 885.125122,2130.970703 
	C881.620667,2123.291260 878.588257,2116.720947 875.618103,2110.123047 
	C867.668213,2092.462158 867.575134,2099.233398 875.453125,2081.762695 
	C878.541931,2074.912842 881.588196,2068.043945 884.996521,2060.416748 
	C876.707520,2060.416748 869.833740,2060.416748 863.027710,2060.416748 
	C858.774170,2069.072021 854.709900,2077.342041 850.944824,2085.003418 
	C844.677856,2085.003418 839.504150,2085.003418 833.362732,2085.003418 
	C833.362732,2076.535156 833.362732,2068.693848 833.362732,2060.571777 
	C823.593201,2060.571777 814.823853,2060.571777 805.651245,2060.571777 
	C805.651245,2067.081299 805.651245,2072.995117 805.651245,2079.283936 
	C807.766846,2079.960693 809.842651,2080.625000 812.705261,2081.540771 
	C812.705261,2084.878662 812.705200,2088.144531 812.705322,2091.410645 
	C812.705627,2102.392090 812.633545,2113.374268 812.757263,2124.354492 
	C812.788208,2127.095703 811.594421,2130.644531 817.689758,2131.724121 
M1667.463501,2128.230713 
	C1667.463501,2122.727295 1667.463501,2117.223877 1667.463501,2110.853271 
	C1651.664551,2110.853271 1637.188599,2110.853271 1621.501709,2110.853271 
	C1621.501709,2093.547607 1621.501709,2077.141113 1621.501709,2060.619141 
	C1611.500366,2060.619141 1602.744873,2060.619141 1593.624756,2060.619141 
	C1593.624756,2067.170166 1593.624756,2073.076416 1593.624756,2079.300781 
	C1595.805176,2079.994141 1597.886963,2080.655762 1600.959961,2081.632812 
	C1600.959961,2098.094238 1600.959961,2114.557373 1600.959961,2131.533447 
	C1622.925049,2131.533447 1643.793091,2131.550781 1664.660522,2131.467529 
	C1665.465576,2131.464355 1666.266602,2130.493408 1667.463501,2128.230713 
M2295.537842,2121.082031 
	C2295.356689,2117.920654 2295.175293,2114.759521 2294.944580,2110.732910 
	C2279.534912,2110.732910 2265.068115,2110.732910 2249.392090,2110.732910 
	C2249.392090,2093.408936 2249.392090,2076.994141 2249.392090,2060.695801 
	C2239.389404,2060.695801 2230.640869,2060.695801 2221.582031,2060.695801 
	C2221.582031,2067.331543 2221.582031,2073.241211 2221.582031,2079.324951 
	C2223.906006,2080.077393 2225.998535,2080.754883 2229.072266,2081.749756 
	C2229.072266,2098.238037 2229.072266,2114.690430 2229.072266,2131.148926 
	C2251.623291,2131.148926 2273.068115,2131.148926 2295.025635,2131.148926 
	C2295.218750,2128.021973 2295.378174,2125.441895 2295.537842,2121.082031 
M2373.714844,2069.401123 
	C2373.531982,2066.512695 2373.348877,2063.624268 2373.153809,2060.545898 
	C2366.271484,2060.545898 2360.120605,2060.545898 2353.039307,2060.545898 
	C2353.173096,2084.473389 2352.707031,2107.849609 2353.335938,2130.909180 
	C2360.909912,2130.909180 2367.036133,2130.909180 2373.714844,2130.909180 
	C2373.714844,2110.519531 2373.714844,2090.921143 2373.714844,2069.401123 
z"/>
<path fill="#CE2C31" opacity="1.000000" stroke="none" 
	d="
M2661.841797,1544.066162 
	C2660.071777,1544.613403 2658.302734,1545.636841 2656.531982,1545.639160 
	C2596.238770,1545.718750 2535.945801,1545.704346 2475.652588,1545.677246 
	C2474.360596,1545.676636 2473.068604,1545.370117 2470.698975,1545.069580 
	C2470.698975,1525.856934 2470.698975,1506.712524 2470.698975,1487.877686 
	C2462.555908,1485.718750 2315.091064,1485.118774 2300.225098,1487.044922 
	C2300.225098,1505.992920 2300.225098,1525.130859 2300.225098,1544.978027 
	C2236.029541,1544.978027 2172.952637,1544.978027 2109.111328,1544.978027 
	C2108.898438,1541.985107 2108.516357,1539.097534 2108.513916,1536.209839 
	C2108.475586,1492.905396 2108.563721,1449.600708 2108.425537,1406.296753 
	C2108.396484,1397.192749 2110.992188,1390.012939 2117.862305,1383.391968 
	C2136.564941,1365.367188 2154.638428,1346.681885 2172.705566,1328.011108 
	C2176.731689,1323.850220 2180.876709,1322.168213 2186.654541,1322.173950 
	C2319.565918,1322.307861 2452.477295,1322.284058 2585.388672,1322.243530 
	C2589.788574,1322.242188 2593.594971,1322.470093 2597.042236,1326.170166 
	C2617.701904,1348.344360 2638.630127,1370.268677 2659.411621,1392.330200 
	C2660.499512,1393.485107 2661.066650,1395.130493 2661.295654,1397.857178 
	C2660.464844,1400.790283 2659.997559,1402.413330 2659.995850,1404.036987 
	C2659.955322,1448.239868 2659.931885,1492.442749 2660.041748,1536.645264 
	C2660.047852,1539.120361 2661.214844,1541.592651 2661.841797,1544.066162 
z"/>
<path fill="#FFFFFF" opacity="1.000000" stroke="none" 
	d="
M2649.574219,1769.528687 
	C2631.378418,1787.677002 2613.594482,1805.230591 2596.062500,1823.032227 
	C2592.285400,1826.867676 2588.430176,1828.446655 2582.996582,1828.440674 
	C2451.394775,1828.298096 2319.792969,1828.297974 2188.191162,1828.440308 
	C2182.737793,1828.446167 2178.937256,1826.797363 2175.152588,1822.952759 
	C2155.052734,1802.534790 2134.725098,1782.340454 2114.410645,1762.134521 
	C2111.266357,1759.006958 2108.936279,1756.056152 2108.970703,1751.037109 
	C2109.210938,1716.055908 2109.085449,1681.072510 2109.117676,1646.089722 
	C2109.118896,1644.819946 2109.544434,1643.550537 2109.822510,1642.000977 
	C2172.953857,1642.000977 2235.838623,1642.000977 2299.479736,1642.000977 
	C2299.479736,1650.474365 2299.479736,1658.663086 2299.479736,1667.560547 
	C2356.615967,1667.560547 2413.001709,1667.560547 2470.160645,1667.560547 
	C2470.160645,1659.365479 2470.160645,1651.175415 2470.160645,1642.347656 
	C2534.340576,1642.347656 2597.755371,1642.347656 2661.837891,1642.347656 
	C2661.973633,1645.158447 2662.231689,1648.044067 2662.234375,1650.929810 
	C2662.263672,1682.247681 2661.941162,1713.570801 2662.453857,1744.880249 
	C2662.596680,1753.591553 2660.661377,1760.347900 2653.637939,1765.523804 
	C2652.311523,1766.501343 2651.256592,1767.847046 2649.574219,1769.528687 
z"/>
<path fill="#4B6795" opacity="1.000000" stroke="none" 
	d="
M2089.709717,1805.696045 
	C2104.665527,1820.390503 2120.316895,1834.457642 2134.334717,1849.998169 
	C2143.822266,1860.516602 2153.801514,1864.246582 2168.030762,1864.191772 
	C2312.977783,1863.633789 2457.927734,1863.774048 2602.876221,1864.038818 
	C2611.645752,1864.055054 2617.763428,1861.420288 2623.780273,1855.236328 
	C2645.383057,1833.032471 2667.330811,1811.156494 2689.491455,1789.508057 
	C2694.681396,1784.438232 2696.765625,1779.325195 2696.753418,1772.042847 
	C2696.541504,1646.754028 2696.600830,1521.464600 2696.601074,1396.175415 
	C2696.601074,1392.654541 2696.601318,1389.133545 2696.601318,1385.612671 
	C2697.252441,1385.368896 2697.903320,1385.125244 2698.554443,1384.881592 
	C2705.044922,1391.351562 2711.637207,1397.725342 2717.936768,1404.376343 
	C2719.135742,1405.641968 2719.406738,1407.969849 2719.688965,1409.869629 
	C2719.979980,1411.826294 2719.765625,1413.858643 2719.765625,1415.857910 
	C2719.766113,1546.145386 2719.708252,1676.432983 2719.921143,1806.720093 
	C2719.932861,1813.987061 2717.916504,1819.082397 2712.710205,1824.167114 
	C2689.826416,1846.515503 2667.277588,1869.210205 2644.809814,1891.979126 
	C2640.576416,1896.269165 2636.390869,1898.441528 2630.066406,1898.433594 
	C2479.452881,1898.242310 2328.839355,1898.252075 2178.225586,1898.400513 
	C2172.039062,1898.406616 2167.553955,1896.684937 2163.360840,1892.137085 
	C2154.787842,1882.838135 2145.717773,1873.997192 2136.156250,1863.866943 
	C2122.604004,1849.803711 2109.977539,1836.601196 2096.783203,1823.992676 
	C2091.278320,1818.731934 2088.155029,1813.316895 2089.709717,1805.696045 
z"/>
<path fill="#4B6896" opacity="1.000000" stroke="none" 
	d="
M1049.685547,1735.685547 
	C1038.114502,1747.259766 1026.800537,1758.105835 1016.086914,1769.515747 
	C1011.535583,1774.363037 1006.711243,1775.870850 1000.281372,1775.859863 
	C906.660217,1775.700073 813.038757,1775.750244 719.417358,1775.750244 
	C715.484131,1775.750244 711.550903,1775.750122 706.462036,1775.750122 
	C706.462036,1816.761963 706.462036,1856.880981 706.462036,1897.632324 
	C651.482666,1897.632324 597.660522,1897.632324 542.736328,1897.632324 
	C541.755371,1886.900024 542.331177,1876.108887 542.437683,1864.181641 
	C589.519348,1864.181641 635.965881,1864.181641 683.696655,1864.181641 
	C683.696655,1822.663696 683.696655,1782.245361 683.696655,1740.624756 
	C688.885559,1740.624756 692.789307,1740.624756 696.692993,1740.624756 
	C789.981201,1740.624756 883.269653,1740.548706 976.557312,1740.773438 
	C983.799194,1740.790894 988.960876,1738.836548 994.060425,1733.611694 
	C1016.166443,1710.962524 1038.555908,1688.583374 1061.181885,1666.453125 
	C1066.351807,1661.396484 1068.504639,1656.340576 1068.482422,1649.033081 
	C1068.227051,1565.074463 1068.319580,1481.114746 1068.319580,1397.155396 
	C1068.319580,1393.619629 1068.319580,1390.083862 1068.319580,1386.548096 
	C1069.027954,1386.258179 1069.736328,1385.968262 1070.444702,1385.678345 
	C1077.808594,1392.040649 1084.870361,1398.782104 1090.926758,1406.476074 
	C1092.129639,1408.004150 1091.727417,1410.953003 1091.728271,1413.246948 
	C1091.762085,1504.536133 1091.726685,1595.825439 1091.842651,1687.114502 
	C1091.848755,1691.858643 1090.312012,1695.239868 1086.992188,1698.488770 
	C1074.610596,1710.605957 1062.437012,1722.935547 1049.685547,1735.685547 
z"/>
<path fill="#CC2B30" opacity="1.000000" stroke="none" 
	d="
M2089.416992,1805.144043 
	C2088.155029,1813.316895 2091.278320,1818.731934 2096.783203,1823.992676 
	C2109.977539,1836.601196 2122.604004,1849.803711 2135.690918,1863.389404 
	C2113.589844,1865.008667 2113.588623,1865.009888 2097.880371,1849.297241 
	C2077.157715,1828.568848 2056.518555,1807.755493 2035.642456,1787.182739 
	C2031.786133,1783.382324 2030.147339,1779.527344 2030.153076,1774.068237 
	C2030.289429,1642.837158 2030.293213,1511.605835 2030.145752,1380.374756 
	C2030.139160,1374.552246 2031.932129,1370.455566 2036.025879,1366.416138 
	C2059.733643,1343.022583 2083.307129,1319.489624 2106.669922,1295.751831 
	C2110.797607,1291.557739 2115.051514,1289.932983 2120.755859,1290.176270 
	C2128.919434,1290.524170 2137.108643,1290.264771 2147.724854,1290.264771 
	C2143.968750,1294.449951 2141.970459,1296.891846 2139.752441,1299.114624 
	C2117.402344,1321.512939 2095.111572,1343.972046 2072.558105,1366.164062 
	C2068.210938,1370.441528 2066.216309,1374.679443 2066.225586,1380.950684 
	C2066.414307,1511.515381 2066.405029,1642.080566 2066.251465,1772.645508 
	C2066.244385,1778.762085 2067.592041,1783.397583 2072.264160,1787.567139 
	C2078.211914,1792.874878 2083.532959,1798.885010 2089.416992,1805.144043 
z"/>
<path fill="#4D6A99" opacity="1.000000" stroke="none" 
	d="
M1732.230103,1863.327026 
	C1735.218140,1863.508667 1738.206055,1863.846680 1741.194214,1863.848755 
	C1790.183350,1863.881592 1839.172363,1863.878662 1888.161499,1863.854126 
	C1890.779053,1863.852905 1893.396606,1863.589600 1897.162842,1863.386108 
	C1897.162842,1683.935669 1897.162842,1504.824219 1897.162842,1324.993164 
	C1905.115845,1324.993164 1911.906372,1324.993164 1918.638550,1324.993164 
	C1920.606323,1332.425049 1921.420410,1879.522827 1919.450439,1897.540283 
	C1916.798462,1897.769775 1913.948730,1898.229248 1911.098511,1898.231689 
	C1861.776123,1898.276001 1812.453613,1898.195679 1763.131836,1898.358887 
	C1757.640259,1898.377075 1753.841553,1897.069458 1750.650269,1892.220947 
	C1744.985474,1883.614380 1738.561768,1875.507202 1732.279297,1865.898438 
	C1732.145508,1864.179443 1732.187744,1863.753174 1732.230103,1863.327026 
z"/>
<path fill="#4C6997" opacity="1.000000" stroke="none" 
	d="
M1577.689819,1702.718506 
	C1556.444580,1731.307983 1535.143433,1759.856201 1513.968872,1788.497925 
	C1488.632202,1822.768799 1463.322876,1857.060669 1438.222778,1891.504761 
	C1434.758667,1896.258179 1431.161377,1898.431396 1425.101685,1898.402954 
	C1375.776978,1898.170776 1326.450562,1898.281128 1277.124756,1898.246704 
	C1274.543579,1898.244995 1271.962646,1897.875488 1268.838745,1897.635620 
	C1268.838745,1886.633179 1268.838745,1876.109863 1268.838745,1864.389648 
	C1272.306396,1864.215332 1275.807129,1863.889404 1279.307983,1863.886230 
	C1319.301880,1863.850098 1359.297119,1863.701294 1399.288696,1864.010620 
	C1406.601196,1864.067139 1411.316528,1862.213135 1415.875854,1855.983154 
	C1465.458862,1788.233643 1515.414917,1720.757080 1565.280762,1653.214478 
	C1567.035400,1650.837891 1568.908325,1648.548462 1571.538452,1645.177490 
	C1579.446167,1655.997559 1586.860474,1666.142700 1593.971558,1677.210327 
	C1593.052734,1679.132202 1592.437378,1680.131714 1591.590820,1681.794922 
	C1586.802856,1689.212036 1582.246338,1695.965210 1577.689819,1702.718506 
z"/>
<path fill="#4C6997" opacity="1.000000" stroke="none" 
	d="
M869.649536,1488.709106 
	C865.325012,1488.563721 861.000488,1488.292236 856.675964,1488.291504 
	C735.682068,1488.268677 614.688110,1488.273193 493.694214,1488.273193 
	C489.725098,1488.273193 485.755951,1488.273193 481.020294,1488.273193 
	C481.020294,1476.846069 481.020294,1466.091797 481.020294,1454.730103 
	C622.163330,1454.730103 762.963806,1454.730103 904.924988,1454.730103 
	C904.924988,1465.697144 904.924988,1476.248779 903.606018,1487.525391 
	C891.407898,1488.403320 880.528687,1488.556274 869.649536,1488.709106 
z"/>
<path fill="#CC2B30" opacity="1.000000" stroke="none" 
	d="
M1245.825562,1488.288696 
	C1245.953369,1491.945923 1246.192139,1495.603027 1246.192749,1499.260254 
	C1246.212402,1616.858887 1246.208984,1734.457520 1246.208984,1852.056152 
	C1246.208984,1855.667114 1246.208984,1859.278076 1246.208984,1863.579468 
	C1234.297729,1863.579468 1223.135376,1863.579468 1211.813354,1863.579468 
	C1211.719238,1863.481934 1211.486328,1863.255005 1211.270630,1863.012695 
	C1211.049194,1862.764160 1210.673462,1862.510254 1210.658691,1862.242188 
	C1210.492554,1859.255493 1210.275146,1856.265503 1210.274536,1853.276489 
	C1210.250244,1732.346436 1210.246948,1611.416382 1211.131836,1489.435181 
	C1223.290283,1488.352173 1234.557983,1488.320435 1245.825562,1488.288696 
z"/>
<path fill="#CC2B30" opacity="1.000000" stroke="none" 
	d="
M520.114136,1841.960205 
	C520.114197,1849.567505 520.114197,1856.180908 520.114197,1863.534912 
	C508.288300,1863.534912 497.139435,1863.534912 485.925659,1863.534912 
	C483.859833,1856.934448 482.976990,1512.586670 485.170624,1494.668457 
	C490.499298,1494.537109 496.024628,1494.346680 501.551392,1494.279663 
	C507.177948,1494.211426 512.805969,1494.264526 517.700562,1494.264526 
	C518.683594,1495.091309 518.967773,1495.280029 519.184937,1495.527466 
	C519.390686,1495.762085 519.671936,1496.057983 519.672302,1496.327393 
	C519.833618,1611.207031 519.973694,1726.086670 520.114136,1841.960205 
z"/>
<path fill="#FDFDFD" opacity="1.000000" stroke="none" 
	d="
M2427.781250,1631.673218 
	C2394.887939,1631.673218 2362.966797,1631.673218 2330.480469,1631.673218 
	C2330.480469,1595.362427 2330.480469,1559.849609 2330.480469,1523.684814 
	C2366.583252,1523.684814 2402.744873,1523.684814 2439.644531,1523.684814 
	C2439.644531,1559.298950 2439.644531,1595.010254 2439.644531,1631.673218 
	C2435.905518,1631.673218 2432.329590,1631.673218 2427.781250,1631.673218 
z"/>
<path fill="#CC2B30" opacity="1.000000" stroke="none" 
	d="
M1725.373413,1578.712769 
	C1717.394409,1567.983643 1709.949341,1557.751831 1702.223877,1547.736206 
	C1699.022339,1543.585693 1697.601074,1539.307129 1697.610107,1533.992554 
	C1697.742920,1455.736084 1697.696411,1377.479370 1697.724365,1299.222656 
	C1697.725220,1296.632080 1698.062988,1294.041504 1698.283813,1290.875732 
	C1709.869751,1290.875732 1721.024414,1290.875732 1732.928223,1290.875732 
	C1732.928223,1389.437744 1732.928223,1487.803467 1732.928223,1586.829712 
	C1729.160767,1585.526733 1728.044189,1581.805420 1725.373413,1578.712769 
z"/>
<path fill="#CC2B30" opacity="1.000000" stroke="none" 
	d="
M1177.495361,1454.291260 
	C1167.597168,1454.292603 1158.637085,1454.292603 1148.979004,1454.292603 
	C1148.979004,1399.697632 1148.979004,1345.859741 1148.979004,1290.533936 
	C1160.186035,1290.009033 1171.655518,1290.291748 1184.226196,1290.404053 
	C1184.522217,1293.950928 1185.013306,1297.116821 1185.016602,1300.283325 
	C1185.065796,1348.609253 1185.052002,1396.935181 1185.050293,1445.261108 
	C1185.050171,1449.880493 1186.031738,1455.233154 1177.495361,1454.291260 
z"/>
<path fill="#CC2B30" opacity="1.000000" stroke="none" 
	d="
M449.628601,1290.265625 
	C452.826050,1290.474731 455.073090,1290.683105 457.825287,1290.938232 
	C457.825287,1345.245605 457.825287,1399.056030 457.825287,1453.580322 
	C446.174286,1453.580322 434.767242,1453.580322 422.805664,1453.580322 
	C422.805664,1399.304810 422.805664,1345.495483 422.805664,1290.264893 
	C431.618530,1290.264893 440.148346,1290.264893 449.628601,1290.265625 
z"/>
<path fill="#CC2B30" opacity="1.000000" stroke="none" 
	d="
M1432.596069,1508.534790 
	C1445.206909,1491.807617 1457.914307,1475.152466 1470.406616,1458.337158 
	C1490.644897,1431.095581 1510.736450,1403.745117 1530.911377,1376.456665 
	C1532.255859,1374.638062 1533.781494,1372.953491 1536.120117,1370.119385 
	C1542.260254,1378.304932 1547.927368,1385.859985 1554.017944,1393.979492 
	C1551.434082,1397.620361 1549.024048,1401.131104 1546.498901,1404.557007 
	C1509.940308,1454.156006 1473.367676,1503.744873 1436.787109,1553.327637 
	C1435.800659,1554.664673 1434.686890,1555.907715 1432.988770,1556.655762 
	C1432.428711,1540.256348 1432.512451,1524.395630 1432.596069,1508.534790 
z"/>
<path fill="#CC2B30" opacity="1.000000" stroke="none" 
	d="
M1578.158936,1703.326660 
	C1582.246338,1695.965210 1586.802856,1689.212036 1592.334229,1681.862061 
	C1596.914551,1684.841431 1600.520386,1688.417603 1604.126221,1691.993896 
	C1604.126099,1691.993896 1603.999268,1691.990479 1604.106079,1692.584229 
	C1606.181396,1695.451172 1608.150024,1697.724365 1610.118652,1699.997559 
	C1610.118652,1699.997559 1609.996338,1699.995117 1610.091553,1700.593018 
	C1612.162231,1703.461182 1614.137451,1705.731445 1616.112671,1708.001709 
	C1616.112671,1708.001709 1615.992798,1707.999390 1616.078125,1708.600586 
	C1618.144287,1711.469849 1620.125000,1713.737915 1622.105713,1716.006104 
	C1622.105713,1716.006104 1621.989624,1716.002930 1622.079590,1716.643066 
	C1627.146240,1723.806396 1630.147461,1731.990601 1637.992065,1736.102661 
	C1637.992065,1736.102661 1638.018921,1735.990234 1637.853027,1736.682495 
	C1639.834595,1740.247314 1641.982056,1743.119873 1644.129517,1745.992432 
	C1644.129517,1745.992432 1644.001221,1745.988525 1644.111816,1746.580688 
	C1646.189087,1749.446899 1648.155640,1751.721069 1650.122192,1753.995117 
	C1650.122192,1753.995117 1649.996704,1753.994019 1650.098145,1754.589600 
	C1652.171509,1757.456543 1654.143433,1759.728027 1656.115234,1761.999390 
	C1656.115234,1761.999390 1655.995605,1761.996338 1656.083740,1762.596924 
	C1658.150635,1765.466309 1660.129395,1767.735107 1662.108154,1770.003906 
	C1662.108154,1770.003906 1661.991333,1770.001465 1662.070068,1770.605225 
	C1664.133179,1773.475342 1666.117554,1775.741699 1668.101929,1778.008057 
	C1668.101929,1778.008057 1667.988159,1778.005249 1668.073608,1778.646973 
	C1675.481079,1788.857056 1682.803101,1798.425293 1690.125244,1807.993530 
	C1690.125244,1807.993530 1689.998535,1807.991455 1690.105225,1808.585449 
	C1692.180298,1811.452271 1694.148560,1813.725342 1696.116699,1815.998413 
	C1696.116699,1815.998413 1695.996094,1815.995361 1696.086670,1816.594971 
	C1698.155151,1819.463867 1700.133057,1821.733276 1702.110962,1824.002686 
	C1702.110962,1824.002686 1701.992065,1823.999878 1702.074829,1824.601929 
	C1704.140015,1827.471680 1706.122437,1829.739380 1708.104858,1832.007080 
	C1708.104858,1832.007080 1707.989136,1832.003784 1708.079346,1832.644043 
	C1715.486938,1842.855347 1722.804443,1852.426270 1730.121948,1861.997070 
	C1730.121948,1861.997070 1729.996826,1861.977905 1729.969360,1862.496338 
	C1729.895996,1863.395386 1729.850098,1863.776245 1729.804077,1864.156982 
	C1721.813599,1864.202271 1713.802368,1863.910889 1705.839478,1864.403198 
	C1699.898315,1864.770752 1696.329102,1862.712646 1692.725098,1857.816406 
	C1654.871460,1806.391113 1616.706787,1755.194580 1578.158936,1703.326660 
z"/>
<path fill="#4B6896" opacity="1.000000" stroke="none" 
	d="
M1432.491089,1507.550049 
	C1432.512451,1524.395630 1432.428711,1540.256348 1432.479492,1557.041504 
	C1425.809326,1567.635742 1419.004761,1577.305786 1412.200317,1586.975830 
	C1411.665039,1586.731689 1411.129883,1586.487671 1410.594604,1586.243530 
	C1410.594604,1499.505371 1410.594604,1412.767212 1410.594604,1325.138794 
	C1417.270508,1325.138794 1424.010620,1325.138794 1432.189087,1325.138794 
	C1432.254761,1385.579102 1432.320435,1446.072144 1432.491089,1507.550049 
z"/>
<path fill="#CE2D32" opacity="1.000000" stroke="none" 
	d="
M869.671448,1489.588135 
	C880.528687,1488.556274 891.407898,1488.403320 903.241394,1488.270752 
	C904.195740,1517.124023 904.195740,1545.956787 904.195740,1576.219971 
	C893.081665,1577.090332 882.069763,1576.751343 869.693359,1576.377563 
	C869.693359,1547.308594 869.693359,1518.887695 869.671448,1489.588135 
z"/>
<path fill="#4B6795" opacity="1.000000" stroke="none" 
	d="
M1245.972534,1487.338135 
	C1234.557983,1488.320435 1223.290283,1488.352173 1211.119873,1488.541992 
	C1208.928345,1487.435059 1206.563843,1486.204468 1206.522461,1484.900024 
	C1206.208862,1475.037109 1206.351074,1465.159668 1206.351074,1454.714600 
	C1219.807617,1454.714600 1232.257935,1454.714600 1246.119507,1454.714600 
	C1246.119507,1465.419312 1246.119507,1475.903442 1245.972534,1487.338135 
z"/>
<path fill="#4C6997" opacity="1.000000" stroke="none" 
	d="
M683.918335,1561.837524 
	C683.918274,1550.976440 683.918274,1541.086792 683.918274,1530.469971 
	C691.457214,1530.469971 698.189209,1530.469971 705.608643,1530.469971 
	C705.608643,1545.720459 705.608643,1560.807861 705.608643,1576.632812 
	C698.779602,1576.632812 692.020264,1576.632812 683.918396,1576.632812 
	C683.918396,1571.849243 683.918396,1567.329224 683.918335,1561.837524 
z"/>
<path fill="#D2383C" opacity="1.000000" stroke="none" 
	d="
M2662.108398,1543.153809 
	C2661.214844,1541.592651 2660.047852,1539.120361 2660.041748,1536.645264 
	C2659.931885,1492.442749 2659.955322,1448.239868 2659.995850,1404.036987 
	C2659.997559,1402.413330 2660.464844,1400.790283 2661.287598,1398.553101 
	C2662.075195,1399.573730 2662.477539,1401.208130 2662.477295,1402.842407 
	C2662.468262,1449.308838 2662.418457,1495.775146 2662.108398,1543.153809 
z"/>
<path fill="#4B6795" opacity="1.000000" stroke="none" 
	d="
M1730.239258,1861.273926 
	C1722.804443,1852.426270 1715.486938,1842.855347 1708.095215,1832.588379 
	C1709.332764,1832.690918 1711.062012,1833.188232 1711.890381,1834.335938 
	C1718.145142,1843.002441 1724.223267,1851.796631 1730.239258,1861.273926 
z"/>
<path fill="#4B6795" opacity="1.000000" stroke="none" 
	d="
M1690.249023,1807.270874 
	C1682.803101,1798.425293 1675.481079,1788.857056 1668.088867,1778.592163 
	C1669.329468,1778.698853 1671.053833,1779.203247 1671.885254,1780.353271 
	C1678.146606,1789.013428 1684.232178,1797.800659 1690.249023,1807.270874 
z"/>
<path fill="#4B6795" opacity="1.000000" stroke="none" 
	d="
M1637.869873,1735.417969 
	C1630.147461,1731.990601 1627.146240,1723.806396 1622.095947,1716.587402 
	C1627.264160,1722.172119 1632.505859,1728.452759 1637.869873,1735.417969 
z"/>
<path fill="#4B6795" opacity="1.000000" stroke="none" 
	d="
M1604.253174,1691.282715 
	C1600.520386,1688.417603 1596.914551,1684.841431 1592.565430,1681.198242 
	C1592.437378,1680.131714 1593.052734,1679.132202 1594.218018,1677.864014 
	C1597.971924,1681.920776 1601.176025,1686.246216 1604.253174,1691.282715 
z"/>
<path fill="#4B6795" opacity="1.000000" stroke="none" 
	d="
M1644.271729,1745.299072 
	C1641.982056,1743.119873 1639.834595,1740.247314 1637.795532,1736.676758 
	C1640.073975,1738.854614 1642.244019,1741.730225 1644.271729,1745.299072 
z"/>
<path fill="#4B6795" opacity="1.000000" stroke="none" 
	d="
M1702.211304,1823.295898 
	C1700.133057,1821.733276 1698.155151,1819.463867 1696.106445,1816.537842 
	C1698.127686,1818.117310 1700.219727,1820.353271 1702.211304,1823.295898 
z"/>
<path fill="#4B6795" opacity="1.000000" stroke="none" 
	d="
M1696.230347,1815.290283 
	C1694.148560,1813.725342 1692.180298,1811.452271 1690.127930,1808.526123 
	C1692.143799,1810.109375 1694.243896,1812.345825 1696.230347,1815.290283 
z"/>
<path fill="#4B6795" opacity="1.000000" stroke="none" 
	d="
M1708.191650,1831.301514 
	C1706.122437,1829.739380 1704.140015,1827.471680 1702.093384,1824.545410 
	C1704.112183,1826.123291 1706.195190,1828.359619 1708.191650,1831.301514 
z"/>
<path fill="#4B6795" opacity="1.000000" stroke="none" 
	d="
M1668.184814,1777.303223 
	C1666.117554,1775.741699 1664.133179,1773.475342 1662.087891,1770.549561 
	C1664.107178,1772.126099 1666.187500,1774.362183 1668.184814,1777.303223 
z"/>
<path fill="#4B6795" opacity="1.000000" stroke="none" 
	d="
M1662.204712,1769.297607 
	C1660.129395,1767.735107 1658.150635,1765.466309 1656.102783,1762.540283 
	C1658.122925,1764.119019 1660.212036,1766.355225 1662.204712,1769.297607 
z"/>
<path fill="#4B6795" opacity="1.000000" stroke="none" 
	d="
M1656.223022,1761.291992 
	C1654.143433,1759.728027 1652.171509,1757.456543 1650.120117,1754.530762 
	C1652.137207,1756.112427 1654.234009,1758.348511 1656.223022,1761.291992 
z"/>
<path fill="#4B6795" opacity="1.000000" stroke="none" 
	d="
M1650.243896,1753.286255 
	C1648.155640,1751.721069 1646.189087,1749.446899 1644.135132,1746.520874 
	C1646.153564,1748.105103 1648.259521,1750.341309 1650.243896,1753.286255 
z"/>
<path fill="#4B6795" opacity="1.000000" stroke="none" 
	d="
M1622.193481,1715.300171 
	C1620.125000,1713.737915 1618.144287,1711.469849 1616.096802,1708.543701 
	C1618.113770,1710.121826 1620.197510,1712.358032 1622.193481,1715.300171 
z"/>
<path fill="#4B6795" opacity="1.000000" stroke="none" 
	d="
M1616.214844,1707.294678 
	C1614.137451,1705.731445 1612.162231,1703.461182 1610.111816,1700.535278 
	C1612.130127,1702.115723 1614.223633,1704.351807 1616.214844,1707.294678 
z"/>
<path fill="#4B6795" opacity="1.000000" stroke="none" 
	d="
M1610.234131,1699.289307 
	C1608.150024,1697.724365 1606.181396,1695.451172 1604.128662,1692.524902 
	C1606.145996,1694.108276 1608.247803,1696.344604 1610.234131,1699.289307 
z"/>
<path fill="#4B6795" opacity="1.000000" stroke="none" 
	d="
M1730.092041,1864.546387 
	C1729.850098,1863.776245 1729.895996,1863.395386 1730.002563,1862.442383 
	C1730.663452,1862.037231 1731.263550,1862.204346 1732.046875,1862.849243 
	C1732.187744,1863.753174 1732.145508,1864.179443 1732.071533,1865.247070 
	C1731.388306,1865.742188 1730.835083,1865.424683 1730.092041,1864.546387 
z"/>
<path fill="#FEF9F9" opacity="1.000000" stroke="none" 
	d="
M2642.440430,2116.487305 
	C2642.448486,2121.712402 2642.448486,2126.015137 2642.448486,2130.827881 
	C2639.673584,2131.165283 2637.459473,2131.658936 2635.243164,2131.667969 
	C2618.928711,2131.735107 2602.613525,2131.765381 2586.298828,2131.683838 
	C2576.062256,2131.632568 2569.134766,2124.637207 2569.061279,2114.304443 
	C2568.971191,2101.652832 2568.939209,2088.999023 2569.075439,2076.348145 
	C2569.172363,2067.354736 2576.362061,2060.102539 2585.244385,2060.030518 
	C2599.893555,2059.912109 2614.545166,2059.904297 2629.194336,2060.034180 
	C2637.915527,2060.111328 2645.134766,2067.589111 2645.363281,2076.466553 
	C2645.448975,2079.793945 2645.386230,2083.125488 2645.376465,2086.455078 
	C2645.337158,2099.660645 2639.188965,2105.997559 2626.297852,2105.999023 
	C2616.646973,2106.000000 2606.995850,2105.902100 2597.345459,2105.794922 
	C2596.755859,2105.788330 2596.171143,2105.311523 2594.991211,2104.792480 
	C2594.991211,2098.940918 2594.991211,2092.826416 2594.991211,2085.568115 
	C2604.890625,2085.568115 2614.341309,2085.568115 2623.409912,2085.568115 
	C2624.892822,2081.020020 2622.785645,2080.375977 2620.170410,2080.365479 
	C2610.552490,2080.326904 2600.934814,2080.350342 2590.180664,2080.350342 
	C2589.413574,2090.566650 2589.565674,2100.279053 2590.098389,2110.997070 
	C2604.357178,2110.997070 2617.923340,2110.988037 2631.489746,2111.005127 
	C2634.151123,2111.008301 2636.949951,2110.641602 2639.417725,2111.362305 
	C2640.720459,2111.742676 2641.446045,2114.100098 2642.440430,2116.487305 
z"/>
<path fill="#FEF9F9" opacity="1.000000" stroke="none" 
	d="
M1019.298401,2118.562988 
	C1019.299255,2123.051270 1019.299255,2126.662598 1019.299255,2130.857422 
	C1016.382629,2131.195801 1014.185913,2131.662842 1011.987549,2131.671387 
	C995.662170,2131.733887 979.336121,2131.757812 963.010803,2131.686523 
	C952.592102,2131.640869 945.791138,2124.845459 945.726440,2114.448486 
	C945.649780,2102.121338 945.661682,2089.793213 945.724304,2077.465820 
	C945.778320,2066.845947 952.331116,2060.077148 962.681885,2060.018311 
	C976.674805,2059.938477 990.668945,2059.934326 1004.661865,2060.020508 
	C1014.789429,2060.082764 1021.681580,2067.184082 1021.808472,2077.478516 
	C1021.849548,2080.809814 1021.832153,2084.142090 1021.812622,2087.473877 
	C1021.743896,2099.217529 1015.208313,2105.944580 1003.723816,2106.000488 
	C993.414185,2106.050537 983.104065,2106.010986 971.931763,2106.010986 
	C971.931763,2099.182861 971.931763,2092.809326 971.931763,2086.342041 
	C981.559143,2084.125732 991.636963,2087.678711 1001.931763,2083.852295 
	C995.691467,2079.751709 984.338989,2079.079834 966.722046,2081.192139 
	C966.722046,2090.551025 966.722046,2100.004883 966.722046,2110.263672 
	C969.620605,2110.510498 972.474548,2110.944824 975.331177,2110.963135 
	C987.991455,2111.043213 1000.654968,2111.154297 1013.311768,2110.933838 
	C1018.397583,2110.845215 1019.728760,2113.285645 1019.298401,2118.562988 
z"/>
<path fill="#FEF9F9" opacity="1.000000" stroke="none" 
	d="
M1225.020020,2076.812988 
	C1229.736328,2083.139160 1234.010010,2088.894043 1238.283569,2094.648682 
	C1238.815918,2094.434570 1239.348389,2094.220703 1239.880737,2094.006592 
	C1239.880737,2083.190430 1239.880737,2072.374268 1239.880737,2060.788574 
	C1246.716431,2060.788574 1252.823486,2060.788574 1259.684814,2060.788574 
	C1259.684814,2084.007568 1259.684814,2107.389160 1259.684814,2130.903564 
	C1258.356812,2131.220703 1257.432861,2131.597900 1256.493286,2131.642090 
	C1240.755249,2132.380371 1240.757935,2132.368652 1231.234497,2119.517334 
	C1227.871826,2114.979492 1224.489502,2110.456299 1220.812378,2105.518311 
	C1215.286865,2108.441406 1213.076416,2113.867920 1209.813110,2118.188477 
	C1199.044922,2132.445068 1199.154541,2132.527832 1180.693115,2131.187500 
	C1178.366943,2123.259277 1179.921997,2114.967773 1179.644165,2106.822510 
	C1179.361572,2098.539795 1179.581665,2090.239746 1179.581665,2081.549316 
	C1176.966919,2080.784668 1174.840698,2080.163086 1172.332031,2079.429443 
	C1172.332031,2073.371338 1172.332031,2067.201172 1172.332031,2060.514648 
	C1181.365723,2060.514648 1189.895996,2060.514648 1199.494385,2060.514648 
	C1199.494385,2071.666992 1199.494385,2082.779053 1199.494385,2093.890869 
	C1200.141357,2094.135254 1200.788208,2094.379639 1201.435181,2094.624023 
	C1207.340210,2086.905518 1213.245117,2079.187012 1219.660400,2070.801270 
	C1221.629639,2072.980225 1223.103394,2074.611084 1225.020020,2076.812988 
z"/>
<path fill="#FDF4F5" opacity="1.000000" stroke="none" 
	d="
M1333.865112,2131.479492 
	C1324.512817,2125.701660 1321.283936,2118.049072 1322.168335,2107.703857 
	C1323.042480,2097.477295 1322.277466,2087.116943 1322.384644,2076.816895 
	C1322.482178,2067.434814 1329.788452,2060.060059 1339.120239,2059.997803 
	C1354.405151,2059.895508 1369.692017,2059.889404 1384.976807,2060.000977 
	C1393.777588,2060.065186 1401.323120,2067.415039 1401.424072,2076.100342 
	C1401.578735,2089.390625 1401.596924,2102.685303 1401.414062,2115.974854 
	C1401.304565,2123.931885 1393.511719,2131.632324 1385.522827,2131.687988 
	C1368.577393,2131.806152 1351.630005,2131.673828 1333.865112,2131.479492 
M1351.752197,2111.254395 
	C1361.005249,2111.254395 1370.258179,2111.254395 1380.468506,2111.254395 
	C1380.459229,2100.447266 1381.380249,2090.709717 1379.767944,2081.027344 
	C1367.281250,2081.027344 1355.522217,2081.027344 1342.903931,2081.027344 
	C1342.903931,2089.687988 1343.068481,2097.636230 1342.846436,2105.573242 
	C1342.696289,2110.936768 1345.855103,2111.511230 1351.752197,2111.254395 
z"/>
<path fill="#FDF4F5" opacity="1.000000" stroke="none" 
	d="
M2492.399170,2059.976562 
	C2497.582031,2059.971191 2501.850098,2059.971191 2506.684814,2059.971191 
	C2506.684814,2084.030518 2506.684814,2107.198242 2506.684814,2131.698486 
	C2500.927490,2131.698486 2495.332520,2132.201172 2489.902588,2131.471680 
	C2487.438477,2131.140869 2484.778076,2128.775635 2483.108643,2126.631104 
	C2475.793457,2117.235840 2468.808594,2107.583496 2459.820068,2098.391602 
	C2459.820068,2109.027588 2459.820068,2119.663574 2459.820068,2131.003906 
	C2452.399658,2131.003906 2446.253906,2131.003906 2438.604248,2131.003906 
	C2438.107666,2114.831055 2438.656738,2098.322266 2438.311279,2081.621826 
	C2435.848389,2080.803711 2433.749023,2080.106201 2431.479004,2079.352051 
	C2431.479004,2073.084961 2431.479004,2066.905518 2431.479004,2060.351807 
	C2441.039795,2060.351807 2449.967041,2060.351807 2459.281982,2060.351807 
	C2467.540527,2071.388672 2475.886719,2082.542725 2484.734131,2094.366455 
	C2487.313721,2090.467773 2486.232910,2086.807861 2486.344482,2083.443604 
	C2486.543213,2077.452881 2486.499756,2071.449219 2486.376221,2065.454834 
	C2486.301025,2061.815430 2487.499756,2059.679932 2492.399170,2059.976562 
z"/>
<path fill="#FEF9F9" opacity="1.000000" stroke="none" 
	d="
M747.967224,2118.555664 
	C743.708313,2128.456299 737.067017,2132.482178 726.673157,2131.894287 
	C713.078796,2131.125244 699.407349,2131.791260 685.770508,2131.674805 
	C676.806946,2131.598145 669.638489,2124.439697 669.552124,2115.450439 
	C669.424377,2102.146484 669.406860,2088.838623 669.564941,2075.535400 
	C669.664734,2067.136230 676.856689,2060.096924 685.346802,2060.032471 
	C700.979492,2059.913818 716.614746,2059.901855 732.247070,2060.042236 
	C740.459656,2060.116211 747.884033,2067.558594 747.968506,2075.783691 
	C748.111877,2089.752686 748.004211,2103.724121 747.967224,2118.555664 
M689.827881,2106.336914 
	C689.794983,2108.875977 690.312378,2111.136475 693.445068,2111.153564 
	C704.646118,2111.214844 715.847717,2111.177490 727.673706,2111.177490 
	C727.570984,2100.135254 728.161865,2090.367432 727.373169,2080.949707 
	C714.144958,2080.949707 702.309814,2080.949707 689.816284,2080.949707 
	C689.816284,2089.234375 689.816284,2096.849365 689.827881,2106.336914 
z"/>
<path fill="#FEF9F9" opacity="1.000000" stroke="none" 
	d="
M2016.707520,2060.017578 
	C2025.837769,2063.583496 2030.818115,2068.931641 2030.314697,2078.855713 
	C2029.708862,2090.798096 2030.243408,2102.795410 2030.148926,2114.767822 
	C2030.073730,2124.309814 2022.935791,2131.609131 2013.528320,2131.675049 
	C1998.229980,2131.781982 1982.929443,2131.799805 1967.631592,2131.664307 
	C1959.410034,2131.591553 1951.847412,2124.177734 1951.753296,2116.065674 
	C1951.594971,2102.431396 1951.591064,2088.792480 1951.763672,2075.158203 
	C1951.860962,2067.481201 1959.255371,2060.116943 1966.949951,2060.045898 
	C1983.245483,2059.895020 1999.543335,2060.001953 2016.707520,2060.017578 
M2004.363525,2080.269531 
	C1993.834961,2080.269531 1983.306519,2080.269531 1972.426025,2080.269531 
	C1972.426025,2091.062500 1972.426025,2100.571289 1972.426025,2110.608887 
	C1984.981567,2110.608887 1997.078735,2110.608887 2009.844849,2110.608887 
	C2009.844849,2101.340088 2009.996704,2092.724854 2009.683228,2084.126709 
	C2009.635498,2082.816895 2007.432495,2081.585693 2004.363525,2080.269531 
z"/>
<path fill="#FEF9F9" opacity="1.000000" stroke="none" 
	d="
M2163.737305,2121.581543 
	C2163.615723,2125.143066 2163.494629,2127.756104 2163.312500,2131.685059 
	C2157.465332,2131.685059 2151.867676,2132.189697 2146.436768,2131.457764 
	C2143.972168,2131.125732 2141.313721,2128.750000 2139.644287,2126.601318 
	C2132.143311,2116.946533 2124.966309,2107.040527 2115.996582,2097.524414 
	C2115.996582,2108.533691 2115.996582,2119.543213 2115.996582,2131.106201 
	C2108.671631,2131.106201 2102.509521,2131.106201 2095.450195,2131.106201 
	C2095.450195,2114.786133 2095.450195,2098.563965 2095.450195,2082.066406 
	C2092.499268,2080.891357 2090.218506,2079.983398 2088.125977,2079.150146 
	C2088.125977,2072.827881 2088.125977,2066.942871 2088.125977,2060.030273 
	C2096.462402,2060.030273 2104.404297,2059.563721 2112.235596,2060.288086 
	C2114.906982,2060.535400 2117.859131,2063.339844 2119.723633,2065.725586 
	C2126.866943,2074.866455 2133.620361,2084.312500 2141.671387,2095.203125 
	C2144.718750,2082.769043 2141.712891,2071.545654 2143.895508,2060.503174 
	C2150.311768,2060.503174 2156.478027,2060.503174 2163.737549,2060.503174 
	C2163.737549,2080.869873 2163.737549,2100.751465 2163.737305,2121.581543 
z"/>
<path fill="#FEF9F9" opacity="1.000000" stroke="none" 
	d="
M1470.563477,2131.671387 
	C1468.546753,2130.290771 1466.475098,2128.955811 1466.450684,2127.584229 
	C1466.207642,2114.005127 1466.303467,2100.420166 1466.303467,2086.267578 
	C1473.322754,2086.267578 1479.500610,2086.267578 1486.057495,2086.267578 
	C1486.592041,2089.150391 1487.123047,2092.014648 1487.737915,2095.331055 
	C1496.140015,2095.331055 1504.359009,2095.331055 1513.413574,2095.331055 
	C1513.413574,2090.672852 1513.413574,2085.983887 1513.413574,2080.324219 
	C1495.344971,2080.324219 1477.505615,2080.324219 1459.125732,2080.324219 
	C1459.125732,2073.249023 1459.125732,2067.124756 1459.125732,2059.998047 
	C1463.927246,2059.998047 1468.173706,2059.998047 1472.420288,2059.998047 
	C1487.742065,2059.998047 1503.064331,2059.926514 1518.385498,2060.024902 
	C1527.480835,2060.083252 1534.613281,2067.093994 1534.799805,2076.068359 
	C1534.938110,2082.727295 1534.415283,2089.424072 1534.944336,2096.043701 
	C1535.492432,2102.900391 1533.873901,2108.434570 1528.274414,2112.654297 
	C1527.269531,2113.411865 1526.603882,2114.619629 1525.330322,2116.168213 
	C1529.571167,2120.834717 1533.698730,2125.376709 1539.360229,2131.606445 
	C1530.675171,2131.606445 1523.680542,2132.622559 1517.203003,2131.230957 
	C1513.219727,2130.375488 1509.577759,2126.238525 1506.579834,2122.866455 
	C1501.470581,2117.119385 1495.907227,2114.133057 1487.526855,2117.281006 
	C1487.161377,2121.447510 1486.766113,2125.952393 1486.262085,2131.699951 
	C1481.181885,2131.699951 1476.320312,2131.699951 1470.563477,2131.671387 
z"/>
<path fill="#FEF9F9" opacity="1.000000" stroke="none" 
	d="
M1776.239502,2086.458984 
	C1776.703857,2080.689209 1773.725464,2080.264648 1769.969482,2080.295410 
	C1757.332764,2080.399170 1744.694824,2080.331055 1732.057251,2080.329102 
	C1728.753052,2080.328613 1725.448975,2080.329102 1721.350098,2080.329102 
	C1721.350098,2073.698975 1721.350098,2067.613525 1721.350098,2060.817383 
	C1723.374878,2060.558105 1725.562012,2060.043701 1727.750854,2060.035156 
	C1745.044067,2059.968262 1762.337891,2059.947266 1779.630981,2060.016602 
	C1790.023193,2060.058350 1796.737915,2066.810303 1796.809082,2077.268799 
	C1796.892700,2089.572998 1796.901367,2101.878906 1796.807129,2114.183105 
	C1796.727661,2124.566406 1789.848633,2131.630127 1779.728882,2131.682617 
	C1763.122803,2131.768555 1746.515869,2131.705811 1728.591064,2131.705811 
	C1728.475220,2123.766846 1728.324585,2116.283203 1728.268433,2108.798828 
	C1728.213989,2101.539307 1728.256714,2094.279297 1728.256714,2086.359619 
	C1735.131348,2086.359619 1741.272827,2086.359619 1748.637573,2086.359619 
	C1748.637573,2094.011230 1748.637573,2101.780518 1748.637573,2110.257324 
	C1758.258667,2110.257324 1766.681763,2110.257324 1776.244019,2110.257324 
	C1776.244019,2102.531494 1776.244019,2094.969727 1776.239502,2086.458984 
z"/>
<path fill="#FEF9F9" opacity="1.000000" stroke="none" 
	d="
M544.814575,2131.660156 
	C542.909302,2130.515381 541.022400,2129.418945 541.006042,2128.294922 
	C540.803772,2114.381592 540.874023,2100.464355 540.874023,2086.145020 
	C548.043701,2086.145020 554.232727,2086.145020 560.915833,2086.145020 
	C561.381165,2089.353516 561.791321,2092.181641 562.256042,2095.385742 
	C570.846619,2095.385742 579.052490,2095.385742 587.988647,2095.385742 
	C587.988647,2090.602051 587.988647,2086.131592 587.988647,2080.647949 
	C570.126160,2080.647949 552.270996,2080.647949 533.860718,2080.647949 
	C533.860718,2073.479004 533.860718,2067.306152 533.860718,2060.562012 
	C536.639832,2060.363281 539.195923,2060.029541 541.752930,2060.022461 
	C558.748230,2059.975342 575.744141,2059.928711 592.739014,2060.025391 
	C602.162598,2060.078857 609.385681,2067.395508 609.512817,2076.876221 
	C609.615601,2084.539307 609.636780,2092.206787 609.503845,2099.869141 
	C609.350708,2108.691406 602.011475,2116.011475 593.171936,2116.117188 
	C582.928284,2116.239502 572.682129,2116.145508 562.055481,2116.145508 
	C561.747437,2121.453125 561.500183,2125.714111 561.172302,2131.363770 
	C556.016235,2131.474365 550.859192,2131.584961 544.814575,2131.660156 
z"/>
<path fill="#FDF4F5" opacity="1.000000" stroke="none" 
	d="
M816.799438,2131.687988 
	C811.594421,2130.644531 812.788208,2127.095703 812.757263,2124.354492 
	C812.633545,2113.374268 812.705627,2102.392090 812.705322,2091.410645 
	C812.705200,2088.144531 812.705261,2084.878662 812.705261,2081.540771 
	C809.842651,2080.625000 807.766846,2079.960693 805.651245,2079.283936 
	C805.651245,2072.995117 805.651245,2067.081299 805.651245,2060.571777 
	C814.823853,2060.571777 823.593201,2060.571777 833.362732,2060.571777 
	C833.362732,2068.693848 833.362732,2076.535156 833.362732,2085.003418 
	C839.504150,2085.003418 844.677856,2085.003418 850.944824,2085.003418 
	C854.709900,2077.342041 858.774170,2069.072021 863.027710,2060.416748 
	C869.833740,2060.416748 876.707520,2060.416748 884.996521,2060.416748 
	C881.588196,2068.043945 878.541931,2074.912842 875.453125,2081.762695 
	C867.575134,2099.233398 867.668213,2092.462158 875.618103,2110.123047 
	C878.588257,2116.720947 881.620667,2123.291260 885.125122,2130.970703 
	C877.184692,2130.970703 870.466553,2130.970703 862.901184,2130.970703 
	C859.186768,2123.089111 855.257812,2114.752441 851.296204,2106.346191 
	C845.601929,2106.346191 840.347046,2106.346191 834.080627,2106.346191 
	C834.080627,2114.384521 834.080627,2122.200439 834.080627,2131.288574 
	C827.990051,2131.450439 822.839905,2131.587158 816.799438,2131.687988 
z"/>
<path fill="#FDF4F5" opacity="1.000000" stroke="none" 
	d="
M1667.266602,2129.102051 
	C1666.266602,2130.493408 1665.465576,2131.464355 1664.660522,2131.467529 
	C1643.793091,2131.550781 1622.925049,2131.533447 1600.959961,2131.533447 
	C1600.959961,2114.557373 1600.959961,2098.094238 1600.959961,2081.632812 
	C1597.886963,2080.655762 1595.805176,2079.994141 1593.624756,2079.300781 
	C1593.624756,2073.076416 1593.624756,2067.170166 1593.624756,2060.619141 
	C1602.744873,2060.619141 1611.500366,2060.619141 1621.501709,2060.619141 
	C1621.501709,2077.141113 1621.501709,2093.547607 1621.501709,2110.853271 
	C1637.188599,2110.853271 1651.664551,2110.853271 1667.463501,2110.853271 
	C1667.463501,2117.223877 1667.463501,2122.727295 1667.266602,2129.102051 
z"/>
<path fill="#FDF4F5" opacity="1.000000" stroke="none" 
	d="
M2295.537598,2121.971924 
	C2295.378174,2125.441895 2295.218750,2128.021973 2295.025635,2131.148926 
	C2273.068115,2131.148926 2251.623291,2131.148926 2229.072266,2131.148926 
	C2229.072266,2114.690430 2229.072266,2098.238037 2229.072266,2081.749756 
	C2225.998535,2080.754883 2223.906006,2080.077393 2221.582031,2079.324951 
	C2221.582031,2073.241211 2221.582031,2067.331543 2221.582031,2060.695801 
	C2230.640869,2060.695801 2239.389404,2060.695801 2249.392090,2060.695801 
	C2249.392090,2076.994141 2249.392090,2093.408936 2249.392090,2110.732910 
	C2265.068115,2110.732910 2279.534912,2110.732910 2294.944580,2110.732910 
	C2295.175293,2114.759521 2295.356689,2117.920654 2295.537598,2121.971924 
z"/>
<path fill="#FEF9F9" opacity="1.000000" stroke="none" 
	d="
M2373.714844,2070.361816 
	C2373.714844,2090.921143 2373.714844,2110.519531 2373.714844,2130.909180 
	C2367.036133,2130.909180 2360.909912,2130.909180 2353.335938,2130.909180 
	C2352.707031,2107.849609 2353.173096,2084.473389 2353.039307,2060.545898 
	C2360.120605,2060.545898 2366.271484,2060.545898 2373.153809,2060.545898 
	C2373.348877,2063.624268 2373.531982,2066.512695 2373.714844,2070.361816 
z"/>
<path fill="#D2383C" opacity="1.000000" stroke="none" 
	d="
M1350.844116,2111.253174 
	C1345.855103,2111.511230 1342.696289,2110.936768 1342.846436,2105.573242 
	C1343.068481,2097.636230 1342.903931,2089.687988 1342.903931,2081.027344 
	C1355.522217,2081.027344 1367.281250,2081.027344 1379.767944,2081.027344 
	C1381.380249,2090.709717 1380.459229,2100.447266 1380.468506,2111.254395 
	C1370.258179,2111.254395 1361.005249,2111.254395 1350.844116,2111.253174 
z"/>
<path fill="#D2383C" opacity="1.000000" stroke="none" 
	d="
M689.822083,2105.400635 
	C689.816284,2096.849365 689.816284,2089.234375 689.816284,2080.949707 
	C702.309814,2080.949707 714.144958,2080.949707 727.373169,2080.949707 
	C728.161865,2090.367432 727.570984,2100.135254 727.673706,2111.177490 
	C715.847717,2111.177490 704.646118,2111.214844 693.445068,2111.153564 
	C690.312378,2111.136475 689.794983,2108.875977 689.822083,2105.400635 
z"/>
<path fill="#D2383C" opacity="1.000000" stroke="none" 
	d="
M2005.294922,2080.293701 
	C2007.432495,2081.585693 2009.635498,2082.816895 2009.683228,2084.126709 
	C2009.996704,2092.724854 2009.844849,2101.340088 2009.844849,2110.608887 
	C1997.078735,2110.608887 1984.981567,2110.608887 1972.426025,2110.608887 
	C1972.426025,2100.571289 1972.426025,2091.062500 1972.426025,2080.269531 
	C1983.306519,2080.269531 1993.834961,2080.269531 2005.294922,2080.293701 
z"/>
</svg>